SplineFontDB: 3.0
FontName: SimpleRad
FullName: Simple Rad
FamilyName: Simple Rad
Weight: Normal
Copyright: Copyright (c) 2008-2015 by Terrence Curran - http://www.grilledcheese.com
Version: 2015-04-14
ItalicAngle: 0
UnderlinePosition: -123
UnderlineWidth: 20
Ascent: 800
Descent: 200
InvalidEm: 0
sfntRevision: 0x00010000
LayerCount: 2
Layer: 0 0 "Back" 1
Layer: 1 0 "Fore" 0
PreferredKerning: 4
XUID: [1021 270 -1463357204 14024407]
FSType: 0
OS2Version: 2
OS2_WeightWidthSlopeOnly: 0
OS2_UseTypoMetrics: 1
CreationTime: 1218390095
ModificationTime: 1429044831
PfmFamily: 81
TTFWeight: 400
TTFWidth: 5
LineGap: 0
VLineGap: 0
Panose: 0 0 4 0 0 0 0 0 0 0
OS2TypoAscent: 855
OS2TypoAOffset: 0
OS2TypoDescent: -256
OS2TypoDOffset: 0
OS2TypoLinegap: 0
OS2WinAscent: 855
OS2WinAOffset: 0
OS2WinDescent: 256
OS2WinDOffset: 0
HheadAscent: 855
HheadAOffset: 0
HheadDescent: -256
HheadDOffset: 0
OS2SubXSize: 700
OS2SubYSize: 650
OS2SubXOff: 0
OS2SubYOff: 143
OS2SupXSize: 700
OS2SupYSize: 650
OS2SupXOff: 0
OS2SupYOff: 453
OS2StrikeYSize: 50
OS2StrikeYPos: 259
OS2CapHeight: 0
OS2XHeight: 0
OS2Vendor: 'gril'
OS2CodePages: 20000111.40000000
OS2UnicodeRanges: 800000af.4000204a.00000000.00000000
Lookup: 258 0 0 "'kern' Horizontal Kerning in Latin lookup 0" { "'kern' Horizontal Kerning in Latin lookup 0 subtable"  } ['kern' ('latn' <'dflt' > ) ]
MarkAttachClasses: 1
DEI: 91125

StartChar: exclam
Encoding: 33 33 1
GlifName: exclam
Width: 244
Flags: MW
HStem: 1 109<100.5 131.5> 619 20G<109 134>
VStem: 60 112<40.5 70.5> 83 75<188 600 600 603>
LayerCount: 2
Back
Fore
SplineSet
83 188 m 2xd0
 83 600 l 2
 83 626 96 639 122 639 c 0
 146 639 158 627 158 603 c 2
 158 188 l 2
 158 163 145 151 120 151 c 0
 95 151 83 163 83 188 c 2xd0
60 55 m 0xe0
 60 86 85 110 116 110 c 0
 147 110 172 86 172 55 c 0
 172 26 147 1 116 1 c 0
 85 1 60 26 60 55 c 0xe0
EndSplineSet
Validated: 1
EndChar

StartChar: quotedbl
Encoding: 34 34 2
GlifName: quotedbl
Width: 500
Flags: MW
HStem: 479 21G<125.5 150.5 347.5 372.5> 745 20G<125.5 150.5 347.5 372.5>
VStem: 100 75<517 727> 322 75<517 727>
LayerCount: 2
Back
Fore
SplineSet
175 727 m 2
 175 517 l 2
 175 492 163 479 138 479 c 0
 113 479 100 492 100 517 c 2
 100 727 l 2
 100 752 113 765 138 765 c 0
 163 765 175 752 175 727 c 2
397 727 m 2
 397 517 l 2
 397 492 385 479 360 479 c 0
 335 479 322 492 322 517 c 2
 322 727 l 2
 322 752 335 765 360 765 c 0
 385 765 397 752 397 727 c 2
EndSplineSet
Validated: 1
EndChar

StartChar: numbersign
Encoding: 35 35 3
GlifName: numbersign
Width: 653
Flags: MW
HStem: -35 250<48 220.5> 139 76<48 171 246 419 48 246> 412 75<35.5 171 48 171 596 608.5> 412 220<35.5 222 48 222>
VStem: 11 235<-10.5 189.5> 171 75<2 139 215 412 412 412 487 593 593 596> 419 75<2 139 215 413 487 593 593 596> 419 221<2 189.5 139 189.5 164.5 413>
LayerCount: 2
Back
Fore
SplineSet
171 215 m 1x66
 171 412 l 1xa6
 48 412 l 2
 23 412 11 425 11 450 c 0xaa
 11 475 23 487 48 487 c 2
 171 487 l 1xa6
 171 593 l 2
 171 619 184 632 210 632 c 0x96
 234 632 246 620 246 596 c 2
 246 487 l 1
 419 487 l 1xaa
 419 593 l 2
 419 619 432 632 458 632 c 0x9a
 482 632 494 620 494 596 c 2
 494 487 l 1
 596 487 l 2
 621 487 634 474 634 449 c 0
 634 424 621 412 596 412 c 2
 494 413 l 1
 494 215 l 1xaa
 602 215 l 2
 627 215 640 202 640 177 c 0xa9
 640 152 627 140 602 140 c 2
 494 139 l 1x6a
 494 2 l 2
 494 -23 482 -35 457 -35 c 0xaa
 432 -35 419 -23 419 2 c 2
 419 139 l 1
 246 139 l 1x6a
 246 2 l 2
 246 -23 233 -35 208 -35 c 0xaa
 183 -35 171 -23 171 2 c 2
 171 139 l 1x66
 48 140 l 2
 23 140 11 152 11 177 c 0x6a
 11 202 23 215 48 215 c 2
 171 215 l 1x66
419 413 m 1
 246 413 l 1
 246 215 l 1
 419 215 l 1
 419 413 l 1
EndSplineSet
Validated: 1
EndChar

StartChar: dollar
Encoding: 36 36 4
GlifName: dollar
Width: 424
Flags: W
HStem: -32 67<213 290.731> 540 76<103.39 144>
VStem: 5 76<404.669 518.392> 30 74<109.58 194.057> 138 75<-123.734 -32 88 194.578 426.295 539 612.003 708.432> 321 75<62.8515 173.282>
LayerCount: 2
Back
Fore
SplineSet
317 95 m 0xdc
 320 102 321 110 321 118 c 0
 321 147 304 176 269 204 c 0
 249 221 214 243 163 270 c 0
 116 295 87 314 74 326 c 0
 56 344 45 355 42 359 c 0
 31 371 23 384 18 399 c 0
 9 419 5 440 5 461 c 0
 5 537 60 603 144 616 c 1
 143 675 l 2
 143 700 156 713 181 713 c 0
 206 713 218 700 218 675 c 2
 219 615 l 1
 273 606 316 563 349 488 c 0
 351 483 352 477 352 472 c 0
 352 451 333 435 313 435 c 0
 298 435 287 443 280 458 c 0
 260 503 240 530 219 539 c 1
 218 459 l 2
 218 434 206 422 181 422 c 0
 156 422 143 434 143 459 c 2
 144 540 l 1
 102 529 81 503 81 463 c 0xec
 81 411 122 376 197 337 c 0
 241 314 270 297 285 286 c 0
 359 232 396 175 396 115 c 0
 396 102 394 88 390 75 c 0
 370 10 299 -32 221 -32 c 0
 218 -32 216 -32 213 -32 c 1
 213 -89 l 2
 213 -114 200 -126 175 -126 c 0
 150 -126 138 -114 138 -89 c 2
 138 -13 l 1
 103 4 76 29 59 64 c 0
 40 105 30 137 30 161 c 0
 30 182 48 198 69 198 c 0
 88 198 99 188 104 169 c 0
 113 135 124 108 138 88 c 1
 138 159 l 2
 138 184 150 197 175 197 c 0
 200 197 213 184 213 159 c 2
 213 36 l 1
 217 36 221 35 226 35 c 0
 276 35 307 59 317 95 c 0xdc
EndSplineSet
Validated: 1
EndChar

StartChar: percent
Encoding: 37 37 5
GlifName: percent
Width: 630
Flags: W
HStem: -7 75<415.242 511.941> 224 75<415.242 511.941> 320 77<104.639 198.311> 518 73<104.639 198.311>
VStem: 17 73<412.245 502.973> 214 77<412.245 502.973> 318 75<90.6963 201.723> 534 75<90.6963 201.723>
LayerCount: 2
Back
Fore
SplineSet
75 29 m 2
 423 562 l 2
 431 574 441 580 454 580 c 0
 474 580 493 563 493 543 c 0
 493 536 491 528 486 521 c 2
 137 -12 l 2
 130 -23 120 -29 107 -29 c 0
 87 -29 68 -12 68 8 c 0
 68 15 70 22 75 29 c 2
154 591 m 0
 191 591 223 578 250 551 c 0
 277 525 291 493 291 455 c 0
 291 418 277 386 250 359 c 0
 223 333 191 320 154 320 c 0
 116 320 84 333 57 359 c 0
 30 386 17 418 17 455 c 0
 17 493 30 525 57 551 c 0
 84 578 116 591 154 591 c 0
152 518 m 0
 117 518 90 490 90 458 c 0
 90 425 117 397 152 397 c 0
 185 397 214 425 214 458 c 0
 214 490 185 518 152 518 c 0
464 299 m 0
 505 299 539 284 567 253 c 0
 595 223 609 187 609 146 c 0
 609 104 595 68 567 38 c 0
 539 8 505 -7 464 -7 c 0
 423 -7 388 8 360 38 c 0
 332 68 318 104 318 146 c 0
 318 187 332 223 360 253 c 0
 388 284 423 299 464 299 c 0
464 224 m 0
 425 224 393 190 393 146 c 0
 393 102 425 68 464 68 c 0
 501 68 534 102 534 146 c 0
 534 190 501 224 464 224 c 0
EndSplineSet
Validated: 1
EndChar

StartChar: ampersand
Encoding: 38 38 6
GlifName: ampersand
Width: 509
Flags: W
HStem: -40 73<111.536 276.086> 558 74<175.907 253.654>
VStem: 13 75<55.9733 172.162> 63 76<388.981 519.062> 277 68<429.285 533.552>
LayerCount: 2
Back
Fore
SplineSet
345 74 m 1xd8
 386 120 l 2
 394 129 403 134 414 134 c 0
 434 134 453 116 453 96 c 0
 453 87 450 79 443 72 c 0
 430 56 411 35 387 10 c 1
 402 -14 428 -53 465 -107 c 0
 470 -114 473 -122 473 -130 c 0
 473 -150 454 -167 434 -167 c 0
 421 -167 411 -162 404 -151 c 0
 370 -102 341 -60 317 -24 c 1
 294 -30 l 2
 265 -37 235 -40 204 -40 c 0
 153 -40 112 -31 79 -13 c 0
 35 12 13 49 13 105 c 0xe8
 13 139 23 171 41 200 c 0
 54 221 83 254 127 297 c 1
 91 360 l 2
 72 391 63 424 63 457 c 0
 63 504 80 545 114 580 c 0
 148 615 185 632 225 632 c 0
 289 632 328 590 342 506 c 0
 344 495 345 484 345 474 c 0
 345 439 333 406 309 374 c 0
 296 357 267 327 222 285 c 1
 250 236 291 165 345 74 c 1xd8
209 33 m 0
 232 33 255 35 277 40 c 1
 258 70 221 134 165 231 c 1
 133 201 113 179 104 164 c 0
 93 148 88 129 88 107 c 0
 88 54 127 33 209 33 c 0
241 550 m 0
 236 555 230 558 222 558 c 0
 204 558 186 548 167 527 c 0
 148 506 139 482 139 455 c 0xd8
 139 435 145 416 156 397 c 2
 182 351 l 1
 217 385 239 409 250 422 c 0
 268 445 277 465 277 484 c 0
 277 505 265 527 241 550 c 0
EndSplineSet
Validated: 1
EndChar

StartChar: quotesingle
Encoding: 39 39 7
GlifName: quotesingle
Width: 244
Flags: W
HStem: 407 237<88.2656 158.578>
VStem: 86 75<409.422 641.578>
LayerCount: 2
Back
Fore
SplineSet
161 606 m 2
 161 445 l 2
 161 420 148 407 123 407 c 0
 98 407 86 420 86 445 c 2
 86 606 l 2
 86 631 98 644 123 644 c 0
 148 644 161 631 161 606 c 2
EndSplineSet
Validated: 1
EndChar

StartChar: parenleft
Encoding: 40 40 8
GlifName: parenleft
Width: 342
Flags: W
VStem: 48 73<144.678 407.037>
LayerCount: 2
Back
Fore
SplineSet
287 671 m 0
 230 590 189 521 164 464 c 0
 135 398 121 335 121 274 c 0
 121 166 170 40 269 -105 c 0
 274 -112 277 -120 277 -128 c 0
 277 -148 261 -163 242 -163 c 0
 230 -163 220 -157 213 -146 c 0
 103 13 48 155 48 278 c 0
 48 346 63 416 94 489 c 0
 122 554 166 629 225 714 c 0
 233 725 243 731 255 731 c 0
 275 731 294 713 294 693 c 0
 294 686 292 678 287 671 c 0
EndSplineSet
Validated: 1
EndChar

StartChar: parenright
Encoding: 41 41 9
GlifName: parenright
Width: 342
Flags: W
VStem: 219 72<137.678 398.237>
LayerCount: 2
Back
Fore
SplineSet
53 664 m 0
 48 671 46 679 46 686 c 0
 46 706 65 724 85 724 c 0
 97 724 107 718 115 707 c 0
 174 622 218 547 245 482 c 0
 276 409 291 338 291 271 c 0
 291 148 236 6 127 -153 c 0
 119 -164 109 -170 98 -170 c 0
 79 -170 62 -155 62 -135 c 0
 62 -127 65 -119 70 -112 c 0
 169 33 219 159 219 267 c 0
 219 328 204 391 175 457 c 0
 150 514 109 583 53 664 c 0
EndSplineSet
Validated: 1
EndChar

StartChar: asterisk
Encoding: 42 42 10
GlifName: asterisk
Width: 406
Flags: W
HStem: 547 20G<314 327.5> 614 20G<179.5 204.5>
VStem: 154 75<284.422 389 525 631.578>
LayerCount: 2
Back
Fore
SplineSet
116 461 m 1
 46 500 l 2
 33 507 27 518 27 532 c 0
 27 552 43 571 64 571 c 0
 71 571 77 569 83 566 c 2
 155 525 l 1
 154 596 l 2
 154 621 167 634 192 634 c 0
 217 634 229 622 229 597 c 0
 229 592 230 568 231 523 c 1
 298 562 l 2
 305 565 311 567 317 567 c 0
 338 567 356 547 356 526 c 0
 356 512 350 501 337 494 c 2
 269 457 l 1
 348 413 l 2
 361 406 368 395 368 381 c 0
 368 361 351 342 331 342 c 0
 324 342 318 344 312 347 c 2
 229 389 l 1
 229 320 l 2
 229 295 217 282 192 282 c 0
 167 282 154 295 154 320 c 2
 154 393 l 1
 72 345 l 2
 65 341 59 339 52 339 c 0
 32 339 15 358 15 378 c 0
 15 392 21 403 34 410 c 2
 116 461 l 1
EndSplineSet
Validated: 1
EndChar

StartChar: plus
Encoding: 43 43 11
GlifName: plus
Width: 388
Flags: W
HStem: 344 75<27.4219 155 230 359.734>
VStem: 155 75<216.422 343 419 543.578>
LayerCount: 2
Back
Fore
SplineSet
230 419 m 1
 325 419 l 2
 350 419 362 406 362 381 c 0
 362 356 350 344 325 344 c 2
 230 344 l 1
 230 252 l 2
 230 227 217 214 192 214 c 0
 167 214 155 227 155 252 c 2
 155 343 l 1
 63 344 l 2
 38 344 25 356 25 381 c 0
 25 406 38 419 63 419 c 2
 155 419 l 1
 155 508 l 2
 155 533 167 546 192 546 c 0
 217 546 230 533 230 508 c 2
 230 419 l 1
EndSplineSet
Validated: 1
EndChar

StartChar: comma
Encoding: 44 44 12
GlifName: comma
Width: 276
Flags: W
HStem: -86 268<116.074 144.438>
LayerCount: 2
Back
Fore
SplineSet
42 84 m 0
 42 139 83 182 135 182 c 0
 186 182 227 139 227 84 c 0
 227 53 213 18 185 -21 c 0
 154 -64 122 -86 89 -86 c 1
 94 -76 100 -61 106 -41 c 0
 112 -22 115 -8 115 1 c 1
 74 1 42 43 42 84 c 0
EndSplineSet
Validated: 1
EndChar

StartChar: hyphen
Encoding: 173 173 13
GlifName: hyphen
Width: 379
Flags: MW
HStem: 159 75<71.5 295 84 295>
LayerCount: 2
Back
Fore
SplineSet
84 234 m 2
 295 234 l 2
 320 234 332 222 332 197 c 0
 332 172 320 159 295 159 c 2
 84 159 l 2
 59 159 47 172 47 197 c 0
 47 222 59 234 84 234 c 2
EndSplineSet
Validated: 1
EndChar

StartChar: period
Encoding: 46 46 14
GlifName: period
Width: 230
Flags: W
HStem: -8 136<67.9117 162.088>
VStem: 50 130<9.85965 110.14>
LayerCount: 2
Back
Fore
SplineSet
50 60 m 0
 50 97 79 128 115 128 c 0
 151 128 180 97 180 60 c 0
 180 23 151 -8 115 -8 c 0
 79 -8 50 23 50 60 c 0
EndSplineSet
Validated: 1
EndChar

StartChar: slash
Encoding: 47 47 15
GlifName: slash
Width: 447
Flags: W
VStem: 46 315
LayerCount: 2
Back
Fore
SplineSet
287 728 m 2
 293 745 305 754 322 754 c 0
 342 754 361 738 361 718 c 0
 361 713 360 709 359 704 c 2
 119 -5 l 2
 114 -22 102 -31 85 -31 c 0
 65 -31 46 -15 46 5 c 0
 46 10 47 14 48 19 c 2
 287 728 l 2
EndSplineSet
Validated: 1
EndChar

StartChar: zero
Encoding: 48 48 16
GlifName: zero
Width: 489
Flags: W
HStem: -38 75<187.922 297.879> 616 75<187.922 297.879>
VStem: 16 75<178.904 473.913> 394 75<178.904 473.913>
LayerCount: 2
Back
Fore
SplineSet
243 691 m 0
 310 691 366 653 409 577 c 0
 449 506 469 422 469 326 c 0
 469 231 449 147 409 76 c 0
 366 0 310 -38 243 -38 c 0
 176 -38 120 0 77 76 c 0
 36 147 16 231 16 326 c 0
 16 422 36 506 77 577 c 0
 120 653 176 691 243 691 c 0
243 616 m 0
 206 616 172 590 142 539 c 0
 108 482 91 411 91 326 c 0
 91 241 108 171 142 114 c 0
 172 63 206 37 243 37 c 0
 280 37 313 63 344 114 c 0
 377 171 394 241 394 326 c 0
 394 411 377 482 344 539 c 0
 313 590 280 616 243 616 c 0
EndSplineSet
Validated: 1
EndChar

StartChar: one
Encoding: 49 49 17
GlifName: one
Width: 509
Flags: W
HStem: 1 75<91.2656 238 314 483.734> 617 20G<279 295.5>
VStem: 239 74<-34.5781 1 76 505>
LayerCount: 2
Back
Fore
SplineSet
239 76 m 1
 239 505 l 1
 138 404 l 2
 129 395 120 391 109 391 c 0
 89 391 70 408 70 427 c 0
 70 436 74 445 81 452 c 2
 238 609 l 2
 255 628 271 637 287 637 c 0
 304 637 313 625 313 600 c 2
 314 76 l 1
 449 76 l 2
 474 76 486 63 486 38 c 0
 486 13 474 1 449 1 c 2
 313 1 l 1
 313 -24 300 -37 275 -37 c 0
 250 -37 238 -24 238 1 c 1
 126 1 l 2
 101 1 89 13 89 38 c 0
 89 63 101 76 126 76 c 2
 239 76 l 1
EndSplineSet
Validated: 1
EndChar

StartChar: two
Encoding: 50 50 18
GlifName: two
Width: 501
Flags: W
HStem: 1 75<233 478.578> 568 76<198.565 322.201>
VStem: 68 75<395.266 510.688> 375 75<330.226 510.287>
LayerCount: 2
Back
Fore
SplineSet
135 1 m 1
 69 -52 l 2
 62 -58 54 -61 45 -61 c 0
 25 -61 7 -42 7 -22 c 0
 7 -11 12 -1 22 7 c 0
 116 80 252 182 316 266 c 0
 355 319 375 370 375 419 c 0
 375 498 336 568 261 568 c 0
 190 568 143 503 143 430 c 0
 143 405 131 393 106 393 c 0
 81 393 68 405 68 430 c 0
 68 542 143 644 262 644 c 0
 388 644 450 539 450 409 c 0
 450 243 352 167 233 76 c 1
 443 76 l 2
 468 76 481 63 481 38 c 0
 481 13 468 1 443 1 c 2
 135 1 l 1
EndSplineSet
Validated: 1
EndChar

StartChar: three
Encoding: 51 51 19
GlifName: three
Width: 447
Flags: W
HStem: -33 75<141.536 297.678> 280 74<136.825 248.577> 551 76<118.819 269.231>
VStem: 13 72<97.4085 150.897> 292 75<399.848 526.972> 347 75<86.9138 210.818>
LayerCount: 2
Back
Fore
SplineSet
120 530 m 0xf8
 115 527 109 526 104 526 c 0
 84 526 68 545 68 565 c 0
 68 581 76 592 91 599 c 0
 135 618 175 627 212 627 c 0
 306 627 367 559 367 464 c 0xf8
 367 409 349 363 314 326 c 1
 347 307 373 282 392 251 c 0
 412 218 422 184 422 148 c 0
 422 82 394 35 352 4 c 0
 319 -21 279 -33 233 -33 c 0
 188 -33 147 -22 108 1 c 0
 66 26 36 59 17 102 c 0
 14 107 13 113 13 119 c 0
 13 139 32 155 52 155 c 0
 67 155 78 148 85 133 c 0
 112 72 158 42 221 42 c 0
 254 42 282 51 306 69 c 0
 333 89 347 115 347 146 c 0xf4
 347 211 282 269 224 278 c 0
 202 278 185 279 174 280 c 0
 147 282 134 295 134 318 c 0
 134 338 146 350 169 354 c 0
 188 357 203 358 216 358 c 0
 261 371 292 421 292 470 c 0
 292 517 264 551 209 551 c 0
 184 551 154 544 120 530 c 0xf8
EndSplineSet
Validated: 1
EndChar

StartChar: four
Encoding: 52 52 20
GlifName: four
Width: 475
Flags: MW
HStem: -37 21G<272.5 297.5> 257 75<411 423.5> 605 20G<281.5 300.5>
VStem: 247 75<1 258 333 480 480 480> 247 202<1 307.5 258 307.5 282.5 480 282.5 480>
LayerCount: 2
Back
Fore
SplineSet
247 480 m 1xf0
 136 332 l 1
 247 333 l 1
 247 480 l 1xf0
322 582 m 2
 322 333 l 1xf0
 411 332 l 2
 436 332 449 320 449 295 c 0xe8
 449 270 436 257 411 257 c 2
 322 258 l 1
 322 1 l 2
 322 -24 310 -37 285 -37 c 0
 260 -37 247 -24 247 1 c 2
 247 258 l 1
 60 257 l 2
 33 257 19 268 19 289 c 0
 19 298 23 308 30 318 c 2
 242 595 l 2
 257 615 273 625 290 625 c 0
 311 625 322 611 322 582 c 2
EndSplineSet
Validated: 1
EndChar

StartChar: five
Encoding: 53 53 21
GlifName: five
Width: 509
Flags: MW
HStem: -31 75<225 295> 292 153<140.5 299> 370 75<250 299 249 310.5> 560 75<187 187 187 420>
VStem: 24 75<156 203.5> 112 75<434 560 434 592 434 606.5> 410 75<167.5 238 167.5 255>
LayerCount: 2
Back
Fore
SplineSet
187 560 m 1xde
 187 434 l 1
 208 441 234 445 264 445 c 0
 334 445 389 421 429 374 c 0
 466 330 485 273 485 203 c 0
 485 132 465 76 425 33 c 0
 385 -10 330 -31 260 -31 c 0
 190 -31 134 -12 91 26 c 0
 46 66 24 121 24 191 c 0
 24 216 36 229 61 229 c 0
 86 229 99 216 99 191 c 0
 99 96 157 44 260 44 c 0
 356 44 410 102 410 203 c 0
 410 307 357 370 264 370 c 0xbe
 236 370 218 367 209 362 c 0
 206 360 199 352 190 339 c 1
 186 308 173 292 151 292 c 0
 130 292 112 311 112 335 c 2
 112 592 l 2
 112 621 126 635 154 635 c 2
 420 635 l 2
 445 635 458 623 458 598 c 0
 458 573 445 560 420 560 c 2
 187 560 l 1xde
EndSplineSet
Validated: 1
EndChar

StartChar: six
Encoding: 54 54 22
GlifName: six
Width: 489
Flags: W
HStem: -26 74<163.828 318.479> 264 76<238.506 351.189> 560 73<308.117 372.269>
VStem: 34 75<102.713 303.275> 377 79<106.906 237.162>
LayerCount: 2
Back
Fore
SplineSet
351 560 m 4
 290 539 235 489 184 410 c 4
 134 332 109 258 109 189 c 4
 109 101 157 48 247 48 c 4
 318 48 377 105 377 176 c 4
 377 232 342 264 286 264 c 4
 260 264 245 253 219 222 c 4
 211 213 201 208 190 208 c 4
 170 208 151 225 151 246 c 4
 151 254 154 262 160 269 c 4
 198 316 243 340 294 340 c 4
 370 340 456 271 456 163 c 4
 456 59 344 -26 240 -26 c 4
 113 -26 34 57 34 184 c 4
 34 271 63 360 121 451 c 4
 181 544 249 604 326 631 c 4
 331 632 335 633 340 633 c 4
 361 633 376 615 376 594 c 4
 376 577 368 566 351 560 c 4
EndSplineSet
Validated: 1
EndChar

StartChar: seven
Encoding: 55 55 23
GlifName: seven
Width: 569
Flags: MW
HStem: -182 21G<59 75.5> 556 75<130.5 503 143 438>
LayerCount: 2
Back
Fore
SplineSet
143 631 m 2
 503 631 l 2
 530 631 543 620 543 599 c 0
 543 591 541 583 536 575 c 2
 100 -163 l 2
 93 -176 82 -182 69 -182 c 0
 49 -182 30 -166 30 -145 c 0
 30 -138 32 -132 36 -125 c 2
 438 556 l 1
 143 556 l 2
 118 556 106 569 106 594 c 0
 106 619 118 631 143 631 c 2
EndSplineSet
Validated: 1
EndChar

StartChar: eight
Encoding: 56 56 24
GlifName: eight
Width: 484
Flags: W
HStem: -40 75<166.318 310.277> 301 75<171.673 281.67> 560 75<171.791 281.944>
VStem: 19 75<113.261 277.857> 65 75<407.21 528.297> 313 75<406.843 528.297> 383 75<113.061 281.06>
LayerCount: 2
Back
Fore
SplineSet
65 468 m 0xe8
 65 557 138 635 227 635 c 0
 316 635 388 557 388 468 c 0xec
 388 435 380 407 365 382 c 1
 412 342 458 272 458 192 c 0
 458 68 362 -40 238 -40 c 0
 115 -40 19 69 19 192 c 0xf2
 19 259 45 318 97 367 c 1
 76 395 65 429 65 468 c 0xe8
94 192 m 0xf2
 94 109 157 35 238 35 c 0
 320 35 383 109 383 192 c 0
 383 253 361 298 318 329 c 1
 291 310 260 301 227 301 c 0
 199 301 173 308 150 321 c 1
 113 288 94 245 94 192 c 0xf2
227 560 m 0
 180 560 140 520 140 468 c 0
 140 416 180 376 227 376 c 0
 274 376 313 416 313 468 c 0xec
 313 520 274 560 227 560 c 0
EndSplineSet
Validated: 1
EndChar

StartChar: nine
Encoding: 57 57 25
GlifName: nine
Width: 489
Flags: W
HStem: -128 73<73.7794 135.247> 259 76<144.904 257.175> 550 75<173.206 325.613>
VStem: 38 79<362.389 494.171> 372 73<282.161 501.749>
LayerCount: 2
Back
Fore
SplineSet
93 -55 m 0
 158 -33 220 29 281 132 c 0
 342 235 372 328 372 411 c 0
 372 501 332 550 247 550 c 0
 208 550 175 536 150 509 c 0
 128 484 117 456 117 423 c 0
 117 366 153 335 210 335 c 0
 235 335 249 345 275 377 c 0
 283 386 293 391 304 391 c 0
 324 391 343 373 343 353 c 0
 343 345 340 337 334 329 c 0
 296 282 251 259 200 259 c 0
 124 259 38 328 38 436 c 0
 38 488 61 533 108 571 c 0
 153 607 201 625 254 625 c 0
 316 625 364 605 397 564 c 0
 429 527 445 477 445 414 c 0
 445 311 411 203 343 90 c 0
 274 -26 198 -98 117 -126 c 0
 114 -127 110 -128 106 -128 c 0
 85 -128 69 -108 69 -87 c 0
 69 -72 77 -61 93 -55 c 0
EndSplineSet
Validated: 1
EndChar

StartChar: colon
Encoding: 58 58 26
GlifName: colon
Width: 276
Flags: W
HStem: -14 196<77.3133 191.88> 286 196<77.3133 191.88>
VStem: 42 185<22.1296 146.701 322.13 446.701>
LayerCount: 2
Back
Fore
SplineSet
42 84 m 0
 42 139 83 182 135 182 c 0
 186 182 227 139 227 84 c 0
 227 31 186 -14 135 -14 c 0
 83 -14 42 31 42 84 c 0
42 384 m 0
 42 439 83 482 135 482 c 0
 186 482 227 439 227 384 c 0
 227 331 186 286 135 286 c 0
 83 286 42 331 42 384 c 0
EndSplineSet
Validated: 1
EndChar

StartChar: semicolon
Encoding: 59 59 27
GlifName: semicolon
Width: 276
Flags: W
HStem: 286 196<77.3133 191.88>
VStem: 42 185<27.125 146.701 322.13 446.701>
LayerCount: 2
Back
Fore
SplineSet
42 84 m 0
 42 139 83 182 135 182 c 0
 186 182 227 139 227 84 c 0
 227 53 213 18 185 -21 c 0
 154 -64 122 -86 89 -86 c 1
 94 -76 100 -61 106 -41 c 0
 112 -22 115 -8 115 1 c 1
 74 1 42 43 42 84 c 0
42 384 m 0
 42 439 83 482 135 482 c 0
 186 482 227 439 227 384 c 0
 227 331 186 286 135 286 c 0
 83 286 42 331 42 384 c 0
EndSplineSet
Validated: 1
EndChar

StartChar: less
Encoding: 60 60 28
GlifName: less
Width: 386
Flags: W
VStem: 25 309
LayerCount: 2
Back
Fore
SplineSet
323 531 m 2
 113 321 l 1
 323 111 l 2
 330 103 334 94 334 85 c 0
 334 64 316 46 296 46 c 0
 286 46 277 50 270 58 c 2
 86 232 l 2
 45 271 25 301 25 321 c 0
 25 341 45 371 86 410 c 2
 270 584 l 2
 277 591 286 595 296 595 c 0
 316 595 334 577 334 557 c 0
 334 547 330 538 323 531 c 2
EndSplineSet
Validated: 1
EndChar

StartChar: equal
Encoding: 61 61 29
GlifName: equal
Width: 657
Flags: MW
HStem: 257 75<131.5 513 144 513> 459 75<131.5 513 144 513>
LayerCount: 2
Back
Fore
SplineSet
144 534 m 2
 513 534 l 2
 538 534 550 522 550 497 c 0
 550 472 538 459 513 459 c 2
 144 459 l 2
 119 459 106 472 106 497 c 0
 106 522 119 534 144 534 c 2
144 332 m 2
 513 332 l 2
 538 332 550 320 550 295 c 0
 550 270 538 257 513 257 c 2
 144 257 l 2
 119 257 106 270 106 295 c 0
 106 320 119 332 144 332 c 2
EndSplineSet
Validated: 1
EndChar

StartChar: greater
Encoding: 62 62 30
GlifName: greater
Width: 391
Flags: MW
HStem: 46 21G<68.5 83.5> 575 20G<68.5 83.5>
LayerCount: 2
Back
Fore
SplineSet
52 531 m 2
 44 538 40 547 40 557 c 0
 40 577 58 595 79 595 c 0
 88 595 97 591 105 584 c 2
 289 410 l 2
 330 371 350 341 350 321 c 0
 350 301 330 271 289 232 c 2
 105 58 l 2
 97 50 88 46 79 46 c 0
 58 46 40 64 40 85 c 0
 40 94 44 103 52 111 c 2
 262 321 l 1
 52 531 l 2
EndSplineSet
Validated: 1
EndChar

StartChar: question
Encoding: 63 63 31
GlifName: question
Width: 449
Flags: W
HStem: -45 121<168.246 268.661> 587 74<141.843 286.098>
VStem: 22 75<432.266 541.067> 152 133<-29.3651 59.9119> 178 75<106.422 271.233> 348 76<389.99 528.756>
LayerCount: 2
Back
Fore
SplineSet
84 616 m 0xec
 117 646 159 661 208 661 c 0
 267 661 318 642 361 604 c 0
 403 566 424 520 424 466 c 0
 424 408 404 363 369 327 c 0
 337 294 298 274 253 267 c 1
 253 142 l 2
 253 117 240 104 215 104 c 0
 190 104 178 117 178 142 c 2
 178 303 l 2
 178 322 192 335 220 342 c 0
 265 353 291 361 299 366 c 0
 330 384 348 416 348 463 c 0
 348 496 335 526 307 550 c 0
 279 575 246 587 209 587 c 0
 179 587 154 578 134 559 c 0
 111 538 99 507 97 466 c 0
 96 442 83 430 60 430 c 0
 34 430 22 442 22 467 c 0
 22 531 47 583 84 616 c 0xec
152 15 m 0xf4
 152 48 182 76 218 76 c 0
 255 76 285 48 285 15 c 0
 285 -18 255 -45 218 -45 c 0
 182 -45 152 -18 152 15 c 0xf4
EndSplineSet
Validated: 1
EndChar

StartChar: at
Encoding: 64 64 32
GlifName: at
Width: 697
Flags: W
HStem: 90 57<238.62 447.037> 234 60<242.671 401.929> 507 62<239.884 350.649> 672 56<238.62 447.248>
VStem: 14 56<310.151 512.063> 141 61<334.534 466.44> 374 59<420.745 484.543> 451 60<340.68 547.568> 615 56<310.362 511.852>
LayerCount: 2
Back
Fore
SplineSet
451 406 m 2
 451 521 l 2
 451 541 460 548 481 548 c 0
 502 548 511 541 511 521 c 2
 511 406 l 2
 511 295 427 234 313 234 c 0
 217 234 141 306 141 403 c 0
 141 473 197 569 301 569 c 0
 381 569 433 501 433 449 c 0
 433 430 423 420 402 420 c 0
 387 420 378 427 374 442 c 0
 363 485 337 507 296 507 c 0
 249 507 202 464 202 396 c 0
 202 336 250 294 312 294 c 0
 401 294 451 338 451 406 c 2
343 728 m 0
 521 728 671 587 671 409 c 0
 671 232 521 90 343 90 c 0
 165 90 14 232 14 409 c 0
 14 587 165 728 343 728 c 0
343 672 m 0
 196 672 70 556 70 409 c 0
 70 263 196 147 343 147 c 0
 489 147 615 264 615 409 c 0
 615 555 490 672 343 672 c 0
EndSplineSet
Validated: 1
EndChar

StartChar: A
Encoding: 65 65 33
GlifName: A_
Width: 452
Flags: W
HStem: 241 75<41.2656 82 157 348> 503 75<18.2656 82 157 330.585>
VStem: 82 75<-36.7344 241 316 503 578 624.479> 348 75<-198.578 241 316 485.389>
LayerCount: 2
Back
Fore
SplineSet
82 -2 m 2
 82 241 l 1
 76 241 l 6
 51 241 39 254 39 279 c 0
 39 304 51 316 76 316 c 2
 82 316 l 1
 82 503 l 1
 53 503 l 2
 28 503 16 515 16 540 c 0
 16 565 28 578 53 578 c 2
 82 578 l 1
 82 589 l 2
 83 614 95 627 120 627 c 0
 144 627 157 615 157 592 c 2
 157 578 l 1
 277 578 l 2
 341 578 383 556 404 513 c 0
 417 487 423 440 423 371 c 2
 422 -163 l 2
 422 -188 410 -201 385 -201 c 0
 360 -201 347 -188 347 -163 c 2
 348 241 l 1
 157 241 l 1
 157 -2 l 2
 157 -27 145 -39 120 -39 c 0
 95 -39 82 -27 82 -2 c 2
157 503 m 1
 157 316 l 1
 348 316 l 1
 348 387 l 2
 348 468 346 495 273 503 c 1
 157 503 l 1
EndSplineSet
Validated: 1
EndChar

StartChar: B
Encoding: 66 66 34
GlifName: B_
Width: 535
Flags: W
HStem: -195 75<24.4219 300.554> 214 99<44.9629 110.624> 229 75<187 321.713> 521 73<3.12946 111 187 339.082> 612 20G<137 162.5>
VStem: 112 75<-34.5781 225 304 521 594 629.859> 400 75<352.957 475.747> 446 75<-24.4844 135.207>
LayerCount: 2
Back
Fore
SplineSet
187 521 m 1xbe
 187 304 l 1
 314 304 400 318 400 426 c 0
 400 488 329 520 187 521 c 1xbe
112 1 m 2
 112 225 l 1
 103 218 94 214 83 214 c 0
 58 214 37 236 37 263 c 0
 37 291 58 313 83 313 c 0
 94 313 103 310 111 303 c 1
 111 521 l 1
 37 521 l 2
 13 521 1 533 1 557 c 0
 1 583 14 594 39 594 c 2
 112 594 l 1
 112 621 124 632 150 632 c 0
 175 632 187 619 187 594 c 1
 204 594 l 2
 367 594 475 571 475 428 c 0xde
 475 360 445 309 383 272 c 1
 475 235 521 163 521 58 c 0
 521 -163 318 -195 60 -195 c 0
 35 -195 22 -183 22 -158 c 0
 22 -133 35 -120 60 -120 c 0
 263 -120 446 -106 446 58 c 0xdd
 446 179 319 229 187 229 c 1
 187 1 l 2
 187 -24 174 -37 149 -37 c 0
 124 -37 112 -24 112 1 c 2
EndSplineSet
Validated: 1
EndChar

StartChar: C
Encoding: 67 67 35
GlifName: C_
Width: 485
Flags: W
HStem: -61 75<167.632 343.502> 562 75<181.609 318.285>
VStem: 7 75<126.231 427.834>
LayerCount: 2
Back
Fore
SplineSet
455 47 m 0
 412 -25 340 -61 240 -61 c 0
 74 -61 7 98 7 279 c 0
 7 460 86 637 252 637 c 0
 318 637 377 603 430 536 c 0
 436 529 439 521 439 512 c 0
 439 492 420 474 400 474 c 0
 389 474 379 479 371 489 c 0
 334 538 294 562 252 562 c 0
 131 562 82 416 82 279 c 0
 82 108 140 14 240 14 c 0
 321 14 360 34 390 85 c 0
 397 98 408 104 421 104 c 0
 441 104 460 87 460 67 c 0
 460 60 458 54 455 47 c 0
EndSplineSet
Validated: 1
EndChar

StartChar: D
Encoding: 68 68 36
GlifName: D_
Width: 523
Flags: W
HStem: -192 75<24.4219 207.524> 525 75<4.42188 112>
VStem: 112 75<-36.125 525> 432 75<111.053 391.968>
LayerCount: 2
Back
Fore
SplineSet
432 269 m 0
 432 430 350 515 187 525 c 1
 187 1 l 2
 187 -23 175 -39 151 -39 c 0
 125 -39 112 -23 112 1 c 2
 112 526 l 1
 40 525 l 2
 15 525 2 538 2 563 c 0
 2 588 15 600 40 600 c 2
 113 601 l 1
 118 618 130 627 149 627 c 0
 168 627 180 618 185 601 c 1
 299 594 383 557 438 491 c 0
 484 435 507 363 507 275 c 0
 507 -46 378 -192 60 -192 c 0
 35 -192 22 -180 22 -155 c 0
 22 -130 35 -117 60 -117 c 0
 308 -117 432 12 432 269 c 0
EndSplineSet
Validated: 1
EndChar

StartChar: E
Encoding: 69 69 37
GlifName: E_
Width: 502
Flags: W
HStem: 0 75<29.4219 111 186 477.578> 265 76<186 425.734> 514 75<31.2656 111 186 431.578>
VStem: 111 75<-39.46 0 75 265 341 514>
LayerCount: 2
Back
Fore
SplineSet
186 0 m 1
 186 -4 l 2
 186 -29 173 -42 147 -42 c 0
 122 -42 111 -30 111 -6 c 2
 111 0 l 1
 65 0 l 2
 40 0 27 13 27 38 c 0
 27 63 40 75 65 75 c 2
 111 75 l 1
 111 514 l 1
 66 514 l 2
 41 514 29 526 29 551 c 0
 29 576 41 589 66 589 c 2
 111 589 l 1
 113 610 125 620 148 620 c 0
 171 620 183 610 186 589 c 1
 396 588 l 2
 421 588 434 576 434 551 c 0
 434 526 421 513 396 513 c 2
 186 514 l 1
 186 341 l 1
 391 340 l 2
 416 340 428 328 428 303 c 0
 428 278 416 265 391 265 c 2
 186 265 l 1
 186 75 l 1
 442 75 l 2
 467 75 480 63 480 38 c 0
 480 13 467 0 442 0 c 2
 186 0 l 1
EndSplineSet
Validated: 1
EndChar

StartChar: F
Encoding: 70 70 38
GlifName: F_
Width: 443
Flags: W
HStem: 273 75<172 411.734> 521 75<16.4219 97 172 417.734>
VStem: 97 75<-31.46 273 348 521>
LayerCount: 2
Back
Fore
SplineSet
383 521 m 2
 172 521 l 1
 172 348 l 1
 377 348 l 2
 402 348 414 335 414 310 c 0
 414 285 402 273 377 273 c 2
 172 273 l 1
 172 5 l 2
 172 -21 159 -34 133 -34 c 0
 109 -34 97 -22 97 2 c 2
 97 521 l 1
 52 521 l 2
 27 521 14 534 14 559 c 0
 14 584 26 596 51 596 c 2
 99 596 l 1
 101 618 113 629 135 629 c 0
 158 629 170 618 172 596 c 1
 383 596 l 2
 408 596 420 583 420 558 c 0
 420 533 408 521 383 521 c 2
EndSplineSet
Validated: 1
EndChar

StartChar: G
Encoding: 71 71 39
GlifName: G_
Width: 549
Flags: W
HStem: -32 75<166.632 334.887> 195 75<225.422 401 476 530.578> 590 75<178.343 317.285>
VStem: 6 75<155.01 456.58> 401 75<-37.46 16 98.9895 195>
LayerCount: 2
Back
Fore
SplineSet
476 195 m 1
 476 -4 l 2
 476 -28 464 -40 440 -40 c 0
 414 -40 401 -27 401 -2 c 2
 401 16 l 1
 360 -16 306 -32 239 -32 c 0
 73 -32 6 127 6 308 c 0
 6 489 84 665 251 665 c 0
 317 665 376 631 429 564 c 0
 435 557 438 549 438 541 c 0
 438 521 419 503 399 503 c 0
 388 503 378 508 370 518 c 0
 333 566 293 590 251 590 c 0
 130 590 81 445 81 308 c 0
 81 136 139 43 239 43 c 0
 313 43 367 71 401 128 c 1
 401 195 l 1
 261 195 l 2
 236 195 223 208 223 233 c 0
 223 258 235 270 260 270 c 2
 495 270 l 2
 520 270 533 257 533 232 c 0
 533 207 521 195 496 195 c 2
 476 195 l 1
EndSplineSet
Validated: 1
EndChar

StartChar: H
Encoding: 72 72 40
GlifName: H_
Width: 508
Flags: W
HStem: 290 75<13.4219 49 123 307 382 492.578> 613 20G<74 99>
VStem: 48 75<-30.4412 289 365 630.441> 307 75<-195.46 290 365 623.46>
LayerCount: 2
Back
Fore
SplineSet
307 365 m 1
 307 590 l 2
 307 614 319 626 343 626 c 0
 369 626 382 613 382 587 c 2
 382 365 l 1
 457 365 l 2
 482 365 495 352 495 327 c 0
 495 302 482 290 457 290 c 2
 382 290 l 1
 382 -159 l 2
 382 -185 369 -198 343 -198 c 0
 319 -198 307 -186 307 -162 c 2
 307 290 l 1
 123 290 l 1
 123 6 l 2
 123 -20 110 -33 84 -33 c 0
 60 -33 48 -21 48 4 c 2
 49 289 l 1
 24 289 11 302 11 327 c 0
 11 352 24 365 49 365 c 1
 48 595 l 2
 48 620 61 633 87 633 c 0
 111 633 123 621 123 596 c 2
 123 365 l 1
 307 365 l 1
EndSplineSet
Validated: 1
EndChar

StartChar: I
Encoding: 73 73 41
GlifName: I_
Width: 379
Flags: W
HStem: 1 75<18.4219 142 217 359.734> 554 75<15.4219 142 217 356.734>
VStem: 142 75<76 554>
LayerCount: 2
Back
Fore
SplineSet
217 554 m 1
 217 76 l 1
 325 76 l 2
 350 76 362 63 362 38 c 0
 362 13 350 1 325 1 c 2
 54 1 l 2
 29 1 16 13 16 38 c 0
 16 63 29 76 54 76 c 2
 142 76 l 1
 142 554 l 1
 51 554 l 2
 26 554 13 567 13 592 c 0
 13 617 26 629 51 629 c 2
 322 629 l 2
 347 629 359 617 359 592 c 0
 359 567 347 554 322 554 c 2
 217 554 l 1
EndSplineSet
Validated: 1
EndChar

StartChar: J
Encoding: 74 74 42
GlifName: J_
Width: 475
Flags: W
HStem: -51 75<132.406 259.913> 528 75<91.2656 311 386 458.578> 621 20G<335.5 360.5>
VStem: 5 75<77.9824 215.047> 311 75<76.0099 529 604 638.734>
LayerCount: 2
Back
Fore
SplineSet
311 123 m 5
 311 529 l 5
 126 528 l 6
 101 528 89 541 89 566 c 4
 89 591 101 603 126 603 c 6
 311 604 l 5
 311 630 323 641 348 641 c 4
 373 641 386 629 386 604 c 5
 423 603 l 6
 448 603 461 591 461 566 c 4
 461 541 448 528 423 528 c 6
 386 529 l 5
 386 116 l 5
 369 29 297 -51 197 -51 c 4
 88 -51 5 42 5 151 c 4
 5 196 12 228 25 249 c 4
 34 263 46 270 60 270 c 4
 83 270 103 248 103 224 c 4
 103 217 101 210 97 203 c 4
 86 182 80 165 80 151 c 4
 80 82 130 24 197 24 c 4
 250 24 299 66 311 123 c 5
EndSplineSet
Validated: 1
EndChar

StartChar: K
Encoding: 75 75 43
GlifName: K_
Width: 440
Flags: W
HStem: -207 21G<254.5 279.5> 612 20G<55.5 80.5>
VStem: 31 75<-29.46 224 327 629.734> 230 75<-204.578 348>
LayerCount: 2
Back
Fore
SplineSet
414 534 m 2
 305 424 l 1
 305 -169 l 2
 305 -194 292 -207 267 -207 c 0
 242 -207 230 -194 230 -169 c 2
 230 348 l 1
 106 224 l 1
 106 6 l 2
 106 -19 93 -32 67 -32 c 0
 43 -32 31 -20 31 4 c 2
 31 595 l 2
 31 620 43 632 68 632 c 0
 93 632 106 620 106 595 c 2
 106 327 l 1
 360 582 l 2
 369 590 378 594 389 594 c 0
 408 594 426 578 426 559 c 0
 426 550 422 542 414 534 c 2
EndSplineSet
Validated: 1
EndChar

StartChar: L
Encoding: 76 76 44
GlifName: L_
Width: 385
Flags: W
HStem: -1 75<12.2656 66 141 359.578> 557 75<3.42188 66 141 209.578>
VStem: 1 211<559.422 629.578> 66 75<74 558>
LayerCount: 2
Back
Fore
SplineSet
141 558 m 1xd0
 141 74 l 1
 324 74 l 2
 349 74 362 62 362 37 c 0
 362 12 349 -1 324 -1 c 2
 47 -1 l 2
 22 -1 10 12 10 37 c 0
 10 62 22 74 47 74 c 2
 66 74 l 1
 66 558 l 1xd0
 39 557 l 2
 14 557 1 569 1 594 c 0
 1 619 14 632 39 632 c 2
 174 632 l 2
 199 632 212 620 212 595 c 0xe0
 212 570 199 557 174 557 c 2
 141 558 l 1xd0
EndSplineSet
Validated: 1
EndChar

StartChar: M
Encoding: 77 77 45
GlifName: M_
Width: 455
Flags: W
HStem: 613 19G<47.5 63 375.5 399.5>
VStem: 5 84<576 626.109> 14 75<-32.5781 397> 348 75<-189.46 450>
LayerCount: 2
Back
Fore
SplineSet
198 334 m 1xd0
 349 600 l 1
 352 622 364 633 387 633 c 0
 412 633 424 621 424 597 c 2
 423 -153 l 2
 423 -179 410 -192 384 -192 c 0
 360 -192 348 -180 348 -156 c 2
 349 450 l 1
 236 249 l 1
 276 159 l 2
 279 154 280 148 280 143 c 0
 280 122 261 106 240 106 c 0
 225 106 214 114 207 129 c 2
 89 397 l 1
 89 3 l 2
 89 -22 76 -35 51 -35 c 0
 26 -35 14 -22 14 3 c 2
 14 564 l 1xb0
 9 576 l 2
 6 581 5 587 5 593 c 0
 5 612 15 624 35 629 c 0
 40 631 45 632 50 632 c 0
 76 632 89 619 89 594 c 2
 89 576 l 1
 198 334 l 1xd0
EndSplineSet
Validated: 1
EndChar

StartChar: N
Encoding: 78 78 46
GlifName: N_
Width: 395
Flags: W
VStem: 31 75<-197.46 372 527 623.578> 287 75<-30.46 45 200 628.734>
LayerCount: 2
Back
Fore
SplineSet
288 45 m 1
 106 372 l 1
 106 -161 l 2
 106 -187 93 -200 67 -200 c 0
 43 -200 31 -188 31 -164 c 2
 31 588 l 2
 31 613 43 626 68 626 c 0
 93 626 106 613 106 588 c 2
 106 527 l 1
 288 200 l 1
 287 594 l 2
 287 619 300 631 325 631 c 0
 350 631 362 619 362 594 c 2
 362 6 l 2
 362 -20 349 -33 323 -33 c 0
 299 -33 287 -21 287 3 c 2
 288 45 l 1
EndSplineSet
Validated: 1
EndChar

StartChar: O
Encoding: 79 79 47
GlifName: O_
Width: 403
Flags: W
HStem: -20 75<149.158 258.998> 560 75<153.363 254.162>
VStem: 16 75<128.589 463.187> 312 75<129.903 478.788>
LayerCount: 2
Back
Fore
SplineSet
203 635 m 4
 347 635 387 467 387 300 c 4
 387 87 327 -20 206 -20 c 4
 61 -20 16 122 16 285 c 4
 16 450 60 635 203 635 c 4
203 560 m 4
 112 560 91 399 91 285 c 4
 91 132 129 55 206 55 c 4
 277 55 312 137 312 300 c 4
 312 416 295 560 203 560 c 4
EndSplineSet
Validated: 1
EndChar

StartChar: P
Encoding: 80 80 48
GlifName: P_
Width: 509
Flags: W
HStem: 199 97<75.6465 140.577> 212 75<216 319.319> 593 75<11.2656 141 216 322.605>
VStem: 141 75<-28.1301 211 287 593> 415 75<370.526 512.644>
LayerCount: 2
Back
Fore
SplineSet
46 667 m 6xb8
 200 668 l 5
 353 668 490 595 490 440 c 4
 490 299 362 214 216 212 c 5x78
 215 8 l 6
 215 -18 202 -31 177 -31 c 4
 153 -31 141 -19 141 6 c 6
 141 211 l 5
 132 203 122 199 113 199 c 4
 88 199 68 222 68 247 c 4
 68 274 88 296 113 296 c 4
 122 296 132 292 141 283 c 5
 141 593 l 5
 46 592 l 6
 21 592 9 605 9 630 c 4
 9 655 21 667 46 667 c 6xb8
415 440 m 4
 415 522 340 582 263 591 c 5
 216 593 l 5
 216 287 l 5
 317 287 415 344 415 440 c 4
EndSplineSet
Validated: 1
EndChar

StartChar: Q
Encoding: 81 81 49
GlifName: Q_
Width: 509
Flags: W
HStem: -19 75<141.313 251.095> 574 75<148.531 242.981>
VStem: 8 75<129.811 466.653> 305 75<174.994 478.989>
LayerCount: 2
Back
Fore
SplineSet
198 -19 m 4
 54 -19 8 124 8 286 c 4
 8 452 51 649 193 649 c 4
 337 649 380 467 380 301 c 4
 380 211 368 138 343 82 c 5
 466 -141 l 6
 469 -148 471 -154 471 -160 c 4
 471 -181 452 -197 432 -197 c 4
 418 -197 407 -190 400 -177 c 6
 295 15 l 5
 269 -8 237 -19 198 -19 c 4
305 301 m 4
 305 417 285 574 193 574 c 4
 105 574 83 399 83 286 c 4
 83 133 121 56 198 56 c 4
 221 56 241 65 257 84 c 5
 150 280 l 6
 147 287 145 293 145 299 c 4
 145 320 164 336 184 336 c 4
 198 336 209 329 216 316 c 6
 294 173 l 5
 301 208 305 251 305 301 c 4
EndSplineSet
Validated: 1
EndChar

StartChar: R
Encoding: 82 82 50
GlifName: R_
Width: 509
Flags: HMW
HStem: -191 21G<361.5 386.5> 203 85 592 75<33.5 46> 648 20G<205 205>
VStem: 9 207 58 158<213 264.5> 141 75<213 224 288 593> 337 75<-153 232 232 232> 415 75<419.5 458.5>
LayerCount: 2
Back
Fore
SplineSet
216 593 m 5xd980
 216 288 l 5
 238 288 l 6
 330 288 415 352 415 440 c 4
 415 522 341 582 266 593 c 5
 216 593 l 5xd980
490 440 m 4
 490 375 464 321 412 276 c 5
 412 -153 l 6
 412 -178 399 -191 374 -191 c 4
 349 -191 337 -178 337 -153 c 6
 337 232 l 5
 306 219 273 213 238 213 c 6
 216 213 l 5
 215 8 l 6
 215 -18 202 -31 176 -31 c 4
 152 -31 140 -19 140 5 c 6
 141 224 l 5xe380
 132 210 119 203 104 203 c 4
 79 203 58 224 58 251 c 4xe580
 58 278 79 299 104 299 c 4
 119 299 132 292 141 279 c 5
 141 593 l 5xe380
 46 592 l 6
 21 592 9 605 9 630 c 4
 9 655 21 667 46 667 c 6xe980
 205 668 l 5
 263 666 l 5
 380 655 490 565 490 440 c 4
EndSplineSet
Validated: 1
EndChar

StartChar: S
Encoding: 83 83 51
GlifName: S_
Width: 424
Flags: W
HStem: -32 67<164.834 292.786> 544 75<113.236 238.003>
VStem: 6 76<408.922 514.7> 30 74<107.987 194.057> 280 72<439.196 496.03> 321 75<62.0362 173.282>
LayerCount: 2
Back
Fore
SplineSet
280 458 m 4xe8
 255 515 225 544 189 544 c 4
 124 544 82 513 82 461 c 4xe8
 82 382 226 329 285 286 c 4
 359 232 396 175 396 115 c 4
 396 21 308 -32 221 -32 c 4
 144 -32 90 0 59 64 c 4
 40 105 30 137 30 161 c 4
 30 182 48 198 69 198 c 4
 88 198 99 188 104 169 c 4
 126 80 167 35 226 35 c 4
 282 35 321 66 321 118 c 4xd4
 321 147 304 176 269 204 c 4
 184 276 6 308 6 460 c 4
 6 557 84 619 183 619 c 4
 256 619 311 575 349 488 c 4
 351 483 352 477 352 472 c 4
 352 451 333 435 313 435 c 4
 298 435 287 443 280 458 c 4xe8
EndSplineSet
Validated: 1
EndChar

StartChar: T
Encoding: 84 84 52
GlifName: T_
Width: 478
Flags: W
HStem: 537 75<12.4219 202 277 464.734> 614 20G<230.5 247.5>
VStem: 202 75<-28.46 537>
LayerCount: 2
Back
Fore
SplineSet
48 611 m 2
 205 612 l 1
 210 627 222 634 239 634 c 0
 256 634 268 627 274 612 c 1
 430 612 l 2
 455 612 467 599 467 574 c 0
 467 549 455 537 430 537 c 2
 277 537 l 1
 277 8 l 2
 277 -18 264 -31 238 -31 c 0
 214 -31 202 -19 202 5 c 2
 202 537 l 1
 48 536 l 2
 23 536 10 549 10 574 c 0
 10 599 23 611 48 611 c 2
EndSplineSet
Validated: 1
EndChar

StartChar: U
Encoding: 85 85 53
GlifName: U_
Width: 447
Flags: W
HStem: -40 75<166.082 286.641> 622 20G<350.5 375.5>
VStem: 56 75<72.5979 571.734> 326 75<73.4088 639.578>
LayerCount: 2
Back
Fore
SplineSet
226 -40 m 4
 135 -40 65 35 56 118 c 5
 56 536 l 6
 56 561 68 574 93 574 c 4
 118 574 131 562 131 537 c 6
 131 117 l 5
 142 69 178 35 226 35 c 4
 278 35 321 75 326 126 c 5
 326 604 l 6
 326 629 338 642 363 642 c 4
 388 642 401 629 401 604 c 6
 401 126 l 5
 395 36 321 -40 226 -40 c 4
EndSplineSet
Validated: 1
EndChar

StartChar: V
Encoding: 86 86 54
GlifName: V_
Width: 319
Flags: W
HStem: -25 21G<144.5 165.5> 615 20G<44.5 65.5 249.5 270.5>
LayerCount: 2
Back
Fore
SplineSet
115 38 m 1
 17 591 l 2
 17 593 16 596 16 598 c 0
 16 620 34 635 55 635 c 0
 76 635 88 625 91 604 c 2
 157 227 l 1
 224 600 l 2
 227 621 239 632 260 632 c 0
 281 632 299 617 299 594 c 0
 299 592 298 589 298 587 c 2
 198 25 l 2
 192 -8 177 -25 154 -25 c 0
 135 -25 123 -14 120 9 c 2
 115 38 l 1
EndSplineSet
Validated: 1
EndChar

StartChar: W
Encoding: 87 87 55
GlifName: W_
Width: 509
Flags: W
HStem: -21 21G<349 370.5> 615 20G<44.5 65 250.5 271.5 453 473.5>
VStem: 224 74<576 634.13>
LayerCount: 2
Back
Fore
SplineSet
260 372 m 1
 196 9 l 2
 191 -16 179 -28 158 -28 c 0
 137 -28 124 -16 120 9 c 2
 17 591 l 2
 17 593 16 596 16 598 c 0
 16 620 34 635 55 635 c 0
 75 635 87 625 91 604 c 2
 159 229 l 1
 224 600 l 2
 228 625 240 637 261 637 c 0
 282 637 294 625 298 600 c 2
 301 576 l 1
 361 234 l 1
 427 605 l 2
 431 626 443 636 463 636 c 0
 484 636 502 622 502 600 c 0
 502 597 502 595 501 592 c 2
 400 19 l 2
 395 -8 382 -21 359 -21 c 0
 339 -21 327 -10 323 13 c 2
 260 372 l 1
EndSplineSet
Validated: 1
EndChar

StartChar: X
Encoding: 88 88 56
GlifName: X_
Width: 474
Flags: W
HStem: 617 20G<30 47.5 383 400>
LayerCount: 2
Back
Fore
SplineSet
369 -148 m 2
 205 183 l 1
 93 -21 l 2
 86 -34 75 -41 61 -41 c 0
 41 -41 22 -24 22 -4 c 0
 22 3 24 9 27 15 c 2
 164 265 l 1
 5 583 l 2
 2 589 1 595 1 601 c 0
 1 621 20 637 40 637 c 0
 55 637 65 630 72 616 c 2
 207 343 l 1
 358 618 l 2
 365 631 376 637 390 637 c 0
 410 637 429 621 429 600 c 0
 429 594 427 588 424 581 c 2
 249 263 l 1
 436 -114 l 2
 439 -120 440 -126 440 -132 c 0
 440 -152 421 -169 401 -169 c 0
 386 -169 376 -162 369 -148 c 2
EndSplineSet
Validated: 1
EndChar

StartChar: Y
Encoding: 89 89 57
GlifName: Y_
Width: 485
Flags: W
HStem: 635 20G<41.5 57.5 421.5 438>
VStem: 215 75<-31.4375 347.872>
LayerCount: 2
Back
Fore
SplineSet
215 4 m 2
 215 324 l 1
 201 337 177 369 143 419 c 0
 92 494 51 553 20 595 c 0
 15 602 12 610 12 617 c 0
 12 638 31 655 52 655 c 0
 63 655 73 650 81 639 c 2
 250 410 l 1
 398 638 l 2
 405 649 415 655 428 655 c 0
 448 655 467 638 467 618 c 0
 467 611 465 604 460 597 c 0
 434 556 398 497 353 422 c 0
 323 371 302 339 290 326 c 1
 290 4 l 2
 290 -20 277 -34 251 -34 c 0
 227 -34 215 -20 215 4 c 2
EndSplineSet
Validated: 1
EndChar

StartChar: Z
Encoding: 90 90 58
GlifName: Z_
Width: 561
Flags: W
HStem: -5 75<164 532.734> 534 75<10.2656 400>
LayerCount: 2
Back
Fore
SplineSet
45 609 m 2
 472 609 l 2
 499 609 513 598 513 577 c 0
 513 568 510 559 503 550 c 2
 164 70 l 1
 498 70 l 2
 523 70 535 57 535 32 c 0
 535 7 523 -5 498 -5 c 2
 91 -5 l 2
 64 -5 51 6 51 27 c 0
 51 36 54 45 61 54 c 2
 400 534 l 1
 45 534 l 2
 20 534 8 547 8 572 c 0
 8 597 20 609 45 609 c 2
EndSplineSet
Validated: 1
EndChar

StartChar: bracketleft
Encoding: 91 91 59
GlifName: bracketleft
Width: 447
Flags: W
HStem: -100 75<191 316.734> 670 75<191 316.734>
VStem: 116 203<-96.4539 -27.1295 671.99 741.222> 116 75<-25 670>
LayerCount: 2
Back
Fore
SplineSet
282 -100 m 2xe0
 153 -100 l 2
 133 -100 116 -83 116 -63 c 2
 116 707 l 2
 116 727 133 745 153 745 c 2
 282 745 l 2
 307 745 319 732 319 707 c 0xe0
 319 682 307 670 282 670 c 2
 191 670 l 1
 191 -25 l 1xd0
 282 -25 l 2
 307 -25 319 -38 319 -63 c 0
 319 -88 307 -100 282 -100 c 2xe0
EndSplineSet
Validated: 1
EndChar

StartChar: backslash
Encoding: 92 92 60
GlifName: backslash
Width: 447
Flags: W
VStem: 46 315
LayerCount: 2
Back
Fore
SplineSet
119 728 m 2
 359 19 l 2
 360 14 361 10 361 5 c 0
 361 -15 342 -31 322 -31 c 0
 305 -31 293 -22 287 -5 c 2
 48 704 l 2
 47 709 46 713 46 718 c 0
 46 738 65 754 85 754 c 0
 102 754 114 745 119 728 c 2
EndSplineSet
Validated: 1
EndChar

StartChar: bracketright
Encoding: 93 93 61
GlifName: bracketright
Width: 429
Flags: W
HStem: -100 75<80.4219 207> 670 75<80.4219 206>
VStem: 78 204<-96.0887 -27.4219 672.266 740.659> 207 75<-25 670>
LayerCount: 2
Back
Fore
SplineSet
116 -100 m 2xe0
 91 -100 78 -88 78 -63 c 0xe0
 78 -38 91 -25 116 -25 c 2
 207 -25 l 1xd0
 206 670 l 1
 116 670 l 2
 91 670 78 682 78 707 c 0
 78 732 91 745 116 745 c 2
 244 745 l 2
 264 745 281 727 281 707 c 2
 282 -63 l 2
 282 -83 264 -100 244 -100 c 2
 116 -100 l 2xe0
EndSplineSet
Validated: 1
EndChar

StartChar: asciicircum
Encoding: 94 94 62
GlifName: asciicircum
Width: 667
Flags: W
LayerCount: 2
Back
Fore
SplineSet
78 271 m 2
 294 695 l 2
 303 712 314 720 328 720 c 0
 341 720 352 712 361 695 c 2
 577 274 l 2
 580 268 582 262 582 256 c 0
 582 236 563 219 543 219 c 0
 528 219 518 226 511 240 c 2
 328 596 l 1
 145 237 l 2
 138 224 127 217 113 217 c 0
 93 217 74 233 74 253 c 0
 74 259 75 265 78 271 c 2
EndSplineSet
Validated: 1
EndChar

StartChar: underscore
Encoding: 95 95 63
GlifName: underscore
Width: 533
Flags: MW
HStem: -74 75<29.5 489 42 489>
LayerCount: 2
Back
Fore
SplineSet
42 1 m 2
 489 1 l 2
 514 1 527 -12 527 -37 c 0
 527 -62 514 -74 489 -74 c 2
 42 -74 l 2
 17 -74 5 -62 5 -37 c 0
 5 -12 17 1 42 1 c 2
EndSplineSet
Validated: 1
EndChar

StartChar: grave
Encoding: 96 96 64
GlifName: grave
Width: 591
Flags: W
HStem: 646 202
VStem: 196 175
LayerCount: 2
Back
Fore
SplineSet
365 686 m 2
 369 681 371 675 371 669 c 0
 371 654 364 646 351 646 c 0
 346 646 341 648 336 652 c 2
 200 770 l 2
 197 773 196 776 196 781 c 0
 196 792 204 806 220 823 c 0
 236 840 249 848 260 848 c 0
 264 848 267 846 269 843 c 2
 365 686 l 2
EndSplineSet
Validated: 1
EndChar

StartChar: a
Encoding: 97 97 65
GlifName: a
Width: 498
Flags: W
HStem: -25 75<140.454 319.815> 317 77<135.909 261.816>
VStem: 4 77<106.985 259.014> 296 74<210.85 281.815> 392 75<113.978 408.734>
LayerCount: 2
Back
Fore
SplineSet
296 235 m 4
 281 290 249 317 198 317 c 4
 127 317 81 252 81 178 c 4
 81 101 141 50 221 50 c 4
 320 50 392 97 392 190 c 6
 392 374 l 6
 392 399 405 411 430 411 c 4
 455 411 467 399 467 374 c 6
 467 190 l 6
 467 53 361 -25 219 -25 c 4
 105 -25 4 60 4 182 c 4
 4 295 87 394 204 394 c 4
 307 394 370 310 370 243 c 4
 370 222 351 207 331 207 c 4
 312 207 301 216 296 235 c 4
EndSplineSet
Validated: 1
EndChar

StartChar: b
Encoding: 98 98 66
GlifName: b
Width: 507
Flags: W
HStem: -24 75<172.451 341.99> 317 76<231.775 355.074>
VStem: 22 76<125.256 627.479> 120 74<209.731 277.541> 407 79<111.513 264.379>
LayerCount: 2
Back
Fore
SplineSet
194 234 m 0
 189 215 178 206 159 206 c 0
 138 206 120 221 120 242 c 0
 120 309 193 393 286 393 c 0
 418 393 486 296 486 186 c 0
 486 64 372 -24 249 -24 c 0
 113 -24 22 56 22 189 c 2
 22 595 l 2
 22 620 38 630 61 630 c 0
 85 630 98 618 98 595 c 2
 98 189 l 2
 98 112 175 51 253 51 c 0
 342 51 407 101 407 187 c 0
 407 257 361 317 293 317 c 0
 240 317 206 279 194 234 c 0
EndSplineSet
Validated: 1
EndChar

StartChar: c
Encoding: 99 99 67
GlifName: c
Width: 368
Flags: W
HStem: -14 59<136.186 269.381> 328 71<136.293 249.564>
VStem: 10 71<105.414 266.377>
LayerCount: 2
Back
Fore
SplineSet
194 -14 m 4
 85 -14 10 78 10 190 c 4
 10 305 87 399 203 399 c 4
 245 399 344 360 344 287 c 4
 344 268 332 259 309 259 c 4
 290 259 276 267 267 284 c 4
 251 313 227 328 195 328 c 4
 125 328 81 256 81 181 c 4
 81 111 130 45 198 45 c 4
 228 45 259 57 290 81 c 4
 299 85 307 87 314 87 c 4
 338 87 350 77 350 56 c 4
 350 6 230 -14 194 -14 c 4
EndSplineSet
Validated: 1
EndChar

StartChar: d
Encoding: 100 100 68
GlifName: d
Width: 509
Flags: W
HStem: -25 75<144.454 326.599> 316 77<137.332 265.608> 612 20G<420.5 445.5>
VStem: 8 77<106.632 258.445> 300 74<210.85 281.116> 396 75<113.085 629.578>
LayerCount: 2
Back
Fore
SplineSet
300 235 m 4
 285 289 253 316 202 316 c 4
 130 316 85 251 85 177 c 4
 85 100 145 50 225 50 c 4
 324 50 396 95 396 189 c 6
 396 595 l 6
 396 620 408 632 433 632 c 4
 458 632 471 619 471 594 c 6
 471 189 l 6
 471 52 365 -25 223 -25 c 4
 109 -25 8 60 8 182 c 4
 8 295 91 393 208 393 c 4
 300 393 374 309 374 243 c 4
 374 222 355 207 335 207 c 4
 316 207 305 216 300 235 c 4
EndSplineSet
Validated: 1
EndChar

StartChar: e
Encoding: 101 101 69
GlifName: e
Width: 458
Flags: W
HStem: -22 75<160.687 316.111> 202 75<128.422 363> 347 75<160.741 318.502>
VStem: 14 75<123.885 275.956>
LayerCount: 2
Back
Fore
SplineSet
164 277 m 2
 363 278 l 1
 338 324 296 347 237 347 c 0
 196 347 161 332 132 303 c 0
 103 274 89 240 89 200 c 0
 89 119 156 53 237 53 c 0
 288 53 328 73 358 114 c 0
 365 125 375 130 387 130 c 0
 407 130 426 112 426 92 c 0
 426 85 423 77 418 70 c 0
 373 9 313 -22 237 -22 c 0
 115 -22 14 78 14 200 c 0
 14 322 117 422 238 422 c 0
 345 422 452 346 452 239 c 0
 452 218 436 202 414 202 c 2
 164 202 l 2
 139 202 126 215 126 240 c 0
 126 265 139 277 164 277 c 2
EndSplineSet
Validated: 1
EndChar

StartChar: f
Encoding: 102 102 70
GlifName: f
Width: 429
Flags: MW
HStem: -89 21G<139.5 164.5> 321 75<32.5 115 45 115 190 267> 499 197<235 377.5> 621 75<241 264.5>
VStem: 8 182 115 75<-51 321> 115 190<-51 370.5 321 370.5 345.5 576> 328 75<537 574 524.5 579.5>
LayerCount: 2
Back
Fore
SplineSet
189 579 m 1xd9
 190 396 l 1xe9
 267 396 l 2
 292 396 305 383 305 358 c 0xe3
 305 333 292 321 267 321 c 2
 190 321 l 1
 190 -51 l 2
 190 -76 177 -89 152 -89 c 0
 127 -89 115 -76 115 -51 c 2
 115 321 l 1xe5
 45 321 l 2
 20 321 8 333 8 358 c 0xe9
 8 383 20 396 45 396 c 2
 115 396 l 1
 115 576 l 2
 115 605 129 633 157 658 c 0
 185 683 217 696 253 696 c 0
 290 696 324 686 353 665 c 0
 386 642 403 612 403 574 c 2
 403 537 l 2
 403 512 390 499 365 499 c 0xe5
 340 499 328 512 328 537 c 2
 328 574 l 2
 328 585 322 595 310 604 c 0
 295 615 276 621 253 621 c 0
 229 621 196 602 189 579 c 1xd9
EndSplineSet
Validated: 1
EndChar

StartChar: g
Encoding: 103 103 71
GlifName: g
Width: 492
Flags: MW
HStem: -230 75<251.5 281 251.5 288> -82 74<170.5 196.5> 10 75<194.5 239.5 180.5 247> 10 104<194.5 333> 326 75<209.5 262.5>
VStem: 14 75<181.5 247> 391 75<-86 178>
LayerCount: 2
Back
Fore
SplineSet
342 44 m 0xde
 307 21 268 10 226 10 c 0
 163 10 113 27 75 61 c 0
 34 98 14 149 14 214 c 0
 14 280 38 329 86 361 c 0
 126 388 178 401 241 401 c 0
 304 401 357 381 400 340 c 0
 444 297 466 243 466 178 c 2
 466 -86 l 2
 466 -123 445 -157 403 -186 c 0
 361 -215 314 -230 262 -230 c 0
 213 -230 167 -221 126 -204 c 0
 70 -181 42 -149 42 -106 c 0
 42 -71 58 -46 90 -29 c 0
 117 -15 150 -8 191 -8 c 0
 221 -8 247 -11 270 -18 c 0
 287 -23 296 -35 296 -53 c 0
 296 -73 281 -92 260 -92 c 0
 256 -92 252 -91 248 -90 c 0
 231 -85 209 -82 184 -82 c 0
 147 -82 125 -90 117 -106 c 1
 117 -121 139 -133 182 -143 c 0
 215 -151 241 -155 262 -155 c 0
 300 -155 332 -145 359 -125 c 0
 380 -109 391 -96 391 -86 c 2
 391 178 l 2
 391 222 377 258 348 285 c 0
 319 312 284 326 241 326 c 0
 140 326 89 289 89 214 c 0
 89 128 135 85 226 85 c 0xee
 253 85 279 92 302 107 c 0
 309 112 316 114 323 114 c 0
 343 114 360 95 360 75 c 0
 360 62 354 51 342 44 c 0xde
EndSplineSet
Validated: 1
EndChar

StartChar: h
Encoding: 104 104 72
GlifName: h
Width: 339
Flags: MW
HStem: -236 21G<272.5 297.5> 266 75<103 171 103 171> 618 20G<52.5 77.5>
VStem: 28 75<4 266 341 600> 247 75<-198 197>
LayerCount: 2
Back
Fore
SplineSet
103 600 m 2
 103 341 l 1
 171 341 l 2
 212 341 248 327 277 299 c 0
 307 271 322 237 322 197 c 2
 322 -198 l 2
 322 -223 310 -236 285 -236 c 0
 260 -236 247 -223 247 -198 c 2
 247 197 l 2
 247 233 214 266 171 266 c 2
 103 266 l 1
 103 4 l 2
 103 -23 91 -37 67 -37 c 0
 47 -37 28 -21 28 4 c 2
 28 600 l 2
 28 625 40 638 65 638 c 0
 90 638 103 625 103 600 c 2
EndSplineSet
Validated: 1
EndChar

StartChar: i
Encoding: 105 105 73
GlifName: i
Width: 152
Flags: MW
HStem: -32 21G<61 86> 430 107<63.5 93.5>
VStem: 25 107<468.5 498.5> 37 75<4 370>
LayerCount: 2
Back
Fore
SplineSet
112 370 m 2xd0
 112 4 l 2
 112 -20 99 -32 73 -32 c 0
 49 -32 37 -20 37 4 c 2
 37 370 l 2
 37 395 49 407 74 407 c 0
 99 407 112 395 112 370 c 2xd0
25 484 m 0xe0
 25 513 49 537 78 537 c 0
 109 537 132 513 132 484 c 0
 132 453 109 430 78 430 c 0
 49 430 25 453 25 484 c 0xe0
EndSplineSet
Validated: 1
EndChar

StartChar: j
Encoding: 106 106 74
GlifName: j
Width: 322
Flags: MW
HStem: -198 75<124.5 159.5 124.5 160> -198 161<32.5 160> 430 107<228.5 257.5>
VStem: 8 75<-86.5 -61.5 -86.5 -61.5> 189 107<468.5 498.5> 201 75<-74 370>
LayerCount: 2
Back
Fore
SplineSet
201 -74 m 2xb4
 201 370 l 2
 201 395 214 407 239 407 c 0
 264 407 276 395 276 370 c 2
 276 -74 l 2
 276 -109 263 -139 236 -162 c 0
 209 -186 178 -198 142 -198 c 0
 106 -198 75 -186 48 -162 c 0
 21 -139 8 -109 8 -74 c 0
 8 -49 20 -37 45 -37 c 0x74
 70 -37 83 -49 83 -74 c 0
 83 -99 107 -123 142 -123 c 0
 177 -123 201 -99 201 -74 c 2xb4
189 484 m 0xb8
 189 513 214 537 243 537 c 0
 272 537 296 513 296 484 c 0
 296 453 272 430 243 430 c 0
 214 430 189 453 189 484 c 0xb8
EndSplineSet
Validated: 1
EndChar

StartChar: k
Encoding: 107 107 75
GlifName: k
Width: 348
Flags: W
HStem: -224 21G<270.5 293> 237 75<103 173> 618 20G<52.5 77.5>
VStem: 28 75<-38.929 237 312 635.578>
LayerCount: 2
Back
Fore
SplineSet
103 237 m 1
 103 -2 l 2
 103 -29 91 -43 67 -43 c 0
 47 -43 28 -27 28 -2 c 2
 28 600 l 2
 28 625 40 638 65 638 c 0
 90 638 103 625 103 600 c 2
 103 312 l 1
 181 312 l 1
 245 408 l 2
 252 419 262 425 275 425 c 0
 295 425 314 408 314 388 c 0
 314 381 312 373 307 366 c 0
 296 345 274 313 243 268 c 1
 319 -180 l 2
 320 -184 320 -185 320 -188 c 0
 320 -210 305 -224 281 -224 c 0
 260 -224 248 -214 245 -193 c 2
 173 237 l 1
 103 237 l 1
EndSplineSet
Validated: 1
EndChar

StartChar: l
Encoding: 108 108 76
GlifName: l
Width: 138
Flags: W
HStem: 618 20G<52.5 77.5>
VStem: 28 75<-91.7344 635.578>
LayerCount: 2
Back
Fore
SplineSet
103 600 m 2
 103 -57 l 2
 103 -82 90 -94 65 -94 c 0
 40 -94 28 -82 28 -57 c 2
 28 600 l 2
 28 625 40 638 65 638 c 0
 90 638 103 625 103 600 c 2
EndSplineSet
Validated: 1
EndChar

StartChar: m
Encoding: 109 109 77
GlifName: m
Width: 648
Flags: W
HStem: 331 75<115.045 251.005 378.864 509.352>
VStem: 14 75<-31.5781 303.71> 274 75<-31.5781 302.332> 535 75<-182.46 303.593>
LayerCount: 2
Back
Fore
SplineSet
184 406 m 4
 241 406 284 388 315 353 c 5
 349 388 393 406 446 406 c 4
 533 406 610 344 610 258 c 6
 610 -146 l 6
 610 -172 597 -185 571 -185 c 4
 547 -185 535 -173 535 -149 c 6
 535 258 l 6
 535 297 499 331 446 331 c 4
 390 331 349 294 349 257 c 6
 349 4 l 6
 349 -21 336 -34 311 -34 c 4
 286 -34 274 -21 274 4 c 6
 274 262 l 6
 274 301 239 331 184 331 c 4
 128 331 89 299 89 262 c 6
 89 4 l 6
 89 -21 77 -34 52 -34 c 4
 27 -34 14 -21 14 4 c 6
 14 262 l 6
 14 348 95 406 184 406 c 4
EndSplineSet
Validated: 1
EndChar

StartChar: n
Encoding: 110 110 78
GlifName: n
Width: 377
Flags: HMW
HStem: -200 21G<298.5 323.5> 334 75<161.5 206.5 161.5 210.5>
VStem: 14 75<2 260> 273 75<-162 260>
LayerCount: 2
Back
Fore
SplineSet
14 2 m 6
 14 260 l 6
 14 346 96 409 184 409 c 4
 272 409 348 347 348 260 c 6
 348 -162 l 6
 348 -187 336 -200 311 -200 c 4
 286 -200 273 -187 273 -162 c 6
 273 260 l 6
 273 300 237 334 184 334 c 4
 128 334 89 299 89 260 c 6
 89 2 l 6
 89 -23 76 -35 51 -35 c 4
 26 -35 14 -23 14 2 c 6
EndSplineSet
Validated: 1
EndChar

StartChar: o
Encoding: 111 111 79
GlifName: o
Width: 481
Flags: W
HStem: -19 75<163.669 318.331> 355 75<163.869 318.131>
VStem: 16 75<128.067 282.331> 391 75<128.067 282.331>
LayerCount: 2
Back
Fore
SplineSet
241 430 m 4
 364 430 466 329 466 205 c 4
 466 82 365 -19 241 -19 c 4
 117 -19 16 82 16 205 c 4
 16 329 118 430 241 430 c 4
241 355 m 4
 159 355 91 287 91 205 c 4
 91 123 159 56 241 56 c 4
 323 56 391 123 391 205 c 4
 391 287 323 355 241 355 c 4
EndSplineSet
Validated: 1
EndChar

StartChar: p
Encoding: 112 112 80
GlifName: p
Width: 509
Flags: W
HStem: -203 21G<48 73> -22 76<227.732 353.619> 321 75<166.514 349.104>
VStem: 22 75<-200.46 257.409> 120 74<89.1664 160.269> 409 77<112.377 264.458>
LayerCount: 2
Back
Fore
SplineSet
194 136 m 4
 208 81 241 54 292 54 c 4
 351 54 409 108 409 193 c 4
 409 272 348 321 269 321 c 4
 169 321 97 276 97 181 c 6
 97 -167 l 6
 97 -191 85 -203 61 -203 c 4
 35 -203 22 -190 22 -165 c 6
 22 181 l 6
 22 319 128 396 270 396 c 4
 385 396 486 311 486 189 c 4
 486 76 402 -22 286 -22 c 4
 218 -22 120 60 120 128 c 4
 120 149 138 164 159 164 c 4
 178 164 189 155 194 136 c 4
EndSplineSet
Validated: 1
EndChar

StartChar: q
Encoding: 113 113 81
GlifName: q
Width: 509
Flags: W
HStem: -202 21G<426.5 447.5> -21 76<142.609 269.268> 322 77<149.473 322.979>
VStem: 9 79<112.831 264.64> 303 74<90.1664 161.641> 400 75<-198.589 251.785>
LayerCount: 2
Back
Fore
SplineSet
303 137 m 0
 308 156 319 165 338 165 c 0
 359 165 377 152 377 129 c 0
 377 52 279 -21 211 -21 c 0
 93 -21 9 77 9 189 c 0
 9 315 117 399 238 399 c 0
 375 399 475 316 475 182 c 2
 475 -164 l 2
 475 -187 458 -202 437 -202 c 24
 416 -202 400 -189 400 -164 c 2
 400 182 l 2
 400 267 321 322 231 322 c 0
 151 322 88 273 88 194 c 0
 88 120 134 55 205 55 c 0
 256 55 289 82 303 137 c 0
EndSplineSet
Validated: 1
EndChar

StartChar: r
Encoding: 114 114 82
GlifName: r
Width: 377
Flags: W
HStem: 334 75<117.226 247.055>
VStem: 14 75<-32.7344 307.186> 273 78<219.845 309.411>
LayerCount: 2
Back
Fore
SplineSet
184 409 m 4
 272 409 351 347 351 260 c 4
 351 230 338 215 313 215 c 4
 292 215 273 232 273 260 c 4
 273 300 237 334 184 334 c 4
 128 334 89 299 89 260 c 6
 89 2 l 6
 89 -23 76 -35 51 -35 c 4
 26 -35 14 -23 14 2 c 6
 14 260 l 6
 14 303 32 339 67 368 c 4
 100 395 139 409 184 409 c 4
EndSplineSet
Validated: 1
EndChar

StartChar: s
Encoding: 115 115 83
GlifName: s
Width: 368
Flags: W
HStem: -34 74<149.414 269.497> 140 74<90.2314 270.107> 324 75<103.711 245.363>
VStem: 9 75<222.937 303.327> 279 74<49.7459 133.273>
LayerCount: 2
Back
Fore
SplineSet
261 290 m 0
 237 312 210 324 181 324 c 0
 117 324 84 299 84 260 c 0
 84 225 111 214 156 214 c 0
 185 214 212 217 240 217 c 0
 308 217 353 165 353 97 c 0
 353 22 301 -34 226 -34 c 0
 146 -34 102 -2 53 24 c 0
 39 31 32 43 32 58 c 0
 32 81 49 102 70 102 c 0
 76 102 82 100 87 97 c 0
 131 72 175 40 228 40 c 0
 259 40 279 62 279 93 c 0
 279 121 255 142 230 142 c 0
 158 142 174 140 147 140 c 0
 109 140 78 148 58 161 c 0
 28 181 9 217 9 270 c 0
 9 351 92 399 179 399 c 0
 228 399 272 381 312 345 c 0
 320 338 324 329 324 318 c 0
 324 298 306 280 286 280 c 0
 277 280 268 283 261 290 c 0
EndSplineSet
Validated: 1
EndChar

StartChar: t
Encoding: 116 116 84
GlifName: t
Width: 325
Flags: W
HStem: 292 75<7.26562 117 193 299.578>
VStem: 117 75<-28.7344 292 367 406.734>
LayerCount: 2
Back
Fore
SplineSet
117 6 m 2
 117 292 l 1
 42 292 l 2
 17 292 5 304 5 329 c 0
 5 354 17 367 42 367 c 2
 118 367 l 1
 118 372 l 2
 118 397 130 409 155 409 c 0
 180 409 193 397 193 372 c 2
 193 367 l 1
 264 367 l 2
 289 367 302 354 302 329 c 0
 302 304 289 292 264 292 c 2
 192 292 l 1
 192 6 l 2
 192 -19 180 -31 155 -31 c 0
 130 -31 117 -19 117 6 c 2
EndSplineSet
Validated: 1
EndChar

StartChar: u
Encoding: 117 117 85
GlifName: u
Width: 377
Flags: W
HStem: -32 75<119.988 251.269>
VStem: 16 75<70.9426 409.578> 276 75<67.1266 573.578>
LayerCount: 2
Back
Fore
SplineSet
16 374 m 2
 16 399 29 412 54 412 c 0
 79 412 91 399 91 374 c 2
 91 116 l 2
 91 79 131 43 187 43 c 0
 240 43 276 76 276 116 c 2
 276 538 l 2
 276 563 288 576 313 576 c 0
 338 576 351 563 351 538 c 2
 351 116 l 2
 351 73 335 37 302 9 c 0
 270 -18 232 -32 187 -32 c 0
 142 -32 103 -19 70 8 c 0
 34 37 16 73 16 116 c 2
 16 374 l 2
EndSplineSet
Validated: 1
EndChar

StartChar: v
Encoding: 118 118 86
GlifName: v
Width: 377
Flags: W
HStem: 546 20G<315.5 335>
LayerCount: 2
Back
Fore
SplineSet
87 409 m 2
 195 130 l 1
 289 537 l 2
 294 556 306 566 325 566 c 0
 345 566 363 551 363 530 c 0
 363 527 363 523 362 520 c 2
 241 -5 l 2
 236 -28 224 -40 206 -40 c 0
 189 -40 177 -30 170 -10 c 2
 17 382 l 2
 15 387 14 392 14 397 c 0
 14 418 33 433 53 433 c 0
 69 433 80 425 87 409 c 2
EndSplineSet
Validated: 1
EndChar

StartChar: w
Encoding: 119 119 87
GlifName: w
Width: 590
Flags: W
LayerCount: 2
Back
Fore
SplineSet
289 190 m 1
 241 -5 l 2
 235 -28 223 -40 205 -40 c 0
 189 -40 177 -30 170 -10 c 2
 17 382 l 2
 15 387 14 392 14 397 c 0
 14 418 33 433 53 433 c 0
 69 433 80 425 87 409 c 2
 195 130 l 1
 240 314 l 1
 219 370 l 2
 217 375 216 380 216 385 c 0
 216 406 234 422 255 422 c 0
 271 422 282 414 288 398 c 2
 397 119 l 1
 491 525 l 2
 496 544 507 554 526 554 c 0
 547 554 565 539 565 518 c 0
 565 515 565 511 564 508 c 2
 443 -16 l 2
 438 -40 426 -52 407 -52 c 0
 391 -52 379 -42 371 -22 c 2
 289 190 l 1
EndSplineSet
Validated: 1
EndChar

StartChar: x
Encoding: 120 120 88
GlifName: x
Width: 475
Flags: MW
HStem: -212 21G<389.5 406> 430 20G<351 367>
LayerCount: 2
Back
Fore
SplineSet
141 175 m 1
 15 384 l 2
 10 391 8 397 8 404 c 0
 8 424 28 441 48 441 c 0
 61 441 71 435 79 423 c 2
 189 241 l 1
 328 434 l 2
 335 445 345 450 357 450 c 0
 377 450 396 432 396 412 c 0
 396 405 393 397 388 390 c 2
 231 172 l 1
 429 -155 l 2
 433 -162 435 -168 435 -175 c 0
 435 -196 416 -212 396 -212 c 0
 383 -212 372 -206 365 -194 c 2
 184 106 l 1
 91 -22 l 2
 84 -33 74 -39 62 -39 c 0
 42 -39 23 -21 23 -1 c 0
 23 7 26 14 31 21 c 2
 141 175 l 1
EndSplineSet
Validated: 1
EndChar

StartChar: y
Encoding: 121 121 89
GlifName: y
Width: 492
Flags: W
HStem: -230 75<147.899 344.751> -82 74<118.405 272.466> 50 74<256.041 392>
VStem: 42 75<-129.041 -88.8292> 149 75<153.888 369.547> 391 75<-119.285 50 124 364.578>
LayerCount: 2
Back
Fore
SplineSet
391 -86 m 6
 392 50 l 5
 311 51 254 59 219 74 c 4
 172 95 149 134 149 191 c 6
 149 332 l 6
 149 359 162 372 188 372 c 4
 212 372 224 359 224 332 c 6
 224 202 l 6
 224 126 318 124 392 124 c 5
 391 329 l 6
 391 354 404 367 429 367 c 4
 454 367 466 354 466 329 c 6
 466 -86 l 6
 466 -169 350 -230 262 -230 c 4
 213 -230 168 -221 126 -204 c 4
 70 -181 42 -149 42 -106 c 4
 42 -71 58 -46 90 -29 c 4
 117 -15 150 -8 191 -8 c 4
 235 -8 296 -14 296 -53 c 4
 296 -73 281 -91 260 -91 c 4
 242 -91 216 -82 185 -82 c 4
 148 -82 125 -90 117 -106 c 5
 117 -121 139 -133 182 -143 c 4
 215 -151 241 -155 262 -155 c 4
 306 -155 391 -125 391 -86 c 6
EndSplineSet
Validated: 1
EndChar

StartChar: z
Encoding: 122 122 90
GlifName: z
Width: 440
Flags: W
HStem: -28 75<154 426.578> 318 75<7.26562 280>
LayerCount: 2
Back
Fore
SplineSet
42 393 m 2
 360 393 l 2
 387 393 401 382 401 361 c 0
 401 351 397 341 388 331 c 2
 154 47 l 1
 391 47 l 2
 416 47 429 34 429 9 c 0
 429 -16 416 -28 391 -28 c 2
 74 -28 l 2
 47 -28 33 -18 33 3 c 0
 33 13 37 23 45 33 c 2
 280 318 l 1
 42 318 l 2
 17 318 5 330 5 355 c 0
 5 380 17 393 42 393 c 2
EndSplineSet
Validated: 1
EndChar

StartChar: braceleft
Encoding: 123 123 91
GlifName: braceleft
Width: 447
Flags: W
HStem: -94 75<214.26 316.406> 668 75<202.375 327.813>
VStem: 99 74<26.4863 272.915 431.026 638.794>
LayerCount: 2
Back
Fore
SplineSet
194 270 m 0
 180 224 173 178 173 131 c 0
 173 31 208 -19 279 -19 c 0
 305 -19 319 -31 319 -57 c 0
 319 -84 306 -94 278 -94 c 0
 215 -94 168 -71 138 -25 c 0
 112 14 99 67 99 134 c 0
 99 186 106 237 121 287 c 1
 61 317 l 2
 36 330 24 343 24 354 c 0
 24 369 44 386 85 403 c 0
 94 406 106 412 121 420 c 1
 106 469 98 515 98 557 c 0
 98 617 114 663 145 696 c 0
 175 727 218 743 273 743 c 0
 308 743 331 737 331 704 c 0
 331 684 317 667 295 667 c 0
 288 667 280 668 273 668 c 0
 210 668 179 640 179 586 c 0
 179 571 182 547 187 513 c 0
 192 480 195 455 195 439 c 0
 195 398 182 369 155 353 c 1
 184 338 198 318 198 295 c 0
 198 287 197 279 194 270 c 0
EndSplineSet
Validated: 1
EndChar

StartChar: bar
Encoding: 124 124 92
GlifName: bar
Width: 447
Flags: MW
HStem: -34 21G<168.5 193.5> 647 20G<168.5 193.5>
VStem: 143 75<4 629>
LayerCount: 2
Back
Fore
SplineSet
143 4 m 2
 143 629 l 2
 143 654 156 667 181 667 c 0
 206 667 218 654 218 629 c 2
 218 4 l 2
 218 -21 206 -34 181 -34 c 0
 156 -34 143 -21 143 4 c 2
EndSplineSet
Validated: 1
EndChar

StartChar: braceright
Encoding: 125 125 93
GlifName: braceright
Width: 447
Flags: W
HStem: -93 75<76.5938 178.74> 669 75<65.1467 191.885>
VStem: 220 74<26.821 273.931 432.049 640.384>
LayerCount: 2
Back
Fore
SplineSet
199 271 m 0
 196 280 195 289 195 296 c 0
 195 319 210 339 239 354 c 1
 212 371 199 399 199 440 c 0
 199 457 201 482 206 515 c 0
 211 549 214 573 214 587 c 0
 214 642 183 669 122 669 c 0
 115 669 108 668 101 668 c 0
 77 668 62 686 62 706 c 0
 62 729 74 741 97 743 c 0
 105 744 113 744 121 744 c 0
 176 744 218 729 248 697 c 0
 279 665 295 619 295 558 c 0
 295 516 287 470 272 421 c 1
 287 413 299 407 308 404 c 0
 349 387 369 370 369 355 c 0
 369 344 357 331 332 318 c 2
 272 288 l 1
 287 238 294 187 294 136 c 0
 294 69 281 16 255 -23 c 0
 225 -70 178 -93 115 -93 c 0
 87 -93 74 -83 74 -56 c 0
 74 -30 88 -18 114 -18 c 0
 185 -18 220 32 220 132 c 0
 220 179 213 225 199 271 c 0
EndSplineSet
Validated: 1
EndChar

StartChar: asciitilde
Encoding: 126 126 94
GlifName: asciitilde
Width: 602
Flags: HMW
HStem: 70 93<358 358> 260 20G<200.5 217>
LayerCount: 2
Back
Fore
SplineSet
44 163 m 0
 63 186 81 210 100 234 c 0
 125 260 158 280 204 280 c 0
 230 280 253 270 274 250 c 0
 280 245 295 226 318 194 c 0
 333 173 346 163 359 163 c 0
 383 163 405 196 469 260 c 0
 478 269 489 273 500 273 c 0
 525 273 548 249 548 224 c 0
 548 211 542 199 531 190 c 2
 458 113 l 1
 428 84 394 70 350 70 c 0
 322 70 298 79 278 97 c 0
 267 106 253 125 234 153 c 0
 221 174 209 184 199 184 c 0
 184 184 165 168 142 136 c 0
 117 102 94 85 73 85 c 0
 49 85 34 108 34 133 c 0
 34 146 37 156 44 163 c 0
EndSplineSet
Validated: 1
EndChar

StartChar: dagger
Encoding: 259 8224 95
GlifName: dagger
Width: 417
Flags: MW
HStem: -149 21G<201.5 216.5> 292 45<69.5 186 77 186 231 340> 292 201<69.5 216.5 77 216.5 201.5 231 201.5 340>
VStem: 55 176 186 45<-126 292 337 471> 186 176<-126 322.5 292 322.5 307.5 471 307.5 478.5>
LayerCount: 2
Back
Fore
SplineSet
186 -126 m 2xd0
 186 292 l 1xc8
 77 292 l 2
 62 292 55 300 55 315 c 0xd0
 55 330 62 337 77 337 c 2
 186 337 l 1xc8
 186 471 l 2
 186 486 194 493 209 493 c 0xa8
 224 493 231 486 231 471 c 2
 231 337 l 1xd0
 340 337 l 2
 355 337 362 330 362 315 c 0xc4
 362 300 355 292 340 292 c 2
 231 292 l 1
 231 -126 l 2
 231 -141 224 -149 209 -149 c 0
 194 -149 186 -141 186 -126 c 2xd0
EndSplineSet
Validated: 1
EndChar

StartChar: cent
Encoding: 162 162 96
GlifName: cent
Width: 443
Flags: W
HStem: 174 96<334.641 401.537>
VStem: 21 82<299.374 512.337> 192 75<40.4219 136.161 223 595 696.371 776.734>
LayerCount: 2
Back
Fore
SplineSet
377 174 m 0
 336 151 300 137 267 132 c 1
 267 76 l 2
 267 51 255 38 230 38 c 0
 205 38 192 51 192 76 c 2
 193 135 l 1
 139 147 96 181 65 236 c 0
 36 287 21 347 21 414 c 0
 21 479 35 536 63 586 c 0
 94 641 137 677 193 695 c 1
 192 742 l 2
 192 767 205 779 230 779 c 0
 255 779 267 767 267 742 c 2
 268 702 l 1
 323 691 367 648 400 571 c 0
 403 563 405 555 405 548 c 0
 405 523 392 510 365 510 c 0
 343 510 327 522 316 545 c 0
 305 571 289 589 268 598 c 1
 267 216 l 1
 292 223 317 238 344 263 c 0
 353 268 362 270 371 270 c 0
 395 270 411 251 411 227 c 0
 411 205 400 187 377 174 c 0
192 595 m 1
 144 570 103 495 103 402 c 0
 103 323 138 250 193 223 c 1
 192 595 l 1
EndSplineSet
Validated: 1
EndChar

StartChar: sterling
Encoding: 163 163 97
GlifName: sterling
Width: 567
Flags: W
HStem: -31 75<130 449.578> 272 75<47.4219 163 285 400.578> 565 76<386.857 460.767>
VStem: 469 73<447.173 559.578>
LayerCount: 2
Back
Fore
SplineSet
285 347 m 5
 365 347 l 6
 390 347 403 334 403 309 c 4
 403 284 390 272 365 272 c 6
 248 272 l 5
 130 44 l 5
 414 44 l 6
 439 44 452 32 452 7 c 4
 452 -18 439 -31 414 -31 c 6
 68 -31 l 6
 42 -31 29 -20 29 1 c 4
 29 8 31 16 35 24 c 4
 58 67 100 150 163 272 c 5
 83 272 l 6
 58 272 45 284 45 309 c 4
 45 334 58 347 83 347 c 6
 201 347 l 5
 309 559 l 6
 336 614 376 641 428 641 c 4
 492 641 542 588 542 501 c 4
 542 463 530 444 505 444 c 4
 482 444 470 456 469 480 c 4
 467 529 467 565 432 565 c 4
 407 565 389 552 376 526 c 6
 285 347 l 5
EndSplineSet
Validated: 1
EndChar

StartChar: section
Encoding: 167 167 98
GlifName: section
Width: 441
Flags: W
HStem: -65 75<179.512 313.71> 537 78<136.023 247.402>
VStem: 41 78<426.814 521.223> 49 78<233.921 310.508> 315 75<196.657 273.705> 336 75<32.3508 105.839>
LayerCount: 2
Back
Fore
SplineSet
315 237 m 0xd8
 315 285 208 318 168 333 c 1
 140 303 127 282 127 267 c 0
 127 219 244 196 295 196 c 1
 310 206 315 225 315 237 c 0xd8
411 74 m 0xc4
 411 -9 336 -65 245 -65 c 0
 138 -65 90 11 40 75 c 0
 34 83 31 91 31 99 c 0
 31 120 49 137 70 137 c 0
 81 137 90 132 98 123 c 0
 132 78 172 10 245 10 c 0
 297 10 336 35 336 76 c 0
 336 96 317 110 278 119 c 2
 190 133 l 1
 134 148 49 208 49 272 c 0xd4
 49 311 79 334 104 359 c 1
 62 382 41 415 41 457 c 0
 41 558 99 615 201 615 c 0
 255 615 375 555 375 497 c 0
 375 474 362 456 345 456 c 0
 319 456 285 496 258 510 c 0
 225 528 197 537 175 537 c 0
 139 537 119 497 119 470 c 0
 119 418 171 412 236 390 c 0
 339 355 390 304 390 238 c 0xe8
 390 209 383 178 367 166 c 1
 386 150 411 112 411 74 c 0xc4
EndSplineSet
Validated: 1
EndChar

StartChar: bullet
Encoding: 260 8226 99
GlifName: bullet
Width: 423
Flags: MW
HStem: 252 21G<182.5 231.5> 595 20G<182.5 231.5>
LayerCount: 2
Back
Fore
SplineSet
28 433 m 0
 28 483 45 526 80 561 c 0
 115 597 158 615 207 615 c 0
 256 615 298 597 333 561 c 0
 368 526 386 483 386 433 c 0
 386 383 368 340 333 305 c 0
 298 270 256 252 207 252 c 0
 158 252 115 270 80 305 c 0
 45 340 28 383 28 433 c 0
EndSplineSet
Validated: 1
EndChar

StartChar: paragraph
Encoding: 182 182 100
GlifName: paragraph
Width: 627
Flags: HMW
HStem: -138 21G<264.5 289.5> 536 75<314 464 314 464 539 577> 536 113<314 513.5 488.5 539 488.5 577> 628 20G<265 290>
VStem: 239 75<-101 267 267 267 611 622.5> 464 75<-98 536 611 623.5> 464 150<-98 586.5 536 586.5 561.5 623.5>
LayerCount: 2
Back
Fore
SplineSet
239 338 m 1
 239 536 l 1
 147 536 89 507 89 437 c 0
 89 365 141 338 239 338 c 1
464 -98 m 2xdc
 464 536 l 1
 314 536 l 1
 314 -101 l 2
 314 -126 302 -138 277 -138 c 0
 252 -138 239 -126 239 -101 c 2
 239 267 l 1
 109 267 20 303 20 438 c 0
 20 558 111 610 239 610 c 1
 239 635 252 648 278 648 c 0
 302 648 314 636 314 611 c 1
 464 611 l 1xdc
 464 636 476 649 501 649 c 0xac
 526 649 539 636 539 611 c 1xdc
 577 611 l 2
 602 611 614 599 614 574 c 0xda
 614 549 602 536 577 536 c 2
 539 536 l 1
 539 -98 l 2
 539 -123 527 -136 502 -136 c 0
 477 -136 464 -123 464 -98 c 2xdc
EndSplineSet
Validated: 1
EndChar

StartChar: germandbls
Encoding: 223 223 101
GlifName: germandbls
Width: 462
Flags: W
HStem: -31 74<157.825 306.708> 281 74<159.211 235.211> 581 75<154.007 247.539>
VStem: 43 75<-132.734 534.25> 280 73<399.782 544.874> 356 78<85.3521 210.438>
LayerCount: 2
Back
Fore
SplineSet
43 -98 m 2
 42 437 l 1
 59 557 87 656 202 656 c 0
 296 656 353 572 353 474 c 0
 353 416 336 370 302 335 c 1
 383 291 434 212 434 137 c 0
 434 18 322 -31 195 -31 c 0
 168 -31 155 -18 155 9 c 0
 155 32 167 43 190 43 c 0
 287 43 356 68 356 143 c 0
 356 229 268 281 193 281 c 0
 170 281 156 299 156 318 c 0
 156 338 167 350 188 355 c 0
 242 367 280 407 280 472 c 0
 280 529 247 581 202 581 c 0
 137 581 127 507 117 429 c 1
 118 -98 l 2
 118 -123 105 -135 80 -135 c 0
 55 -135 43 -123 43 -98 c 2
EndSplineSet
Validated: 1
EndChar

StartChar: acute
Encoding: 180 180 102
GlifName: acute
Width: 591
Flags: W
HStem: 646 202
VStem: 195 174
LayerCount: 2
Back
Fore
SplineSet
200 686 m 2
 296 843 l 2
 298 846 301 848 306 848 c 0
 317 848 330 840 345 823 c 0
 361 806 369 792 369 781 c 0
 369 776 368 773 365 770 c 2
 230 652 l 2
 225 648 219 646 214 646 c 0
 201 646 195 654 195 669 c 0
 195 675 197 681 200 686 c 2
EndSplineSet
Validated: 1
EndChar

StartChar: dieresis
Encoding: 168 168 103
GlifName: dieresis
Width: 591
Flags: MW
HStem: 625 107<175 203.5> 714 20G<385.5 414>
VStem: 138 103<663.5 692.5> 348 104<666.5 695.5>
LayerCount: 2
Back
Fore
SplineSet
138 678 m 0xb0
 138 707 161 732 189 732 c 0
 218 732 241 707 241 678 c 0
 241 649 218 625 189 625 c 0
 161 625 138 649 138 678 c 0xb0
348 681 m 0
 348 710 371 734 400 734 c 0x70
 428 734 452 710 452 681 c 0
 452 652 428 628 400 628 c 0
 371 628 348 652 348 681 c 0
EndSplineSet
Validated: 1
EndChar

StartChar: AE
Encoding: 198 198 104
GlifName: A_E_
Width: 689
Flags: W
HStem: -13 76<262.733 347 422 665.267> 242 75<40.4219 82 157 346 422 592.801> 504 75<17.4219 82 157 331.781 406 651.734>
VStem: 82 75<-35.5781 242 317 504 579 625.734> 347 75<-196.734 -13 63 239 317 487.828>
LayerCount: 2
Back
Fore
SplineSet
422 239 m 1
 422 63 l 1
 630 62 l 2
 655 62 668 49 668 24 c 0
 668 -1 655 -13 630 -13 c 2
 422 -13 l 1
 422 -162 l 2
 422 -187 409 -199 384 -199 c 0
 359 -199 347 -187 347 -162 c 2
 347 -13 l 1
 298 -12 l 2
 273 -12 260 1 260 26 c 0
 260 51 273 63 298 63 c 2
 347 63 l 1
 347 242 l 1
 157 242 l 1
 157 0 l 2
 157 -25 144 -38 119 -38 c 0
 94 -38 82 -25 82 0 c 2
 82 242 l 1
 76 242 l 2
 51 242 38 254 38 279 c 0
 38 304 51 317 76 317 c 2
 82 317 l 1
 82 504 l 1
 53 504 l 2
 28 504 15 517 15 542 c 0
 15 567 28 579 53 579 c 2
 82 579 l 1
 82 591 l 2
 82 616 95 628 120 628 c 0
 145 628 157 616 157 591 c 2
 157 579 l 1
 617 579 l 2
 642 579 654 566 654 541 c 0
 654 515 641 502 616 502 c 2
 406 502 l 1
 417 478 422 435 422 373 c 2
 422 314 l 1
 559 314 l 2
 584 314 596 301 596 276 c 0
 596 251 584 239 559 239 c 2
 422 239 l 1
157 504 m 1
 157 317 l 1
 346 317 l 1
 346 371 l 2
 346 424 344 456 340 468 c 0
 333 489 310 501 273 504 c 2
 157 504 l 1
EndSplineSet
Validated: 1
EndChar

StartChar: Oslash
Encoding: 216 216 105
GlifName: O_slash
Width: 403
Flags: MW
HStem: -20 75<195.5 241.5 195.5 266.5> 560 75<186.5 208.5>
VStem: 16 75<261.5 328 261.5 334> 312 75<218.5 336.5>
LayerCount: 2
Back
Fore
SplineSet
387 300 m 0
 387 87 327 -20 206 -20 c 0
 141 -20 92 9 59 67 c 0
 30 119 16 192 16 285 c 0
 16 383 30 463 58 526 c 0
 91 599 140 635 203 635 c 0
 267 635 315 601 347 534 c 0
 374 477 387 399 387 300 c 0
103 163 m 1
 236 551 l 1
 225 557 214 560 203 560 c 0
 170 560 144 536 123 489 c 0
 102 439 91 371 91 285 c 0
 91 238 95 198 103 163 c 1
312 300 m 0
 312 373 305 431 290 476 c 1
 151 73 l 1
 166 61 185 55 206 55 c 0
 277 55 312 137 312 300 c 0
EndSplineSet
Validated: 1
EndChar

StartChar: yen
Encoding: 165 165 106
GlifName: yen
Width: 485
Flags: MW
HStem: -34 210<119 266> 101 75<106.5 217 119 217 292 366> 226 75<106.5 217 119 217 292 370> 635 20G<43.5 59.5 423.5 440>
VStem: 82 210<-8 151.5> 217 75<2 5 5 101 176 226 301 323> 217 191<2 276.5 101 276.5 176 276.5 226 276.5 251.5 323 251.5 323>
LayerCount: 2
Back
Fore
SplineSet
292 226 m 1xb8
 292 176 l 1
 366 176 l 2
 391 176 403 164 403 139 c 0
 403 114 391 101 366 101 c 2
 292 101 l 1x78
 292 5 l 2
 292 -21 279 -34 253 -34 c 0xb8
 229 -34 217 -22 217 2 c 2
 217 101 l 1x74
 119 101 l 2
 94 101 82 114 82 139 c 0x78
 82 164 94 176 119 176 c 2
 217 176 l 1
 217 226 l 1xb4
 119 226 l 2
 94 226 82 239 82 264 c 0xb8
 82 289 94 301 119 301 c 2
 217 301 l 1
 217 323 l 1xb4
 188 365 123 456 22 595 c 0
 17 602 14 610 14 618 c 0
 14 638 33 655 54 655 c 0
 65 655 75 650 83 639 c 2
 252 410 l 1
 400 638 l 2
 407 649 417 655 430 655 c 0
 450 655 469 638 469 618 c 0
 469 611 467 604 462 597 c 0
 413 518 357 426 292 323 c 1
 292 301 l 1xb8
 370 301 l 2
 395 301 408 289 408 264 c 0xb2
 408 239 395 226 370 226 c 2
 292 226 l 1xb8
EndSplineSet
Validated: 1
EndChar

StartChar: ordfeminine
Encoding: 170 170 107
GlifName: ordfeminine
Width: 287
Flags: W
HStem: 437 37<84.5476 196.818> 608 38<84.3088 162.779> 635 20G<233 245.5>
VStem: 27 38<493.636 589.245> 173 37<553.033 597.484> 221 37<496.568 654.996>
LayerCount: 2
Back
Fore
SplineSet
173 567 m 0xdc
 166 594 149 608 124 608 c 0xdc
 88 608 65 574 65 538 c 0
 65 499 96 474 135 474 c 0
 190 474 221 501 221 544 c 2
 221 636 l 2
 221 649 227 655 239 655 c 0xbc
 252 655 258 649 258 636 c 2
 258 544 l 2
 258 477 216 437 134 437 c 0
 74 437 27 483 27 542 c 0
 27 595 74 646 127 646 c 0
 160 646 210 609 210 568 c 0
 210 558 204 553 190 553 c 0
 181 553 175 558 173 567 c 0xdc
EndSplineSet
Validated: 1
EndChar

StartChar: ordmasculine
Encoding: 186 186 108
GlifName: ordmasculine
Width: 282
Flags: MW
HStem: 445 33<122.5 159.5 122.5 169> 613 33<122.5 159.5>
VStem: 40 34<527.5 564 527.5 573.5> 208 34<527.5 564>
LayerCount: 2
Back
Fore
SplineSet
141 646 m 0
 197 646 242 601 242 546 c 0
 242 490 197 445 141 445 c 0
 85 445 40 490 40 546 c 0
 40 601 85 646 141 646 c 0
141 613 m 0
 104 613 74 582 74 546 c 0
 74 509 104 478 141 478 c 0
 178 478 208 509 208 546 c 0
 208 582 178 613 141 613 c 0
EndSplineSet
Validated: 1
EndChar

StartChar: ae
Encoding: 230 230 109
GlifName: ae
Width: 853
Flags: W
HStem: -25 75<140.454 320.655> -17 75<538.578 694.111> 208 75<506.422 741> 317 77<133.755 261.857> 352 75<538.849 696.924>
VStem: 4 77<106.985 259.014> 296 74<210.85 281.815> 392 75<128.891 281.142 373 408.719>
LayerCount: 2
Back
Fore
SplineSet
219 -25 m 0xa7
 105 -25 4 60 4 182 c 0
 4 295 88 394 204 394 c 0
 288 394 370 310 370 243 c 0
 370 222 351 207 331 207 c 0
 312 207 301 216 296 235 c 0
 281 290 249 317 198 317 c 0
 127 317 81 252 81 178 c 0
 81 101 141 50 221 50 c 0xb7
 320 50 392 97 392 190 c 2
 392 374 l 2
 392 399 404 411 429 411 c 0
 454 411 466 399 466 373 c 1
 507 409 557 427 617 427 c 0
 724 427 830 351 830 243 c 0
 830 222 814 208 792 208 c 2
 542 208 l 2
 517 208 504 220 504 245 c 0
 504 270 517 283 542 283 c 2
 741 283 l 1
 716 329 674 352 615 352 c 0
 534 352 467 286 467 205 c 0
 467 124 534 58 615 58 c 0
 666 58 706 78 736 119 c 0
 743 130 753 135 765 135 c 0
 785 135 804 118 804 98 c 0
 804 90 801 82 796 75 c 0
 751 14 691 -17 615 -17 c 0x6f
 538 -17 478 13 435 72 c 1
 398 13 314 -25 219 -25 c 0xa7
EndSplineSet
Validated: 1
EndChar

StartChar: oslash
Encoding: 248 248 110
GlifName: oslash
Width: 504
Flags: MW
HStem: -138 21G<39 55.5> -19 21G<224.5 272.5> 561 20G<441.5 458>
VStem: 16 75<185.5 225.5 185.5 236.5> 391 75<184.5 225.5>
LayerCount: 2
Back
Fore
SplineSet
466 205 m 0
 466 143 444 90 400 46 c 0
 357 3 304 -19 241 -19 c 0
 208 -19 179 -13 153 -2 c 1
 80 -120 l 2
 73 -132 62 -138 49 -138 c 0
 29 -138 10 -121 10 -101 c 0
 10 -94 12 -87 16 -80 c 2
 93 40 l 1
 42 86 16 141 16 205 c 0
 16 268 38 321 82 364 c 0
 126 408 179 430 241 430 c 0
 271 430 299 425 325 415 c 1
 417 563 l 2
 424 575 435 581 448 581 c 0
 468 581 487 564 487 543 c 0
 487 536 485 530 481 523 c 2
 389 375 l 1
 440 330 466 274 466 205 c 0
132 105 m 1
 285 350 l 1
 273 353 258 355 241 355 c 0
 200 355 164 340 135 311 c 0
 106 282 91 246 91 205 c 0
 91 166 105 133 132 105 c 1
391 205 m 0
 391 246 377 280 348 309 c 1
 195 63 l 1
 211 58 226 56 241 56 c 0
 282 56 318 70 347 99 c 0
 376 128 391 164 391 205 c 0
EndSplineSet
Validated: 1
EndChar

StartChar: questiondown
Encoding: 191 191 111
GlifName: questiondown
Width: 449
Flags: W
HStem: -26 74<162.835 301.7> 560 121<175.894 277.783>
VStem: 21 76<108.645 245.537> 161 132<575.388 665.365> 192 75<363.981 528.734> 348 75<95.8792 202.75>
LayerCount: 2
Back
Fore
SplineSet
237 -26 m 0xec
 123 -26 21 61 21 173 c 0
 21 277 101 356 192 368 c 1
 192 494 l 2
 192 519 205 531 230 531 c 0
 255 531 267 519 267 494 c 2
 267 332 l 2
 267 313 253 301 226 294 c 0
 181 283 154 275 146 270 c 0
 116 252 97 221 97 174 c 0
 97 105 165 48 236 48 c 0
 306 48 345 100 348 170 c 0
 349 193 362 205 385 205 c 0
 411 205 423 193 423 169 c 0
 423 56 348 -26 237 -26 c 0xec
293 621 m 0xf4
 293 586 263 560 227 560 c 0
 190 560 161 586 161 621 c 0
 161 654 190 681 227 681 c 0
 263 681 293 654 293 621 c 0xf4
EndSplineSet
Validated: 1
EndChar

StartChar: exclamdown
Encoding: 161 161 112
GlifName: exclamdown
Width: 244
Flags: MW
HStem: -27 21G<103 128> 502 110<94.5 125.5>
VStem: 54 112<541.5 572.5> 77 75<12 425>
LayerCount: 2
Back
Fore
SplineSet
77 425 m 2xd0
 77 450 89 462 114 462 c 0
 139 462 152 450 152 425 c 2
 152 9 l 2
 152 -15 140 -27 116 -27 c 0
 90 -27 77 -14 77 12 c 2
 77 425 l 2xd0
54 557 m 0xe0
 54 588 79 612 110 612 c 0
 141 612 166 588 166 557 c 0
 166 526 141 502 110 502 c 0
 79 502 54 526 54 557 c 0xe0
EndSplineSet
Validated: 1
EndChar

StartChar: florin
Encoding: 261 402 113
GlifName: florin
Width: 628
Flags: W
HStem: 303 75<114.885 203 307 392.996> 597 75<399.759 510.076>
VStem: 495 78<481.828 512> 514 81<511.034 589.88>
LayerCount: 2
Back
Fore
SplineSet
57 -72 m 2xd0
 203 304 l 1
 129 303 l 2
 112 303 103 311 103 326 c 0
 103 350 127 378 158 378 c 2
 232 379 l 1
 300 555 l 2
 320 608 408 672 480 672 c 0
 539 672 595 642 595 587 c 0xd0
 595 561 581 532 573 511 c 0
 564 486 547 474 522 474 c 0
 504 474 495 482 495 497 c 0xe0
 495 502 496 507 498 512 c 2
 512 550 l 2
 513 553 514 556 514 559 c 0
 514 584 494 596 455 597 c 0
 426 597 387 574 376 557 c 1
 307 379 l 1
 380 378 l 2
 397 378 406 371 406 356 c 0
 406 332 380 303 351 303 c 2
 278 304 l 1
 132 -73 l 2
 123 -98 106 -110 81 -110 c 0
 63 -110 54 -102 54 -87 c 0
 54 -82 55 -77 57 -72 c 2xd0
EndSplineSet
Validated: 1
EndChar

StartChar: guillemotleft
Encoding: 171 171 114
GlifName: guillemotleft
Width: 556
Flags: MW
HStem: -83 21G<285 298.5> 367 20G<450 462.5>
LayerCount: 2
Back
Fore
SplineSet
237 293 m 2
 118 174 l 1
 316 -25 l 2
 322 -31 325 -38 325 -47 c 0
 325 -66 308 -83 289 -83 c 0
 281 -83 274 -80 267 -73 c 0
 212 -17 149 46 78 117 c 0
 53 141 41 160 41 175 c 0
 41 190 63 218 107 261 c 2
 191 339 l 2
 198 346 205 349 214 349 c 0
 231 349 247 332 247 315 c 0
 247 307 244 300 237 293 c 2
477 331 m 2
 320 171 l 1
 430 61 l 2
 437 54 440 47 440 38 c 0
 440 21 424 5 407 5 c 0
 398 5 391 8 384 15 c 2
 304 89 l 2
 263 129 243 157 243 172 c 0
 243 187 257 207 284 233 c 0
 321 268 370 316 431 377 c 0
 438 384 446 387 454 387 c 0
 471 387 487 371 487 354 c 0
 487 345 484 338 477 331 c 2
EndSplineSet
Validated: 1
EndChar

StartChar: guillemotright
Encoding: 187 187 115
GlifName: guillemotright
Width: 556
Flags: MW
HStem: -79 21G<237.5 251.5> 371 20G<73.5 86.5>
LayerCount: 2
Back
Fore
SplineSet
418 177 m 1
 299 296 l 2
 292 303 289 310 289 319 c 0
 289 336 304 352 323 352 c 0
 331 352 338 349 345 342 c 2
 430 264 l 2
 473 222 495 194 495 179 c 0
 495 164 483 145 459 121 c 0
 388 50 325 -13 270 -69 c 0
 263 -76 256 -79 247 -79 c 0
 228 -79 211 -62 211 -43 c 0
 211 -35 214 -28 221 -21 c 2
 418 177 l 1
216 175 m 1
 59 335 l 2
 52 342 49 349 49 358 c 0
 49 375 65 391 82 391 c 0
 91 391 98 388 105 381 c 0
 166 320 215 272 252 237 c 0
 280 211 294 191 294 176 c 0
 294 161 273 133 232 93 c 2
 152 18 l 2
 145 11 138 8 129 8 c 0
 112 8 96 25 96 42 c 0
 96 50 99 57 106 64 c 2
 216 175 l 1
EndSplineSet
Validated: 1
EndChar

StartChar: ellipsis
Encoding: 262 8230 116
GlifName: ellipsis
Width: 596
Flags: MW
HStem: -14 136<94 130> -11 21G<261 297 434 470> 105 20G<261 297 434 470>
VStem: 47 130<35.5 72.5> 214 130<38.5 75.5> 387 130<38.5 75.5>
LayerCount: 2
Back
Fore
SplineSet
47 54 m 0x9c
 47 91 76 122 112 122 c 0
 148 122 177 91 177 54 c 0
 177 17 148 -14 112 -14 c 0
 76 -14 47 17 47 54 c 0x9c
214 57 m 0
 214 94 243 125 279 125 c 0
 315 125 344 94 344 57 c 0
 344 20 315 -11 279 -11 c 0x7c
 243 -11 214 20 214 57 c 0
387 57 m 0
 387 94 416 125 452 125 c 0
 488 125 517 94 517 57 c 0
 517 20 488 -11 452 -11 c 0
 416 -11 387 20 387 57 c 0
EndSplineSet
Validated: 1
EndChar

StartChar: OE
Encoding: 263 338 117
GlifName: O_E_
Width: 702
Flags: MW
HStem: -64 115<337 645> -24 75<390 645 390 390> -20 21G<173.5 220.5> 0 21G<277 314 277 277> 266 75<388 593 388 593> 514 74<388 389 389 389 389 599> 560 65 615 20G<171.5 226.5>
VStem: 16 75<238.5 328 208.5 334> 312 76<218.5 266 341 343.5>
LayerCount: 2
Back
Fore
SplineSet
388 514 m 1x8dc0
 388 341 l 1
 593 341 l 2
 618 341 631 328 631 303 c 0
 631 278 618 266 593 266 c 2
 388 266 l 1
 388 51 l 1
 645 51 l 2
 670 51 682 39 682 14 c 0
 682 -11 670 -24 645 -24 c 2
 390 -24 l 1x4dc0
 390 -48 370 -64 349 -64 c 0x8dc0
 325 -64 313 -52 313 -29 c 2
 314 0 l 1
 277 0 l 1x1dc0
 259 -13 235 -20 206 -20 c 0
 141 -20 92 9 59 67 c 0
 30 119 16 192 16 285 c 0
 16 383 30 463 58 526 c 0
 91 599 140 635 203 635 c 0x2dc0
 250 635 286 619 313 586 c 1
 313 612 326 625 353 625 c 0x8ac0
 377 625 389 613 389 588 c 1
 599 589 l 2
 624 589 636 576 636 551 c 0
 636 526 624 514 599 514 c 2
 388 514 l 1x8dc0
203 560 m 0x8ac0
 170 560 144 536 123 489 c 0
 102 439 91 371 91 285 c 0
 91 132 129 55 206 55 c 0
 277 55 312 137 312 300 c 0
 312 387 302 452 281 497 c 0
 262 539 236 560 203 560 c 0x8ac0
EndSplineSet
Validated: 1
EndChar

StartChar: oe
Encoding: 264 339 118
GlifName: oe
Width: 882
Flags: W
HStem: -19 75<190.669 344.342 570.52 729.502> 205 75<539.266 774> 355 75<190.869 344.817 582.888 718.33>
VStem: 43 75<128.067 282.331> 418 82<128.912 276.125>
LayerCount: 2
Back
Fore
SplineSet
268 430 m 4
 352 430 416 394 460 321 c 5
 505 390 568 424 649 424 c 4
 753 424 863 351 863 241 c 4
 863 220 847 205 825 205 c 6
 574 205 l 6
 549 205 537 217 537 242 c 4
 537 267 549 280 574 280 c 6
 774 280 l 5
 749 326 707 349 648 349 c 4
 567 349 500 283 500 202 c 4
 500 121 567 55 648 55 c 4
 699 55 739 75 769 116 c 4
 776 127 786 132 798 132 c 4
 818 132 837 115 837 95 c 4
 837 87 834 79 829 72 c 4
 784 11 724 -20 648 -20 c 4
 565 -20 502 15 458 85 c 5
 414 16 351 -19 268 -19 c 4
 144 -19 43 82 43 205 c 4
 43 329 145 430 268 430 c 4
268 355 m 4
 186 355 118 287 118 205 c 4
 118 123 186 56 268 56 c 4
 350 56 418 123 418 205 c 4
 418 287 350 355 268 355 c 4
EndSplineSet
Validated: 1
EndChar

StartChar: endash
Encoding: 265 8211 119
GlifName: endash
Width: 443
Flags: MW
HStem: 179 75<57.5 373 70 373>
LayerCount: 2
Back
Fore
SplineSet
70 254 m 2
 373 254 l 2
 398 254 410 242 410 217 c 0
 410 192 398 179 373 179 c 2
 70 179 l 2
 45 179 33 192 33 217 c 0
 33 242 45 254 70 254 c 2
EndSplineSet
Validated: 1
EndChar

StartChar: emdash
Encoding: 266 8212 120
GlifName: emdash
Width: 795
Flags: MW
HStem: 104 75<51.5 730 64 730>
LayerCount: 2
Back
Fore
SplineSet
64 179 m 2
 730 179 l 2
 755 179 768 167 768 142 c 0
 768 117 755 104 730 104 c 2
 64 104 l 2
 39 104 27 117 27 142 c 0
 27 167 39 179 64 179 c 2
EndSplineSet
Validated: 1
EndChar

StartChar: quotedblleft
Encoding: 267 8220 121
GlifName: quotedblleft
Width: 452
Flags: MW
HStem: 401 21G<86 137.5> 404 182<345 350.5> 652 20G<354.5 371>
VStem: 19 185<472.5 514.5> 233 184<475.5 517.5>
LayerCount: 2
Back
Fore
SplineSet
417 502 m 0x78
 417 449 376 404 325 404 c 0
 274 404 233 449 233 502 c 0
 233 533 247 569 275 608 c 0
 306 651 338 672 371 672 c 1
 366 662 360 647 354 628 c 0
 348 609 345 595 345 586 c 1
 386 586 417 545 417 502 c 0x78
204 499 m 0
 204 446 163 401 112 401 c 0xb8
 60 401 19 446 19 499 c 0
 19 530 33 566 62 605 c 0
 93 648 125 670 158 670 c 1
 152 660 146 645 140 625 c 0
 135 606 132 592 132 583 c 1
 173 583 204 542 204 499 c 0
EndSplineSet
Validated: 1
EndChar

StartChar: quotedblright
Encoding: 268 8221 122
GlifName: quotedblright
Width: 446
Flags: MW
HStem: 410 21G<66 82.5> 499 179<86 305> 661 20G<299.5 350.5>
VStem: 19 185<564.5 607.5 564.5 607.5> 233 184<567.5 610.5 567.5 610.5>
LayerCount: 2
Back
Fore
SplineSet
19 580 m 0xd8
 19 635 60 678 112 678 c 0
 163 678 204 635 204 580 c 0
 204 549 190 514 162 475 c 0
 131 432 99 410 66 410 c 1
 71 420 77 435 82 454 c 0
 88 473 91 488 91 497 c 1
 51 497 19 539 19 580 c 0xd8
233 583 m 0
 233 638 274 681 325 681 c 0xb8
 376 681 417 638 417 583 c 0
 417 552 403 517 375 478 c 0
 344 435 312 413 279 413 c 1
 284 423 290 438 296 457 c 0
 302 476 305 490 305 499 c 1
 264 499 233 542 233 583 c 0
EndSplineSet
Validated: 1
EndChar

StartChar: quoteleft
Encoding: 269 8216 123
GlifName: quoteleft
Width: 259
Flags: MW
HStem: 410 21G<106.5 157.5> 658 20G<161.5 178>
VStem: 40 184<481.5 523.5>
LayerCount: 2
Back
Fore
SplineSet
224 508 m 0
 224 455 183 410 132 410 c 0
 81 410 40 455 40 508 c 0
 40 539 54 574 82 613 c 0
 113 656 145 678 178 678 c 1
 172 668 166 653 160 634 c 0
 155 615 152 601 152 592 c 1
 193 592 224 551 224 508 c 0
EndSplineSet
Validated: 1
EndChar

StartChar: quoteright
Encoding: 270 8217 124
GlifName: quoteright
Width: 273
Flags: MW
HStem: 413 21G<89 105.5> 661 20G<109 160.5>
VStem: 42 185<567.5 610.5 567.5 610.5>
LayerCount: 2
Back
Fore
SplineSet
42 583 m 0
 42 638 83 681 135 681 c 0
 186 681 227 638 227 583 c 0
 227 552 213 517 185 478 c 0
 154 435 122 413 89 413 c 1
 94 423 100 438 106 457 c 0
 112 476 115 490 115 499 c 1
 74 499 42 542 42 583 c 0
EndSplineSet
Validated: 1
EndChar

StartChar: fraction
Encoding: 271 8725 125
GlifName: fraction
Width: 447
Flags: MW
HStem: -31 21G<75 93.5> 734 20G<313.5 332>
LayerCount: 2
Back
Fore
SplineSet
287 728 m 2
 293 745 305 754 322 754 c 0
 342 754 361 738 361 718 c 0
 361 713 360 709 359 704 c 2
 119 -5 l 2
 114 -22 102 -31 85 -31 c 0
 65 -31 46 -15 46 5 c 0
 46 10 47 14 48 19 c 2
 287 728 l 2
EndSplineSet
Validated: 1
EndChar

StartChar: currency
Encoding: 164 164 126
GlifName: currency
Width: 642
Flags: MW
HStem: -14 21G<56 71 571 586> 70 75<299 343 299 343.5> 445 75<293.5 343> 555 20G<56 71 571 586>
VStem: 89 75<274.5 308.5 274.5 319> 478 75<274.5 315.5>
LayerCount: 2
Back
Fore
SplineSet
89 295 m 0
 89 343 102 385 129 421 c 1
 39 510 l 2
 32 518 28 527 28 537 c 0
 28 557 46 575 66 575 c 0
 76 575 85 571 93 563 c 2
 181 475 l 1
 220 505 266 520 321 520 c 0
 372 520 419 505 460 474 c 1
 550 563 l 2
 557 571 566 575 576 575 c 0
 596 575 614 557 614 537 c 0
 614 527 610 518 603 510 c 2
 513 420 l 1
 540 383 553 341 553 295 c 0
 553 239 536 191 501 152 c 1
 603 50 l 2
 610 43 614 34 614 24 c 0
 614 4 596 -14 576 -14 c 0
 566 -14 557 -10 550 -3 c 2
 443 105 l 1
 406 82 366 70 321 70 c 0
 276 70 235 81 199 104 c 1
 93 -3 l 2
 85 -10 76 -14 66 -14 c 0
 46 -14 28 4 28 24 c 0
 28 34 32 43 39 50 c 2
 139 151 l 1
 106 190 89 238 89 295 c 0
185 370 m 0
 171 347 164 322 164 295 c 0
 164 254 179 218 209 189 c 0
 240 160 277 145 321 145 c 0
 365 145 402 160 432 189 c 0
 463 218 478 254 478 295 c 0
 478 336 463 371 432 400 c 0
 402 430 365 445 321 445 c 0
 260 445 215 420 185 370 c 0
EndSplineSet
Validated: 1
EndChar

StartChar: guilsinglleft
Encoding: 272 8249 127
GlifName: guilsinglleft
Width: 267
Flags: MW
HStem: 80 21G<193.5 209.5> 520 20G<188 204>
LayerCount: 2
Back
Fore
SplineSet
225 479 m 2
 98 309 l 1
 230 142 l 2
 235 134 238 126 238 118 c 0
 238 98 220 80 199 80 c 0
 188 80 179 85 171 95 c 2
 54 236 l 2
 28 267 15 292 15 309 c 0
 15 326 28 350 53 382 c 2
 164 524 l 2
 172 535 182 540 194 540 c 0
 214 540 233 522 233 502 c 0
 233 494 230 486 225 479 c 2
EndSplineSet
Validated: 1
EndChar

StartChar: guilsinglright
Encoding: 273 8250 128
GlifName: guilsinglright
Width: 267
Flags: MW
HStem: 83 21G<43 58.5> 523 20G<49 64.5>
LayerCount: 2
Back
Fore
SplineSet
28 482 m 2
 23 489 20 497 20 505 c 0
 20 525 39 543 59 543 c 0
 70 543 80 538 88 527 c 2
 200 385 l 2
 225 352 237 328 237 312 c 0
 237 295 224 270 199 239 c 2
 82 98 l 2
 74 88 64 83 53 83 c 0
 33 83 14 101 14 121 c 0
 14 129 17 137 23 144 c 2
 155 312 l 1
 28 482 l 2
EndSplineSet
Validated: 1
EndChar

StartChar: fi
Encoding: 274 64257 129
GlifName: fi
Width: 440
Flags: MW
HStem: -182 21G<349 374> 321 75<32.5 115 45 115 190 325> 499 197<235 377.5> 621 75<241 264.5>
VStem: 8 181 114 75<-26.5 -14> 325 75<-146 321 321 321>
LayerCount: 2
Back
Fore
SplineSet
190 321 m 1xda
 189 -14 l 2
 189 -39 177 -51 152 -51 c 0
 127 -51 114 -39 114 -14 c 2xe6
 115 321 l 1
 45 321 l 2
 20 321 8 333 8 358 c 0
 8 383 20 396 45 396 c 2
 115 396 l 1
 115 576 l 2
 115 605 129 633 157 658 c 0
 185 683 217 696 253 696 c 0
 290 696 324 686 353 665 c 0
 386 642 403 612 403 574 c 2
 403 537 l 2
 403 512 390 499 365 499 c 0xea
 340 499 328 512 328 537 c 2
 328 574 l 2
 328 585 322 595 310 604 c 0
 295 615 276 621 253 621 c 0
 229 621 196 602 189 579 c 1
 190 396 l 1
 333 396 l 2
 360 396 377 393 385 388 c 0
 395 381 400 365 400 342 c 2
 400 -146 l 2
 400 -170 387 -182 361 -182 c 0
 337 -182 325 -170 325 -146 c 2
 325 321 l 1
 190 321 l 1xda
EndSplineSet
Validated: 1
EndChar

StartChar: fl
Encoding: 275 64258 130
GlifName: fl
Width: 455
Flags: MW
HStem: -169 21G<387.5 412.5> 321 75<32.5 115 45 115 190 267> 621 75<241 265.5>
VStem: 8 181 114 75<-14.5 -2> 114 191 362 75<571 577 577 581.5>
LayerCount: 2
Back
Fore
SplineSet
45 396 m 2xf2
 115 396 l 1
 115 576 l 2
 115 605 129 633 157 658 c 0
 185 683 217 696 253 696 c 0
 375 696 436 656 437 577 c 2
 438 -132 l 2
 438 -157 425 -169 400 -169 c 0
 375 -169 363 -157 363 -132 c 2
 362 571 l 1
 362 577 l 2
 362 586 350 596 326 606 c 0
 302 616 278 621 253 621 c 0
 229 621 196 602 189 579 c 1xf2
 190 396 l 1
 267 396 l 2
 292 396 305 383 305 358 c 0xe6
 305 333 292 321 267 321 c 2
 190 321 l 1
 189 -2 l 2
 189 -27 177 -40 152 -40 c 0
 127 -40 114 -27 114 -2 c 2xea
 115 321 l 1
 45 321 l 2
 20 321 8 333 8 358 c 0
 8 383 20 396 45 396 c 2xf2
EndSplineSet
Validated: 1
EndChar

StartChar: daggerdbl
Encoding: 276 8225 131
GlifName: daggerdbl
Width: 440
Flags: MW
HStem: -87 125<106 233.5> -37 75<93.5 183 106 183 258 334> 313 75<93.5 183 106 183 258 334> 598 20G<207.5 232.5>
VStem: 69 189<-62.5 13.5> 183 75<-50 -37 -62.5 -37 38 313 388 580> 183 189<-50 13.5 -37 13.5 -11.5 313>
LayerCount: 2
Back
Fore
SplineSet
258 38 m 1xb8
 334 38 l 2
 359 38 372 26 372 1 c 0xb2
 372 -24 359 -37 334 -37 c 2
 258 -37 l 1x78
 258 -50 l 2
 258 -75 246 -87 221 -87 c 0xb8
 196 -87 183 -75 183 -50 c 2
 183 -37 l 1x74
 106 -37 l 2
 81 -37 69 -24 69 1 c 0x78
 69 26 81 38 106 38 c 2
 183 38 l 1
 183 313 l 1xb4
 106 313 l 2
 81 313 69 326 69 351 c 0xb8
 69 376 81 388 106 388 c 2
 183 388 l 1
 183 580 l 2xb4
 183 605 195 618 220 618 c 0
 245 618 258 605 258 580 c 2
 258 388 l 1xb8
 334 388 l 2
 359 388 372 376 372 351 c 0xb2
 372 326 359 313 334 313 c 2
 258 313 l 1
 258 38 l 1xb8
EndSplineSet
Validated: 1
EndChar

StartChar: middot
Encoding: 183 183 132
AltUni2: 002219.ffffffff.0
GlifName: middot
Width: 365
Flags: MW
HStem: 154 135<165 201>
VStem: 118 130<202.5 239.5>
LayerCount: 2
Back
Fore
SplineSet
118 221 m 0
 118 258 147 289 183 289 c 0
 219 289 248 258 248 221 c 0
 248 184 219 154 183 154 c 0
 147 154 118 184 118 221 c 0
EndSplineSet
Validated: 1
EndChar

StartChar: quotesinglbase
Encoding: 277 8218 133
GlifName: quotesinglbase
Width: 276
Flags: MW
HStem: -86 21G<89 105.5> 162 20G<109 160.5>
VStem: 42 185<68.5 111.5 68.5 111.5>
LayerCount: 2
Back
Fore
SplineSet
42 84 m 0
 42 139 83 182 135 182 c 0
 186 182 227 139 227 84 c 0
 227 53 213 18 185 -21 c 0
 154 -64 122 -86 89 -86 c 1
 94 -76 100 -61 106 -41 c 0
 112 -22 115 -8 115 1 c 1
 74 1 42 43 42 84 c 0
EndSplineSet
Validated: 1
EndChar

StartChar: quotedblbase
Encoding: 278 8222 134
GlifName: quotedblbase
Width: 458
Flags: MW
HStem: -86 21G<89 105.5 296 312.5> 1 181<109 115 316.5 322>
VStem: 42 185<68.5 111.5 68.5 111.5> 250 185<68.5 111.5 68.5 111.5>
LayerCount: 2
Back
Fore
SplineSet
42 84 m 0
 42 139 83 182 135 182 c 0
 186 182 227 139 227 84 c 0
 227 53 213 18 185 -21 c 0
 154 -64 122 -86 89 -86 c 1
 94 -76 100 -61 106 -41 c 0
 112 -22 115 -8 115 1 c 1
 74 1 42 43 42 84 c 0
250 84 m 0
 250 139 291 182 342 182 c 0
 393 182 435 139 435 84 c 0
 435 53 421 18 392 -21 c 0
 361 -64 329 -86 296 -86 c 1
 302 -76 308 -61 313 -41 c 0
 319 -22 322 -8 322 1 c 1
 281 1 250 43 250 84 c 0
EndSplineSet
Validated: 1
EndChar

StartChar: perthousand
Encoding: 279 8240 135
GlifName: perthousand
Width: 936
Flags: MW
HStem: -29 21G -7 75<444.5 482.5 444.5 484.5> 224 75<444.5 482.5> 320 77<135 168.5 134.5 172.5> 518 62 571 20G<135 172.5>
VStem: 17 73<441.5 474 441.5 474> 214 77<441.5 474> 318 75<125 166.5> 534 75<125 166.5 125 168> 625 75<124 165.5> 841 75<124 165.5 124 167>
LayerCount: 2
Back
Fore
SplineSet
75 29 m 2xfbf0
 423 562 l 2
 431 574 441 580 454 580 c 0
 474 580 493 563 493 543 c 0
 493 536 491 528 486 521 c 2
 137 -12 l 2
 130 -23 120 -29 107 -29 c 0
 87 -29 68 -12 68 8 c 0
 68 15 70 22 75 29 c 2xfbf0
154 591 m 0xf7f0
 191 591 223 578 250 551 c 0
 277 525 291 493 291 455 c 0
 291 418 277 386 250 359 c 0
 223 333 191 320 154 320 c 0
 116 320 84 333 57 359 c 0
 30 386 17 418 17 455 c 0
 17 493 30 525 57 551 c 0
 84 578 116 591 154 591 c 0xf7f0
152 518 m 0xfbf0
 117 518 90 490 90 458 c 0
 90 425 117 397 152 397 c 0
 185 397 214 425 214 458 c 0
 214 490 185 518 152 518 c 0xfbf0
464 299 m 0
 505 299 539 284 567 253 c 0
 595 223 609 187 609 146 c 0
 609 104 595 68 567 38 c 0
 539 8 505 -7 464 -7 c 0
 423 -7 388 8 360 38 c 0
 332 68 318 104 318 146 c 0
 318 187 332 223 360 253 c 0
 388 284 423 299 464 299 c 0
464 224 m 0
 425 224 393 190 393 146 c 0
 393 102 425 68 464 68 c 0
 501 68 534 102 534 146 c 0
 534 190 501 224 464 224 c 0
770 298 m 0
 811 298 846 283 874 252 c 0
 902 222 916 186 916 145 c 0
 916 103 902 67 874 37 c 0
 846 7 811 -8 770 -8 c 0
 729 -8 695 7 667 37 c 0
 639 67 625 103 625 145 c 0
 625 186 639 222 667 252 c 0
 695 283 729 298 770 298 c 0
770 223 m 0
 733 223 700 189 700 145 c 0
 700 101 733 67 770 67 c 0
 809 67 841 101 841 145 c 0
 841 189 809 223 770 223 c 0
EndSplineSet
Validated: 1
EndChar

StartChar: dotlessi
Encoding: 280 305 136
GlifName: dotlessi
Width: 152
Flags: MW
HStem: -32 21G<61 86> 387 20G<61.5 86.5>
VStem: 37 75<4 370>
LayerCount: 2
Back
Fore
SplineSet
112 370 m 2
 112 4 l 2
 112 -20 99 -32 73 -32 c 0
 49 -32 37 -20 37 4 c 2
 37 370 l 2
 37 395 49 407 74 407 c 0
 99 407 112 395 112 370 c 2
EndSplineSet
Validated: 1
EndChar

StartChar: circumflex
Encoding: 281 710 137
GlifName: circumflex
Width: 591
Flags: MW
HStem: 543 21G<118.5 129> 697 20G<249.5 260.5>
LayerCount: 2
Back
Fore
SplineSet
110 582 m 2
 206 683 l 2
 227 706 244 717 255 717 c 0
 266 717 282 706 303 685 c 2
 396 588 l 2
 401 583 403 578 403 572 c 0
 403 557 395 549 380 549 c 0
 374 549 369 551 364 556 c 2
 256 664 l 1
 142 550 l 2
 137 545 132 543 126 543 c 0
 111 543 103 551 103 566 c 0
 103 572 105 577 110 582 c 2
EndSplineSet
Validated: 1
EndChar

StartChar: tilde
Encoding: 282 732 138
GlifName: tilde
Width: 576
Flags: W
HStem: 510 75<268.624 333.606> 602 77<141.116 197.766>
LayerCount: 2
Back
Fore
SplineSet
48 585 m 0
 77 622 106 668 158 677 c 0
 164 678 170 679 176 679 c 0
 197 679 215 671 232 654 c 0
 237 650 248 635 267 609 c 0
 279 593 290 585 300 585 c 0
 319 585 337 611 388 663 c 0
 395 670 404 673 413 673 c 0
 433 673 451 654 451 634 c 0
 451 623 446 614 437 606 c 0
 418 585 398 565 379 545 c 0
 355 524 332 510 294 510 c 0
 252 510 226 537 200 577 c 0
 189 594 180 602 172 602 c 0
 161 602 146 589 127 563 c 0
 106 536 88 522 71 522 c 0
 50 522 40 535 40 561 c 0
 40 571 43 579 48 585 c 0
EndSplineSet
Validated: 1
EndChar

StartChar: overscore
Encoding: 175 175 139
AltUni2: 0002c9.ffffffff.0
GlifName: overscore
Width: 469
Flags: MW
HStem: 548 75<84.5 377 97 377>
LayerCount: 2
Back
Fore
SplineSet
97 623 m 2
 377 623 l 2
 402 623 414 611 414 586 c 0
 414 561 402 548 377 548 c 2
 97 548 l 2
 72 548 60 561 60 586 c 0
 60 611 72 623 97 623 c 2
EndSplineSet
Validated: 1
EndChar

StartChar: breve
Encoding: 283 728 140
GlifName: breve
Width: 388
Flags: MW
HStem: 432 45<177 214.5 177 223> 557 20G<40.5 51.5>
LayerCount: 2
Back
Fore
SplineSet
65 568 m 0
 114 507 158 477 196 477 c 0
 233 477 273 506 315 564 c 0
 320 571 325 574 332 574 c 0
 348 574 356 567 356 552 c 0
 356 547 354 543 351 538 c 0
 300 467 249 432 197 432 c 0
 144 432 89 468 30 540 c 0
 27 545 25 549 25 554 c 0
 25 569 33 577 48 577 c 0
 55 577 60 574 65 568 c 0
EndSplineSet
Validated: 1
EndChar

StartChar: dotaccent
Encoding: 284 729 141
GlifName: dotaccent
Width: 423
Flags: MW
HStem: 612 115<194.5 228.5>
VStem: 150 123<654 685.5>
LayerCount: 2
Back
Fore
SplineSet
150 670 m 0
 150 701 178 727 211 727 c 0
 246 727 273 701 273 670 c 0
 273 638 246 612 211 612 c 0
 178 612 150 638 150 670 c 0
EndSplineSet
Validated: 1
EndChar

StartChar: ring
Encoding: 285 730 142
GlifName: ring
Width: 591
Flags: MW
HStem: 629 45<283 307.5 283 320.5> 765 46<283 307.5>
VStem: 205 45<707.5 732 707.5 744.5> 341 45<707.5 732.5>
LayerCount: 2
Back
Fore
SplineSet
295 674 m 0
 320 674 341 695 341 720 c 0
 341 745 320 765 295 765 c 0
 271 765 250 744 250 720 c 0
 250 695 271 674 295 674 c 0
295 629 m 0
 246 629 205 669 205 720 c 0
 205 769 246 811 295 811 c 0
 346 811 386 769 386 720 c 0
 386 669 346 629 295 629 c 0
EndSplineSet
Validated: 1
EndChar

StartChar: cedilla
Encoding: 184 184 143
GlifName: cedilla
Width: 230
Flags: MW
HStem: -226 50<102 125.5 102 138.5> -176 74<102.5 123.5 102.5 125.5> -12 20G<135 135>
VStem: 23 50<-148 -129.5 -148 -129.5> 85 120<-162.5 -76.5> 155 50<-148 -128.5>
LayerCount: 2
Back
Fore
SplineSet
181 -17 m 1x78
 152 -61 l 1
 187 -76 205 -102 205 -138 c 0
 205 -187 163 -226 114 -226 c 0
 63 -226 23 -187 23 -138 c 0
 23 -121 31 -113 48 -113 c 0
 65 -113 73 -121 73 -138 c 0
 73 -158 90 -176 114 -176 c 0
 137 -176 155 -158 155 -138 c 0xb4
 155 -119 136 -102 111 -102 c 0
 94 -102 85 -96 85 -84 c 0
 85 -69 102 -39 135 8 c 1
 181 -17 l 1x78
EndSplineSet
Validated: 1
EndChar

StartChar: hungarumlaut
Encoding: 286 733 144
GlifName: hungarumlaut
Width: 354
Flags: MW
HStem: 480 21G<183.5 195> 489 187<68 172>
LayerCount: 2
Back
Fore
SplineSet
184 641 m 2x40
 94 499 l 2
 90 492 84 489 76 489 c 0
 60 489 52 496 52 511 c 0
 52 515 53 519 56 524 c 2
 146 665 l 2
 151 672 157 676 164 676 c 0
 180 676 188 668 188 653 c 0
 188 649 187 645 184 641 c 2x40
299 632 m 2
 210 491 l 2
 205 484 199 480 191 480 c 0x80
 176 480 168 487 168 502 c 0
 168 507 169 511 172 515 c 2
 261 656 l 2
 266 663 272 667 279 667 c 0
 295 667 303 660 303 645 c 0
 303 640 302 636 299 632 c 2
EndSplineSet
Validated: 1
EndChar

StartChar: ogonek
Encoding: 287 731 145
GlifName: ogonek
Width: 221
Flags: W
HStem: -155 46<98.6686 147.29>
VStem: 52 45<-108.299 -10.0069>
LayerCount: 2
Back
Fore
SplineSet
111 -109 m 0
 116 -109 126 -103 142 -91 c 0
 146 -87 151 -85 156 -85 c 0
 171 -85 178 -93 178 -109 c 0
 178 -116 175 -121 169 -126 c 0
 144 -145 124 -155 110 -155 c 0
 88 -155 52 -128 52 -82 c 0
 52 -50 67 7 91 7 c 0
 107 7 115 -1 115 -16 c 0
 115 -26 97 -59 97 -78 c 0
 97 -89 106 -109 111 -109 c 0
EndSplineSet
Validated: 1
EndChar

StartChar: caron
Encoding: 288 711 146
GlifName: caron
Width: 388
Flags: MW
HStem: 396 21G<182.5 196> 590 20G<41 56 323 338>
LayerCount: 2
Back
Fore
SplineSet
78 598 m 2
 189 486 l 1
 301 598 l 2
 309 606 318 610 328 610 c 0
 348 610 366 591 366 571 c 0
 366 562 362 553 354 545 c 2
 247 434 l 2
 222 409 203 396 189 396 c 0
 176 396 157 409 132 434 c 2
 25 545 l 2
 17 553 13 562 13 571 c 0
 13 591 31 610 51 610 c 0
 61 610 70 606 78 598 c 2
EndSplineSet
Validated: 1
EndChar

StartChar: Lslash
Encoding: 289 321 147
GlifName: L_slash
Width: 455
Flags: MW
HStem: -2 75<107.5 139 120 139 214 397> 556 75<99.5 247 112 139 214 247 214 214>
VStem: 13 201<255.5 272> 74 140 139 75<73 277 277 277 416 556> 139 145<367 605.5 556 605.5> 139 192<73 432 277 432 415.5 432 415.5 556 415.5 556>
LayerCount: 2
Back
Fore
SplineSet
214 556 m 1xd0
 214 416 l 1xd0
 273 454 l 2
 280 459 287 461 294 461 c 0
 314 461 331 442 331 422 c 0xc2
 331 409 325 399 314 392 c 2
 214 327 l 1
 214 73 l 1
 397 73 l 2
 422 73 435 60 435 35 c 0
 435 10 422 -2 397 -2 c 2
 120 -2 l 2
 95 -2 83 10 83 35 c 0
 83 60 95 72 120 73 c 2
 139 73 l 1
 139 277 l 1xc8
 71 233 l 2
 64 228 57 226 50 226 c 0
 30 226 13 245 13 266 c 0xe0
 13 278 19 288 30 296 c 2
 139 367 l 1
 139 556 l 1xc8
 112 556 l 2
 87 556 74 568 74 593 c 0xd0
 74 618 87 631 112 631 c 2
 247 631 l 2
 272 631 284 618 284 593 c 0xc4
 284 568 272 556 247 556 c 2
 214 556 l 1xd0
EndSplineSet
Validated: 1
EndChar

StartChar: lslash
Encoding: 290 322 148
GlifName: lslash
Width: 379
Flags: MW
HStem: 1 75<38.5 139 51 139 214 322> 555 75<35.5 319 48 139 214 214 214 319>
VStem: 11 203 139 75<76 299 299 299 434 555> 139 198<76 453 299 453 436.5 453 436.5 555 436.5 555> 139 218<389 604.5 555 604.5>
LayerCount: 2
Back
Fore
SplineSet
214 434 m 1xe0
 279 476 l 2
 286 481 292 483 299 483 c 0
 320 483 337 463 337 443 c 0xc8
 337 430 331 420 319 413 c 2
 214 347 l 1
 214 76 l 1
 322 76 l 2
 347 76 360 64 360 39 c 0
 360 14 347 1 322 1 c 2
 51 1 l 2
 26 1 14 14 14 39 c 0
 14 64 26 76 51 76 c 2
 139 76 l 1
 139 299 l 1
 68 254 l 2
 61 250 54 248 47 248 c 0
 27 248 10 267 10 287 c 0
 10 300 16 310 28 317 c 2
 139 389 l 1
 139 555 l 1xd0
 48 555 l 2
 23 555 11 567 11 592 c 0xe0
 11 617 23 630 48 630 c 2
 319 630 l 2
 344 630 357 617 357 592 c 0xc4
 357 567 344 555 319 555 c 2
 214 555 l 1
 214 434 l 1xe0
EndSplineSet
Validated: 1
EndChar

StartChar: Eth
Encoding: 208 208 149
GlifName: E_th
Width: 563
Flags: W
HStem: -191 75<64.4219 245.048> 253 75<13.2656 151 227 337.734> 527 75<44.4219 152 227 325.661>
VStem: 152 75<-34.4412 253 328 525> 472 75<108.898 391.352>
LayerCount: 2
Back
Fore
SplineSet
152 2 m 2
 151 253 l 1
 48 253 l 2
 23 253 11 266 11 291 c 0
 11 316 23 328 48 328 c 2
 152 328 l 1
 152 527 l 1
 80 527 l 2
 55 527 42 539 42 564 c 0
 42 589 55 602 80 602 c 2
 153 602 l 1
 157 621 169 631 190 631 c 0
 211 631 224 621 227 600 c 1
 435 587 547 481 547 264 c 0
 547 -45 411 -191 100 -191 c 0
 75 -191 62 -179 62 -154 c 0
 62 -129 75 -116 100 -116 c 0
 348 -115 472 13 472 270 c 0
 472 429 390 514 227 525 c 1
 227 328 l 1
 303 328 l 2
 328 328 340 316 340 291 c 0
 340 266 328 253 303 253 c 2
 227 253 l 1
 227 0 l 2
 227 -25 215 -37 190 -37 c 0
 165 -37 152 -24 152 2 c 2
EndSplineSet
Validated: 1
EndChar

StartChar: eth
Encoding: 240 240 150
GlifName: eth
Width: 509
Flags: MW
HStem: -63 77<201.5 235 201.5 239> 640 20G<305.5 320.5>
VStem: 19 74<106.5 136 106.5 154.5> 383 72<164 203.5 140.5 234.5>
LayerCount: 2
Back
Fore
SplineSet
313 40 m 0
 360 67 383 122 383 206 c 0
 383 263 373 311 352 350 c 1
 347 345 341 341 334 338 c 0
 276 320 233 302 204 284 c 0
 175 266 149 240 125 207 c 0
 104 178 93 150 93 122 c 0
 93 91 105 66 129 45 c 0
 154 24 184 14 219 14 c 0
 251 14 282 23 313 40 c 0
349 -25 m 0
 305 -50 261 -63 217 -63 c 0
 160 -63 113 -44 75 -7 c 0
 38 30 19 74 19 127 c 0
 19 182 41 233 85 280 c 0
 135 335 209 378 308 409 c 1
 286 432 256 456 218 481 c 1
 135 399 l 2
 128 391 119 387 109 387 c 0
 89 387 71 406 71 426 c 0
 71 436 75 445 83 452 c 2
 154 523 l 1
 101 555 77 564 77 589 c 0
 77 609 94 628 114 628 c 0
 121 628 128 626 135 622 c 0
 170 599 195 584 209 575 c 1
 285 648 l 2
 292 656 301 660 310 660 c 0
 331 660 349 641 349 621 c 0
 349 611 345 602 337 595 c 2
 272 535 l 1
 385 457 445 368 452 267 c 0
 454 237 455 213 455 194 c 0
 455 87 420 14 349 -25 c 0
EndSplineSet
Validated: 1
EndChar

StartChar: Scaron
Encoding: 291 352 151
GlifName: S_caron
Width: 424
Flags: W
HStem: -32 67<164.585 292.786> 544 75<113.236 237.994> 633 21G<198.5 212>
VStem: 6 76<410.081 514.7> 30 74<109.08 194.057> 280 72<439.196 497.476> 321 75<62.0362 175.562>
LayerCount: 2
Back
Fore
SplineSet
280 458 m 0xf4
 255 515 225 544 189 544 c 0
 124 544 82 513 82 461 c 0xf4
 82 382 226 329 285 286 c 0
 359 232 396 175 396 115 c 0
 396 21 308 -32 221 -32 c 0
 115 -32 30 57 30 161 c 0
 30 182 48 198 69 198 c 0
 88 198 99 188 104 169 c 0
 126 80 167 35 226 35 c 0
 282 35 321 66 321 118 c 0xea
 321 191 235 232 163 270 c 0
 77 316 6 353 6 460 c 0
 6 557 84 619 183 619 c 0
 241 619 352 553 352 472 c 0
 352 451 333 435 313 435 c 0
 298 435 287 443 280 458 c 0xf4
94 835 m 2
 205 723 l 1
 317 835 l 2
 325 843 334 847 344 847 c 0
 364 847 382 828 382 808 c 0
 382 799 378 790 370 782 c 2
 263 671 l 2
 238 646 219 633 205 633 c 0
 192 633 173 646 148 671 c 2
 41 782 l 2
 33 790 29 799 29 808 c 0
 29 828 47 847 67 847 c 0
 77 847 86 843 94 835 c 2
EndSplineSet
Validated: 1
EndChar

StartChar: scaron
Encoding: 292 353 152
GlifName: scaron
Width: 368
Flags: W
HStem: -34 74<149.414 269.497> 140 74<90.2314 270.107> 324 75<103.711 245.363>
VStem: 9 75<222.937 303.327> 279 74<49.7459 133.273>
LayerCount: 2
Back
Fore
SplineSet
89 575 m 2
 185 494 l 1
 281 575 l 2
 288 580 295 583 303 583 c 0
 320 583 336 571 336 556 c 0
 336 549 333 542 326 537 c 2
 234 456 l 2
 213 438 197 429 185 429 c 0
 173 429 157 438 136 456 c 2
 44 537 l 2
 37 542 34 549 34 556 c 0
 34 571 50 583 67 583 c 0
 75 583 82 580 89 575 c 2
EndSplineSet
Refer: 83 115 N 1 0 0 1 0 0 2
Validated: 1
EndChar

StartChar: Yacute
Encoding: 221 221 153
GlifName: Y_acute
Width: 485
Flags: MW
HStem: -34 21G<239 264> 620 20G<195.5 204.5> 635 20G<41.5 57.5 421.5 438> 822 20G<291.5 299.5>
VStem: 215 75<2 5 5 324 324 324>
LayerCount: 2
Back
Fore
SplineSet
215 2 m 2xb8
 215 324 l 1
 201 337 177 369 143 419 c 0
 92 494 51 553 20 595 c 0
 15 602 12 610 12 617 c 0
 12 638 31 655 52 655 c 0
 63 655 73 650 81 639 c 2
 250 410 l 1
 398 638 l 2
 405 649 415 655 428 655 c 0
 448 655 467 638 467 618 c 0
 467 611 465 604 460 597 c 0
 434 556 398 497 353 422 c 0
 323 371 302 339 290 326 c 1
 290 5 l 2
 290 -21 277 -34 251 -34 c 0
 227 -34 215 -22 215 2 c 2xb8
188 680 m 2
 284 837 l 2
 286 840 289 842 294 842 c 0
 305 842 318 834 333 817 c 0
 349 800 357 786 357 775 c 0
 357 770 356 767 353 764 c 2
 218 646 l 2
 213 642 207 640 202 640 c 0xd8
 189 640 183 648 183 663 c 0
 183 669 185 675 188 680 c 2
EndSplineSet
Validated: 1
EndChar

StartChar: yacute
Encoding: 253 253 154
GlifName: yacute
Width: 509
Flags: MW
HStem: -230 75<251.5 281 251.5 288> -82 74<170.5 197.5> 50 74<359 392> 550 20G<359.5 367.5>
VStem: 149 75<291.5 332 332 345.5> 391 75<-91 -86>
LayerCount: 2
Back
Fore
SplineSet
391 -86 m 2
 392 50 l 1
 311 51 254 59 219 74 c 0
 172 95 149 134 149 191 c 2
 149 332 l 2
 149 359 162 372 188 372 c 0
 212 372 224 359 224 332 c 0
 224 251 226 201 230 181 c 0
 236 152 251 135 274 129 c 0
 287 126 326 124 392 124 c 1
 391 329 l 2
 391 354 404 367 429 367 c 0
 454 367 466 354 466 329 c 2
 466 -86 l 2
 466 -123 445 -156 403 -185 c 0
 361 -215 314 -230 262 -230 c 0
 213 -230 168 -221 126 -204 c 0
 70 -181 42 -149 42 -106 c 0
 42 -71 58 -46 90 -29 c 0
 117 -15 150 -8 191 -8 c 0
 221 -8 247 -11 270 -18 c 0
 287 -23 296 -35 296 -53 c 0
 296 -73 281 -92 260 -92 c 0
 256 -92 252 -91 248 -90 c 0
 231 -85 210 -82 185 -82 c 0
 148 -82 125 -90 117 -106 c 1
 117 -121 139 -133 182 -143 c 0
 215 -151 241 -155 262 -155 c 0
 300 -155 332 -145 359 -125 c 0
 380 -109 391 -96 391 -86 c 2
256 408 m 2
 352 565 l 2
 354 568 357 570 362 570 c 0
 373 570 386 562 401 545 c 0
 417 528 425 514 425 503 c 0
 425 498 424 495 421 492 c 2
 286 374 l 2
 281 370 275 368 270 368 c 0
 257 368 251 376 251 391 c 0
 251 397 253 403 256 408 c 2
EndSplineSet
Validated: 1
EndChar

StartChar: Thorn
Encoding: 222 222 155
GlifName: T_horn
Width: 411
Flags: MW
HStem: -34 21G<64.5 89.5> 158 75<226 260 226 280.5> 404 75<210 236.5 210 245> 404 224<64.5 245>
VStem: 40 75<4 159 234 405 480 590> 315 75<285 340.5 262.5 344.5>
LayerCount: 2
Back
Fore
SplineSet
115 405 m 1xec
 115 234 l 1
 226 233 l 2
 294 233 315 255 315 315 c 0
 315 374 280 404 210 404 c 2
 115 405 l 1xec
115 159 m 1
 115 4 l 2
 115 -21 102 -34 77 -34 c 0
 52 -34 40 -21 40 4 c 2
 40 590 l 2
 40 615 52 628 77 628 c 0xdc
 102 628 115 615 115 590 c 2
 115 480 l 1
 210 479 l 2
 263 479 306 465 339 437 c 0
 373 407 390 366 390 315 c 0
 390 210 335 158 226 158 c 2
 115 159 l 1
EndSplineSet
Validated: 1
EndChar

StartChar: thorn
Encoding: 254 254 156
GlifName: thorn
Width: 411
Flags: MW
HStem: -161 21G<64.5 89.5> 41 75<115 233 115 233> 347 75<115 218 115 218> 608 20G<64.5 89.5>
VStem: 40 75<-123 41 116 347 422 590> 319 72<201 241.5>
LayerCount: 2
Back
Fore
SplineSet
115 41 m 1
 115 -123 l 2
 115 -148 102 -161 77 -161 c 0
 52 -161 40 -148 40 -123 c 2
 40 590 l 2
 40 615 52 628 77 628 c 0
 102 628 115 615 115 590 c 2
 115 422 l 1
 218 422 l 2
 269 422 311 403 343 366 c 0
 375 329 391 283 391 228 c 0
 391 174 378 130 352 96 c 0
 323 59 284 41 233 41 c 2
 115 41 l 1
115 116 m 1
 233 116 l 2
 290 116 319 153 319 226 c 0
 319 257 311 284 296 307 c 0
 277 334 251 347 218 347 c 2
 115 347 l 1
 115 116 l 1
EndSplineSet
Validated: 1
EndChar

StartChar: Zcaron
Encoding: 293 381 157
GlifName: Z_caron
Width: 561
Flags: MW
HStem: -5 75<77.5 498 164 498 164 498> 534 75<32.5 472 45 400> 613 20G<264.5 278> 827 20G<123 138 405 420>
LayerCount: 2
Back
Fore
SplineSet
45 609 m 2
 472 609 l 2
 499 609 513 598 513 577 c 0
 513 568 510 559 503 550 c 2
 164 70 l 1
 498 70 l 2
 523 70 535 57 535 32 c 0
 535 7 523 -5 498 -5 c 2
 91 -5 l 2
 64 -5 51 6 51 27 c 0
 51 36 54 45 61 54 c 2
 400 534 l 1
 45 534 l 2
 20 534 8 547 8 572 c 0
 8 597 20 609 45 609 c 2
160 835 m 2
 271 723 l 1
 383 835 l 2
 391 843 400 847 410 847 c 0
 430 847 448 828 448 808 c 0
 448 799 444 790 436 782 c 2
 329 671 l 2
 304 646 285 633 271 633 c 0
 258 633 239 646 214 671 c 2
 107 782 l 2
 99 790 95 799 95 808 c 0
 95 828 113 847 133 847 c 0
 143 847 152 843 160 835 c 2
EndSplineSet
Validated: 1
EndChar

StartChar: zcaron
Encoding: 294 382 158
GlifName: zcaron
Width: 440
Flags: MW
HStem: -28 75<154 391 154 391> 318 75<29.5 360 42 280> 563 20G<100.5 113 341 354.5>
LayerCount: 2
Back
Fore
SplineSet
42 393 m 2
 360 393 l 2
 387 393 401 382 401 361 c 0
 401 351 397 341 388 331 c 2
 154 47 l 1
 391 47 l 2
 416 47 429 34 429 9 c 0
 429 -16 416 -28 391 -28 c 2
 74 -28 l 2
 47 -28 33 -18 33 3 c 0
 33 13 37 23 45 33 c 2
 280 318 l 1
 42 318 l 2
 17 318 5 330 5 355 c 0
 5 380 17 393 42 393 c 2
131 575 m 2
 227 494 l 1
 323 575 l 2
 330 580 337 583 345 583 c 0
 364 583 379 571 379 556 c 0
 379 549 376 542 369 537 c 2
 277 456 l 2
 256 438 239 429 227 429 c 0
 215 429 199 438 178 456 c 2
 86 537 l 2
 79 542 76 549 76 556 c 0
 76 571 92 583 109 583 c 0
 117 583 124 580 131 575 c 2
EndSplineSet
Validated: 1
EndChar

StartChar: onehalf
Encoding: 189 189 159
GlifName: onehalf
Width: 408
Flags: W
HStem: 119 27<192 302.982> 318 26<169.069 240.951> 361 25<24.0117 393.988> 424 30<118.004 192 229 312.996>
VStem: 118 34<257.003 305.07> 192 37<409.004 424 454 630> 255 34<223.626 307.576>
LayerCount: 2
Back
Fore
SplineSet
192 454 m 1
 192 630 l 1
 142 588 l 2
 138 585 133 583 128 583 c 0
 115 583 109 588 109 598 c 0
 109 602 111 605 115 608 c 2
 191 672 l 2
 200 680 208 684 216 684 c 0
 225 684 229 679 229 669 c 2
 229 454 l 1
 295 455 l 2
 307 455 313 450 313 439 c 0
 313 429 307 424 295 424 c 2
 228 424 l 1
 228 414 222 409 210 409 c 0
 198 409 192 414 192 424 c 1
 137 424 l 2
 124 424 118 429 118 439 c 0
 118 450 124 455 137 455 c 2
 192 454 l 1
36 386 m 2
 382 386 l 2
 390 386 394 382 394 373 c 0
 394 364 390 361 382 361 c 2
 36 361 l 2
 28 361 24 365 24 373 c 0
 24 382 28 386 36 386 c 2
118 101 m 2
 115 99 111 98 108 98 c 0
 97 98 91 103 91 112 c 0
 91 115 93 119 97 122 c 2
 199 186 l 1
 236 214 255 240 255 265 c 0
 255 299 237 318 205 318 c 0
 177 318 152 298 152 270 c 0
 152 261 146 257 135 257 c 0
 124 257 118 261 118 270 c 0
 118 293 127 311 146 325 c 0
 162 338 182 344 205 344 c 0
 226 344 245 338 260 327 c 0
 278 313 289 293 289 265 c 0
 289 202 245 178 192 146 c 1
 286 146 l 2
 297 146 303 142 303 133 c 0
 303 124 297 119 286 119 c 2
 148 119 l 1
 118 101 l 2
EndSplineSet
Validated: 1
EndChar

StartChar: onequarter
Encoding: 188 188 160
GlifName: onequarter
Width: 408
Flags: W
HStem: 170 33<130 202 251 332.996> 361 25<24.0117 393.988> 424 30<118.004 192 229 312.996>
VStem: 192 37<409.004 424 454 630> 202 49<39.0701 170 203 269>
LayerCount: 2
Back
Fore
SplineSet
192 454 m 1xf0
 192 630 l 1
 142 588 l 2
 138 585 133 583 128 583 c 0
 115 583 109 588 109 598 c 0
 109 602 111 605 115 608 c 2
 191 672 l 2
 200 680 208 684 216 684 c 0
 225 684 229 679 229 669 c 2
 229 454 l 1
 295 455 l 2
 307 455 313 450 313 439 c 0
 313 429 307 424 295 424 c 2
 228 424 l 1
 228 414 222 409 210 409 c 0
 198 409 192 414 192 424 c 1
 137 424 l 2
 124 424 118 429 118 439 c 0
 118 450 124 455 137 455 c 2
 192 454 l 1xf0
130 203 m 1
 202 203 l 1
 202 269 l 1xe8
 130 203 l 1
251 314 m 2
 251 203 l 1
 315 203 l 2
 328 203 333 197 333 186 c 0
 333 175 328 170 315 170 c 2
 251 170 l 1
 251 56 l 2
 251 45 243 39 227 39 c 0
 210 39 202 45 202 56 c 2
 202 170 l 1
 81 170 l 2
 64 170 55 175 55 184 c 0
 55 188 57 192 62 197 c 2
 199 320 l 2
 209 329 219 333 230 333 c 0
 244 333 251 327 251 314 c 2
36 386 m 2
 382 386 l 2
 390 386 394 382 394 373 c 0
 394 364 390 361 382 361 c 2
 36 361 l 2
 28 361 24 365 24 373 c 0
 24 382 28 386 36 386 c 2
EndSplineSet
Validated: 1
EndChar

StartChar: onesuperior
Encoding: 185 185 161
GlifName: onesuperior
Width: 408
Flags: MW
HStem: 409 21G<204 216> 424 30<137 192> 664 20G<212 220.5>
VStem: 118 111<434 669> 192 37<419 669 454 630 630 630>
LayerCount: 2
Back
Fore
SplineSet
192 454 m 1x68
 192 630 l 1x68
 142 588 l 2
 138 585 133 583 128 583 c 0
 115 583 109 588 109 598 c 0
 109 602 111 605 115 608 c 2
 191 672 l 2
 200 680 208 684 216 684 c 0
 225 684 229 679 229 669 c 2
 229 454 l 1
 295 455 l 2
 307 455 313 450 313 439 c 0
 313 429 307 424 295 424 c 2
 228 424 l 1x70
 228 414 222 409 210 409 c 0xb0
 198 409 192 414 192 424 c 1x68
 137 424 l 2
 124 424 118 429 118 439 c 0x70
 118 450 124 455 137 455 c 2
 192 454 l 1x68
EndSplineSet
Validated: 1
EndChar

StartChar: threequarters
Encoding: 190 190 162
GlifName: threequarters
Width: 408
Flags: W
HStem: 170 33<130 202 251 332.996> 361 25<24.0117 393.988> 400 27<146.822 236.858> 512 28<152.072 212.828> 609 27<133.16 218.009>
VStem: 202 49<39.0701 170 203 269> 222 34<546.647 605.719> 247 33<435.904 493.67>
LayerCount: 2
Back
Fore
SplineSet
130 203 m 1xfc
 202 203 l 1
 202 269 l 1
 130 203 l 1xfc
251 314 m 2
 251 203 l 1
 315 203 l 2
 328 203 333 197 333 186 c 0
 333 175 328 170 315 170 c 2
 251 170 l 1
 251 56 l 2
 251 45 243 39 227 39 c 0
 210 39 202 45 202 56 c 2
 202 170 l 1
 81 170 l 2
 64 170 55 175 55 184 c 0
 55 188 57 192 62 197 c 2
 199 320 l 2
 209 329 219 333 230 333 c 0
 244 333 251 327 251 314 c 2
36 386 m 2
 382 386 l 2
 390 386 394 382 394 373 c 0
 394 364 390 361 382 361 c 2
 36 361 l 2
 28 361 24 365 24 373 c 0
 24 382 28 386 36 386 c 2
139 600 m 0
 128 600 122 605 122 614 c 0
 122 619 126 623 133 626 c 0
 153 633 171 636 187 636 c 0
 231 636 256 610 256 578 c 0xfa
 256 558 248 541 232 528 c 1
 264 513 280 492 280 465 c 0
 280 424 240 400 196 400 c 0
 150 400 118 416 100 448 c 0
 99 450 98 452 98 454 c 0
 98 463 104 467 115 467 c 0
 122 467 127 464 130 459 c 0
 143 438 163 427 191 427 c 0
 223 427 247 438 247 464 c 0xf9
 247 486 221 507 192 511 c 0
 182 511 175 511 170 512 c 0
 158 513 152 517 152 525 c 0
 152 540 177 540 189 540 c 0
 211 545 222 559 222 580 c 0xfa
 222 599 210 609 185 609 c 0
 174 609 148 600 139 600 c 0
EndSplineSet
Validated: 1
EndChar

StartChar: threesuperior
Encoding: 179 179 163
GlifName: threesuperior
Width: 408
Flags: W
HStem: 400 27<146.822 236.858> 512 28<152.072 212.828> 609 27<133.16 218.009>
VStem: 222 34<546.647 605.719> 247 33<435.904 493.67>
LayerCount: 2
Back
Fore
SplineSet
139 600 m 0xf0
 128 600 122 605 122 614 c 0
 122 619 126 623 133 626 c 0
 153 633 171 636 187 636 c 0
 231 636 256 610 256 578 c 0xf0
 256 558 248 541 232 528 c 1
 264 513 280 492 280 465 c 0
 280 424 240 400 196 400 c 0
 150 400 118 416 100 448 c 0
 99 450 98 452 98 454 c 0
 98 463 104 467 115 467 c 0
 122 467 127 464 130 459 c 0
 143 438 163 427 191 427 c 0
 223 427 247 438 247 464 c 0xe8
 247 486 221 507 192 511 c 0
 182 511 175 511 170 512 c 0
 158 513 152 517 152 525 c 0
 152 540 177 540 189 540 c 0
 211 545 222 559 222 580 c 0
 222 599 210 609 185 609 c 0
 174 609 148 600 139 600 c 0xf0
EndSplineSet
Validated: 1
EndChar

StartChar: twosuperior
Encoding: 178 178 164
GlifName: twosuperior
Width: 408
Flags: W
HStem: 430 26<194 307.996> 623 26<169.612 244.304>
VStem: 118 35<564.003 610.061> 259 35<531.773 612.458>
LayerCount: 2
Back
Fore
SplineSet
149 430 m 1
 119 412 l 2
 115 410 111 409 108 409 c 0
 96 409 90 414 90 423 c 0
 90 426 92 429 97 432 c 0
 166 473 200 494 201 495 c 0
 239 522 259 548 259 573 c 0
 259 606 239 623 207 623 c 0
 179 623 153 605 153 577 c 0
 153 568 147 564 136 564 c 0
 124 564 118 568 118 577 c 0
 118 621 160 649 208 649 c 0
 256 649 294 621 294 569 c 0
 294 547 285 527 269 510 c 0
 255 495 230 477 194 456 c 1
 291 456 l 2
 302 456 308 452 308 443 c 0
 308 434 302 430 291 430 c 2
 149 430 l 1
EndSplineSet
Validated: 1
EndChar

StartChar: brokenbar
Encoding: 166 166 165
GlifName: brokenbar
Width: 235
Flags: MW
HStem: 24 21G<104.5 129.5> 678 20G<104.5 129.5>
VStem: 80 75<61 321 433 661>
LayerCount: 2
Back
Fore
SplineSet
155 661 m 2
 155 433 l 2
 155 408 142 396 117 396 c 0
 92 396 80 408 80 433 c 2
 80 661 l 2
 80 686 92 698 117 698 c 0
 142 698 155 686 155 661 c 2
155 321 m 2
 155 61 l 2
 155 36 142 24 117 24 c 0
 92 24 80 36 80 61 c 2
 80 321 l 2
 80 346 92 358 117 358 c 0
 142 358 155 346 155 321 c 2
EndSplineSet
Validated: 1
EndChar

StartChar: minus
Encoding: 295 8722 166
GlifName: minus
Width: 504
Flags: MW
HStem: 191 75<75.5 416 88 416>
LayerCount: 2
Back
Fore
SplineSet
88 266 m 2
 416 266 l 2
 441 266 454 253 454 228 c 0
 454 203 441 191 416 191 c 2
 88 191 l 2
 63 191 50 203 50 228 c 0
 50 253 63 266 88 266 c 2
EndSplineSet
Validated: 1
EndChar

StartChar: multiply
Encoding: 215 215 167
GlifName: multiply
Width: 636
Flags: MW
HStem: 85 21G<95 110.5 525.5 541> 635 20G<518 535.5> 637 20G<95 110.5>
LayerCount: 2
Back
Fore
SplineSet
316 432 m 1xa0
 494 641 l 2
 502 650 512 655 524 655 c 0xc0
 547 655 569 637 569 616 c 0
 569 609 566 602 560 595 c 2
 369 371 l 1
 560 148 l 2
 567 140 570 132 570 123 c 0
 570 103 551 85 531 85 c 0
 520 85 511 90 503 99 c 2
 318 314 l 1
 133 99 l 2
 125 90 116 85 105 85 c 0
 85 85 67 103 67 123 c 0
 67 132 70 140 76 148 c 2
 268 374 l 1
 76 595 l 2
 70 602 67 610 67 619 c 0
 67 639 85 657 105 657 c 0
 116 657 125 653 133 644 c 2
 316 432 l 1xa0
EndSplineSet
Validated: 1
EndChar

StartChar: Adieresis
Encoding: 196 196 168
GlifName: A_dieresis
Width: 509
Flags: W
HStem: 241 75<41.2656 82 157 348> 503 75<18.2656 82 157 330.585> 672 107<76.929 157.996 288.586 367.078>
VStem: 66 103<681.854 768.808> 82 75<-36.7344 241 316 503 578 624.479> 276 104<685.609 770.391> 348 75<-198.578 241 316 485.389>
LayerCount: 2
Back
Fore
SplineSet
66 725 m 0xf0
 66 754 89 779 117 779 c 0
 146 779 169 754 169 725 c 0
 169 696 146 672 117 672 c 0
 89 672 66 696 66 725 c 0xf0
276 728 m 0xe4
 276 757 299 781 328 781 c 0
 356 781 380 757 380 728 c 0
 380 699 356 675 328 675 c 0
 299 675 276 699 276 728 c 0xe4
EndSplineSet
Refer: 33 65 N 1 0 0 1 0 0 2
Validated: 1
EndChar

StartChar: Aring
Encoding: 197 197 169
GlifName: A_ring
Width: 509
Flags: W
HStem: 241 75<41.2656 82 157 348> 503 75<18.2656 82 157 330.585> 629 45<235.783 311.211> 765 46<235.783 311.507>
VStem: 82 75<-36.7344 241 316 503 578 624.479> 183 45<681.789 757.304> 319 45<681.789 757.428> 348 75<-198.578 241 316 485.389>
LayerCount: 2
Back
Fore
SplineSet
273 674 m 0xfe
 298 674 319 695 319 720 c 0
 319 745 298 765 273 765 c 0
 249 765 228 744 228 720 c 0
 228 695 249 674 273 674 c 0xfe
273 629 m 0
 224 629 183 669 183 720 c 0
 183 769 224 811 273 811 c 0
 324 811 364 769 364 720 c 0
 364 669 324 629 273 629 c 0
EndSplineSet
Refer: 33 65 S 1 0 0 1 0 0 2
Validated: 1
EndChar

StartChar: Ccedilla
Encoding: 199 199 170
GlifName: C_cedilla
Width: 509
Flags: MW
HStem: -256 50<87.5 111 87.5 124.5> -132 144<88 264> -63 75<232.5 264 197 297> 473 162<220.5 417> 560 75<234 280>
VStem: 14 44 14 75<205.5 320 191.5 327.5> 70 121<-191.5 -105.5> 141 50<-177.5 -157.5>
LayerCount: 2
Back
Fore
SplineSet
247 -63 m 0xca80
 218 -63 190 -57 163 -46 c 1
 137 -90 l 1
 173 -105 191 -131 191 -167 c 0
 191 -216 150 -256 99 -256 c 0
 50 -256 8 -216 8 -167 c 0
 8 -150 16 -142 33 -142 c 0
 50 -142 58 -150 58 -167 c 0
 58 -188 76 -206 99 -206 c 0
 123 -206 141 -188 141 -167 c 0xb480
 141 -148 122 -132 97 -132 c 0
 79 -132 70 -126 70 -113 c 0
 70 -98 87 -68 120 -22 c 1
 49 34 14 134 14 277 c 0
 14 378 35 461 76 527 c 0
 121 599 182 635 259 635 c 0
 325 635 384 601 437 534 c 0
 443 527 446 519 446 511 c 0
 446 490 427 473 407 473 c 0xd5
 396 473 386 478 378 488 c 0
 341 536 301 560 259 560 c 0
 209 560 168 534 136 483 c 0
 105 432 89 363 89 277 c 0
 89 106 147 12 247 12 c 0
 281 12 308 16 328 24 c 0
 357 35 380 55 397 84 c 0
 404 96 415 102 428 102 c 0
 448 102 467 86 467 65 c 0
 467 58 465 52 462 45 c 0
 419 -27 347 -63 247 -63 c 0xca80
EndSplineSet
Validated: 1
EndChar

StartChar: Ntilde
Encoding: 209 209 172
GlifName: N_tilde
Width: 416
Flags: MW
HStem: -200 21G<55 80> 664 45<282.5 298.5 282.5 306.5> 664 118
VStem: 31 75<-164 -161 -161 372 527 588> 287 75<-7 3>
LayerCount: 2
Back
Fore
SplineSet
288 45 m 1xd8
 106 372 l 1
 106 -161 l 2
 106 -187 93 -200 67 -200 c 0
 43 -200 31 -188 31 -164 c 2
 31 588 l 2
 31 613 43 626 68 626 c 0
 93 626 106 613 106 588 c 2
 106 527 l 1
 288 200 l 1
 287 594 l 2
 287 619 300 631 325 631 c 0
 350 631 362 619 362 594 c 2
 362 6 l 2
 362 -20 349 -33 323 -33 c 0
 299 -33 287 -21 287 3 c 2
 288 45 l 1xd8
52 713 m 0
 80 742 111 782 147 782 c 0xb8
 168 782 190 776 239 733 c 0
 259 717 276 709 289 709 c 0
 308 709 330 723 356 751 c 0
 361 756 366 759 372 759 c 0
 388 759 396 751 396 736 c 0
 396 731 394 726 389 721 c 0
 355 683 322 664 291 664 c 0
 267 664 239 676 208 700 c 0
 177 724 157 736 147 736 c 0
 138 736 129 730 118 719 c 2
 83 680 l 2
 78 675 73 673 67 673 c 0
 52 673 44 681 44 696 c 0
 44 702 47 708 52 713 c 0
EndSplineSet
Validated: 1
EndChar

StartChar: Odieresis
Encoding: 214 214 173
GlifName: O_dieresis
Width: 403
Flags: MW
HStem: -20 75<173.5 241.5 167.5 266.5> 560 75<186.5 219.5> 666 107<95 123.5> 755 20G<305.5 334>
VStem: 16 75<238.5 328 208.5 334> 58 103<704.5 733.5> 268 104<707.5 736.5> 312 75<218.5 343.5>
LayerCount: 2
Back
Fore
SplineSet
203 635 m 0xe6
 267 635 315 601 347 534 c 0
 374 477 387 399 387 300 c 0
 387 87 327 -20 206 -20 c 0
 141 -20 92 9 59 67 c 0
 30 119 16 192 16 285 c 0xe9
 16 383 30 463 58 526 c 0
 91 599 140 635 203 635 c 0xe6
203 560 m 0
 170 560 144 536 123 489 c 0
 102 439 91 371 91 285 c 0
 91 132 129 55 206 55 c 0
 277 55 312 137 312 300 c 0
 312 387 302 452 281 497 c 0
 262 539 236 560 203 560 c 0
58 719 m 0xe6
 58 748 81 773 109 773 c 0
 138 773 161 748 161 719 c 0
 161 690 138 666 109 666 c 0
 81 666 58 690 58 719 c 0xe6
268 722 m 0
 268 751 291 775 320 775 c 0xda
 348 775 372 751 372 722 c 0
 372 693 348 669 320 669 c 0
 291 669 268 693 268 722 c 0
EndSplineSet
Validated: 1
EndChar

StartChar: Udieresis
Encoding: 220 220 174
GlifName: U_dieresis
Width: 509
Flags: MW
HStem: -40 75<204 249.5> 622 20G<350.5 375.5> 645 20G<324.5 353> 662 107<114 142.5> 751 20G<324.5 353>
VStem: 56 75<118 536 536 537 117 548.5> 77 103<700.5 729.5> 287 114<126 732.5> 326 75<126 604 126 616.5>
LayerCount: 2
Back
Fore
SplineSet
226 -40 m 0xd5
 182 -40 144 -25 112 6 c 0
 80 37 61 74 56 118 c 1
 56 536 l 2
 56 561 68 574 93 574 c 0
 118 574 131 562 131 537 c 2
 131 117 l 1
 142 69 178 35 226 35 c 0
 278 35 321 75 326 126 c 1
 326 604 l 2xd480
 326 629 338 642 363 642 c 0
 388 642 401 629 401 604 c 2
 401 126 l 2
 398 79 380 40 346 8 c 0
 313 -24 273 -40 226 -40 c 0xd5
77 715 m 0xd3
 77 744 100 769 128 769 c 0
 157 769 180 744 180 715 c 0
 180 686 157 662 128 662 c 0
 100 662 77 686 77 715 c 0xd3
287 718 m 0
 287 747 310 771 339 771 c 0
 367 771 391 747 391 718 c 0
 391 689 367 665 339 665 c 0xed
 310 665 287 689 287 718 c 0
EndSplineSet
Validated: 1
EndChar

StartChar: aacute
Encoding: 225 225 175
GlifName: aacute
Width: 498
Flags: W
HStem: -25 75<140.454 319.815> 317 77<135.909 261.816>
VStem: 4 77<106.985 259.014> 296 74<210.85 281.815> 392 75<113.978 408.734>
LayerCount: 2
Back
Fore
SplineSet
167 466 m 2
 263 623 l 2
 265 626 268 628 273 628 c 0
 284 628 297 620 312 603 c 0
 328 586 336 572 336 561 c 0
 336 556 335 553 332 550 c 2
 197 432 l 2
 192 428 186 426 181 426 c 0
 168 426 162 434 162 449 c 0
 162 455 164 461 167 466 c 2
EndSplineSet
Refer: 65 97 N 1 0 0 1 0 0 2
Validated: 1
EndChar

StartChar: agrave
Encoding: 224 224 176
GlifName: agrave
Width: 498
Flags: W
HStem: -25 75<140.454 319.815> 317 77<135.909 261.816> 626 20G<181.5 194>
VStem: 4 77<106.985 259.014> 296 74<210.85 281.815> 392 75<113.978 408.734>
LayerCount: 2
Back
Fore
SplineSet
297 484 m 2
 301 479 303 473 303 467 c 0
 303 452 296 444 283 444 c 0
 278 444 273 446 268 450 c 2
 132 568 l 2
 129 571 128 574 128 579 c 0
 128 600 171 646 192 646 c 0
 196 646 199 644 201 641 c 2
 297 484 l 2
EndSplineSet
Refer: 65 97 S 1 0 0 1 0 0 2
Validated: 1
EndChar

StartChar: acircumflex
Encoding: 226 226 177
GlifName: acircumflex
Width: 498
Flags: W
HStem: -25 75<140.454 319.815> 317 77<135.909 261.816>
VStem: 4 77<106.985 259.014> 296 74<210.85 281.815> 392 75<113.978 408.734>
LayerCount: 2
Back
Fore
SplineSet
89 484 m 2
 185 585 l 2
 206 608 223 619 234 619 c 0
 245 619 261 608 282 587 c 2
 375 490 l 2
 380 485 382 480 382 474 c 0
 382 459 374 451 359 451 c 0
 353 451 348 453 343 458 c 2
 235 566 l 1
 121 452 l 2
 116 447 111 445 105 445 c 0
 90 445 82 453 82 468 c 0
 82 474 84 479 89 484 c 2
EndSplineSet
Refer: 65 97 N 1 0 0 1 0 0 2
Validated: 1
EndChar

StartChar: adieresis
Encoding: 228 228 178
GlifName: adieresis
Width: 498
Flags: W
HStem: -25 75<140.454 319.815> 317 77<135.909 261.816> 476 107<103.929 184.996 315.586 394.078>
VStem: 4 77<106.985 259.014> 93 103<485.854 572.808> 296 74<210.85 281.815> 303 104<489.609 574.391> 392 75<113.978 408.734>
LayerCount: 2
Back
Fore
SplineSet
93 529 m 0xf8
 93 558 116 583 144 583 c 0
 173 583 196 558 196 529 c 0
 196 500 173 476 144 476 c 0
 116 476 93 500 93 529 c 0xf8
303 532 m 0xfa
 303 561 326 585 355 585 c 0
 383 585 407 561 407 532 c 0
 407 503 383 479 355 479 c 0
 326 479 303 503 303 532 c 0xfa
EndSplineSet
Refer: 65 97 S 1 0 0 1 0 0 2
Validated: 1
EndChar

StartChar: atilde
Encoding: 227 227 179
GlifName: atilde
Width: 498
Flags: W
HStem: -25 75<140.454 319.815> 317 77<135.909 261.816> 448 45<259.675 352.634> 520 46<132.139 206.62>
VStem: 4 77<106.985 259.014> 296 74<210.85 281.815> 392 75<113.978 408.734>
LayerCount: 2
Back
Fore
SplineSet
70 497 m 0
 98 526 129 566 165 566 c 0
 186 566 208 560 257 517 c 0
 277 501 294 493 307 493 c 0
 326 493 348 507 374 535 c 0
 379 540 384 543 390 543 c 0
 406 543 414 535 414 520 c 0
 414 515 412 510 407 505 c 0
 373 467 340 448 309 448 c 0
 285 448 257 460 226 484 c 0
 195 508 175 520 165 520 c 0
 156 520 147 514 136 503 c 2
 101 464 l 2
 96 459 91 457 85 457 c 0
 70 457 62 465 62 480 c 0
 62 486 65 492 70 497 c 0
EndSplineSet
Refer: 65 97 S 1 0 0 1 0 0 2
Validated: 1
EndChar

StartChar: aring
Encoding: 229 229 180
GlifName: aring
Width: 498
Flags: W
HStem: -25 75<140.454 319.815> 317 77<135.909 261.816> 445 45<189.783 265.211> 581 46<189.783 265.507>
VStem: 4 77<106.985 259.014> 137 45<497.789 573.304> 273 45<497.789 573.428> 296 74<210.85 281.815> 392 75<113.978 408.734>
LayerCount: 2
Back
Fore
SplineSet
227 490 m 0xfe80
 252 490 273 511 273 536 c 0
 273 561 252 581 227 581 c 0
 203 581 182 560 182 536 c 0
 182 511 203 490 227 490 c 0xfe80
227 445 m 0
 178 445 137 485 137 536 c 0
 137 585 178 627 227 627 c 0
 278 627 318 585 318 536 c 0
 318 485 278 445 227 445 c 0
EndSplineSet
Refer: 65 97 S 1 0 0 1 0 0 2
Validated: 1
EndChar

StartChar: ccedilla
Encoding: 231 231 181
GlifName: ccedilla
Width: 368
Flags: MW
HStem: -187 35<78.5 106 78.5 115.5> -14 59<184.5 212.5> 259 140<198.5 320.5> 328 71<198.5 211>
VStem: 10 34 10 71<170.5 185.5 163 215> 141 35<-120 -102>
LayerCount: 2
Back
Fore
SplineSet
176 397 m 0xea
 185 398 194 399 203 399 c 0
 261 399 306 367 339 303 c 0
 342 298 344 292 344 287 c 0
 344 268 332 259 309 259 c 0xea
 290 259 276 267 267 284 c 0
 251 313 227 328 195 328 c 0
 170 328 147 318 127 299 c 0
 105 277 90 246 83 207 c 0
 82 198 81 190 81 181 c 0xd6
 81 145 92 113 114 86 c 0
 137 59 165 45 198 45 c 0
 228 45 259 57 290 81 c 0
 299 85 307 87 314 87 c 0
 338 87 350 77 350 56 c 0
 350 40 340 27 319 18 c 0
 274 -3 232 -14 193 -14 c 0
 176 -14 161 -12 147 -9 c 1
 125 -34 l 1
 159 -48 176 -73 176 -108 c 0
 176 -152 139 -187 92 -187 c 0
 47 -187 9 -152 9 -108 c 0
 9 -96 15 -90 26 -90 c 0
 38 -90 44 -96 44 -108 c 0
 44 -132 65 -152 92 -152 c 0
 120 -152 141 -132 141 -108 c 0
 141 -96 136 -85 127 -76 c 0
 118 -67 106 -63 93 -63 c 0
 80 -63 74 -59 74 -52 c 0
 74 -42 86 -23 111 6 c 1
 79 23 54 48 36 83 c 0
 19 116 10 151 10 190 c 0
 10 240 23 283 50 320 c 0
 80 361 122 387 176 397 c 0xea
EndSplineSet
Validated: 1
EndChar

StartChar: eacute
Encoding: 233 233 182
GlifName: eacute
Width: 458
Flags: W
HStem: -22 75<160.687 316.111> 202 75<128.422 363> 347 75<160.741 318.502>
VStem: 14 75<123.885 275.956>
LayerCount: 2
Back
Fore
SplineSet
161 508 m 2
 257 665 l 2
 259 668 262 670 267 670 c 0
 278 670 291 662 306 645 c 0
 322 628 330 614 330 603 c 0
 330 598 329 595 326 592 c 2
 191 474 l 2
 186 470 180 468 175 468 c 0
 162 468 156 476 156 491 c 0
 156 497 158 503 161 508 c 2
EndSplineSet
Refer: 69 101 S 1 0 0 1 0 0 2
Validated: 1
EndChar

StartChar: egrave
Encoding: 232 232 183
GlifName: egrave
Width: 458
Flags: W
HStem: -22 75<160.687 316.111> 202 75<128.422 363> 347 75<160.741 318.502> 629 20G<207.5 215>
VStem: 14 75<123.885 275.956>
LayerCount: 2
Back
Fore
SplineSet
318 487 m 2
 322 482 324 476 324 470 c 0
 324 455 317 447 304 447 c 0
 299 447 294 449 289 453 c 2
 153 571 l 2
 150 574 149 577 149 582 c 0
 149 593 157 607 173 624 c 0
 189 641 202 649 213 649 c 0
 217 649 220 647 222 644 c 2
 318 487 l 2
EndSplineSet
Refer: 69 101 S 1 0 0 1 0 0 2
Validated: 1
EndChar

StartChar: ecircumflex
Encoding: 234 234 184
GlifName: ecircumflex
Width: 458
Flags: W
HStem: -22 75<160.687 316.111> 202 75<128.422 363> 347 75<160.741 318.502>
VStem: 14 75<123.885 275.956>
LayerCount: 2
Back
Fore
SplineSet
101 490 m 2
 197 591 l 2
 218 614 235 625 246 625 c 0
 257 625 273 614 294 593 c 2
 387 496 l 2
 392 491 394 486 394 480 c 0
 394 465 386 457 371 457 c 0
 365 457 360 459 355 464 c 2
 247 572 l 1
 133 458 l 2
 128 453 123 451 117 451 c 0
 102 451 94 459 94 474 c 0
 94 480 96 485 101 490 c 2
EndSplineSet
Refer: 69 101 S 1 0 0 1 0 0 2
Validated: 1
EndChar

StartChar: edieresis
Encoding: 235 235 185
GlifName: edieresis
Width: 463
Flags: W
HStem: -22 75<160.687 316.111> 202 75<128.422 363> 347 75<160.741 318.502> 459 107<139.929 220.996 276.586 355.078>
VStem: 14 75<123.885 275.956> 129 103<468.854 555.808> 264 104<472.609 557.391>
LayerCount: 2
Back
Fore
SplineSet
129 512 m 0
 129 541 152 566 180 566 c 0
 209 566 232 541 232 512 c 0
 232 483 209 459 180 459 c 0
 152 459 129 483 129 512 c 0
264 515 m 0
 264 544 287 568 316 568 c 0
 344 568 368 544 368 515 c 0
 368 486 344 462 316 462 c 0
 287 462 264 486 264 515 c 0
EndSplineSet
Refer: 69 101 S 1 0 0 1 0 0 2
Validated: 1
EndChar

StartChar: iacute
Encoding: 237 237 186
GlifName: iacute
Width: 263
Flags: MW
HStem: -17 21G<99 124> 645 20G<161.5 169.5>
VStem: 75 75<19 385>
LayerCount: 2
Back
Fore
SplineSet
150 385 m 2
 150 19 l 2
 150 -5 137 -17 111 -17 c 0
 87 -17 75 -5 75 19 c 2
 75 385 l 2
 75 410 87 422 112 422 c 0
 137 422 150 410 150 385 c 2
58 503 m 2
 154 660 l 2
 156 663 159 665 164 665 c 0
 175 665 188 657 203 640 c 0
 219 623 227 609 227 598 c 0
 227 593 226 590 223 587 c 2
 88 469 l 2
 83 465 77 463 72 463 c 0
 59 463 53 471 53 486 c 0
 53 492 55 498 58 503 c 2
EndSplineSet
Validated: 1
EndChar

StartChar: igrave
Encoding: 236 236 187
GlifName: igrave
Width: 200
Flags: HMW
HStem: -26 21G<79 104> 627 20G<74.5 82>
VStem: 55 75<-2 376 10 376>
LayerCount: 2
Back
Fore
SplineSet
130 376 m 2
 130 10 l 2
 130 -14 117 -26 91 -26 c 0
 67 -26 55 -14 55 10 c 2
 55 376 l 2
 55 401 67 413 92 413 c 0
 117 413 130 401 130 376 c 2
185 485 m 2
 189 480 191 474 191 468 c 0
 191 453 184 445 171 445 c 0
 166 445 161 447 156 451 c 2
 20 569 l 2
 17 572 16 575 16 580 c 0
 16 591 24 605 40 622 c 0
 56 639 69 647 80 647 c 0
 84 647 87 645 89 642 c 2
 185 485 l 2
EndSplineSet
Validated: 1
EndChar

StartChar: icircumflex
Encoding: 238 238 188
GlifName: icircumflex
Width: 341
Flags: MW
HStem: -29 21G<157 182> 607 20G<171.5 182.5>
VStem: 133 75<7 373>
LayerCount: 2
Back
Fore
SplineSet
208 373 m 2
 208 7 l 2
 208 -17 195 -29 169 -29 c 0
 145 -29 133 -17 133 7 c 2
 133 373 l 2
 133 398 145 410 170 410 c 0
 195 410 208 398 208 373 c 2
32 492 m 2
 128 593 l 2
 149 616 166 627 177 627 c 0
 188 627 204 616 225 595 c 2
 318 498 l 2
 323 493 325 488 325 482 c 0
 325 467 317 459 302 459 c 0
 296 459 291 461 286 466 c 2
 178 574 l 1
 64 460 l 2
 59 455 54 453 48 453 c 0
 33 453 25 461 25 476 c 0
 25 482 27 487 32 492 c 2
EndSplineSet
Validated: 1
EndChar

StartChar: idieresis
Encoding: 239 239 189
GlifName: idieresis
Width: 356
Flags: MW
HStem: -32 21G<154 179> 445 107<46 74.5> 534 20G<256.5 285>
VStem: 9 103<483.5 512.5> 130 75<4 370> 219 104<486.5 515.5>
LayerCount: 2
Back
Fore
SplineSet
205 370 m 2xdc
 205 4 l 2
 205 -20 192 -32 166 -32 c 0
 142 -32 130 -20 130 4 c 2
 130 370 l 2
 130 395 142 407 167 407 c 0
 192 407 205 395 205 370 c 2xdc
9 498 m 0
 9 527 32 552 60 552 c 0
 89 552 112 527 112 498 c 0
 112 469 89 445 60 445 c 0
 32 445 9 469 9 498 c 0
219 501 m 0
 219 530 242 554 271 554 c 0xbc
 299 554 323 530 323 501 c 0
 323 472 299 448 271 448 c 0
 242 448 219 472 219 501 c 0
EndSplineSet
Validated: 1
EndChar

StartChar: ntilde
Encoding: 241 241 190
GlifName: ntilde
Width: 390
Flags: MW
HStem: -200 21G<298.5 323.5> 334 75<161.5 206.5 161.5 210.5> 452 45<257.5 273.5 257.5 281.5> 452 118
VStem: 14 75<2 260> 273 75<-162 260>
LayerCount: 2
Back
Fore
SplineSet
14 2 m 2xec
 14 260 l 2
 14 303 32 339 67 368 c 0
 100 395 139 409 184 409 c 0
 229 409 267 395 299 367 c 0
 332 339 348 303 348 260 c 2
 348 -162 l 2
 348 -187 336 -200 311 -200 c 0
 286 -200 273 -187 273 -162 c 2
 273 260 l 2
 273 300 237 334 184 334 c 0
 128 334 89 299 89 260 c 2
 89 2 l 2
 89 -23 76 -35 51 -35 c 0
 26 -35 14 -23 14 2 c 2xec
27 501 m 0
 55 530 86 570 122 570 c 0xdc
 143 570 165 564 214 521 c 0
 234 505 251 497 264 497 c 0
 283 497 305 511 331 539 c 0
 336 544 341 547 347 547 c 0
 363 547 371 539 371 524 c 0
 371 519 369 514 364 509 c 0
 330 471 297 452 266 452 c 0
 242 452 214 464 183 488 c 0
 152 512 132 524 122 524 c 0
 113 524 104 518 93 507 c 2
 58 468 l 2
 53 463 48 461 42 461 c 0
 27 461 19 469 19 484 c 0
 19 490 22 496 27 501 c 0
EndSplineSet
Validated: 1
EndChar

StartChar: ograve
Encoding: 242 242 192
GlifName: ograve
Width: 481
Flags: W
HStem: -19 75<163.669 318.331> 355 75<163.869 318.131>
VStem: 16 75<128.067 282.331> 391 75<128.067 282.331>
LayerCount: 2
Back
Fore
SplineSet
315 515 m 2
 319 510 321 504 321 498 c 0
 321 483 314 475 301 475 c 0
 296 475 291 477 286 481 c 2
 150 599 l 2
 147 602 146 605 146 610 c 0
 146 621 154 635 170 652 c 0
 186 669 199 677 210 677 c 0
 214 677 217 675 219 672 c 2
 315 515 l 2
EndSplineSet
Refer: 79 111 N 1 0 0 1 0 0 2
Validated: 1
EndChar

StartChar: ocircumflex
Encoding: 244 244 193
GlifName: ocircumflex
Width: 481
Flags: W
HStem: -19 75<163.669 318.331> 355 75<163.869 318.131> 626 20G<237.5 248.5>
VStem: 16 75<128.067 282.331> 391 75<128.067 282.331>
LayerCount: 2
Back
Fore
SplineSet
98 511 m 2
 194 612 l 2
 215 635 232 646 243 646 c 0
 254 646 270 635 291 614 c 2
 384 517 l 2
 389 512 391 507 391 501 c 0
 391 486 383 478 368 478 c 0
 362 478 357 480 352 485 c 2
 244 593 l 1
 130 479 l 2
 125 474 120 472 114 472 c 0
 99 472 91 480 91 495 c 0
 91 501 93 506 98 511 c 2
EndSplineSet
Refer: 79 111 S 1 0 0 1 0 0 2
Validated: 1
EndChar

StartChar: odieresis
Encoding: 246 246 194
GlifName: odieresis
Width: 481
Flags: W
HStem: -19 75<163.669 318.331> 355 75<163.869 318.131> 483 107<136.929 217.996 273.586 352.078>
VStem: 16 75<128.067 282.331> 126 103<492.854 579.808> 261 104<496.609 581.391> 391 75<128.067 282.331>
LayerCount: 2
Back
Fore
SplineSet
126 536 m 0
 126 565 149 590 177 590 c 0
 206 590 229 565 229 536 c 0
 229 507 206 483 177 483 c 0
 149 483 126 507 126 536 c 0
261 539 m 0
 261 568 284 592 313 592 c 0
 341 592 365 568 365 539 c 0
 365 510 341 486 313 486 c 0
 284 486 261 510 261 539 c 0
EndSplineSet
Refer: 79 111 S 1 0 0 1 0 0 2
Validated: 1
EndChar

StartChar: otilde
Encoding: 245 245 195
GlifName: otilde
Width: 481
Flags: W
HStem: -19 75<163.669 318.331> 355 75<163.869 318.131> 470 45<283.675 376.634> 542 46<156.139 230.62> 545 20G<411 422>
VStem: 16 75<128.067 282.331> 391 75<128.067 282.331>
LayerCount: 2
Back
Fore
SplineSet
94 519 m 0xf6
 122 548 153 588 189 588 c 0xf6
 210 588 232 582 281 539 c 0
 301 523 318 515 331 515 c 0
 350 515 372 529 398 557 c 0
 403 562 408 565 414 565 c 0xee
 430 565 438 557 438 542 c 0
 438 537 436 532 431 527 c 0
 397 489 364 470 333 470 c 0
 309 470 281 482 250 506 c 0
 219 530 199 542 189 542 c 0
 180 542 171 536 160 525 c 2
 125 486 l 2
 120 481 115 479 109 479 c 0
 94 479 86 487 86 502 c 0
 86 508 89 514 94 519 c 0xf6
EndSplineSet
Refer: 79 111 S 1 0 0 1 0 0 2
Validated: 1
EndChar

StartChar: uacute
Encoding: 250 250 196
GlifName: uacute
Width: 377
Flags: MW
HStem: -32 75<164.5 209.5> 648 20G<174.5 182.5>
VStem: 16 75<116 374> 276 75<116 538>
LayerCount: 2
Back
Fore
SplineSet
16 374 m 2
 16 399 29 412 54 412 c 0
 79 412 91 399 91 374 c 2
 91 116 l 2
 91 79 131 43 187 43 c 0
 240 43 276 76 276 116 c 2
 276 538 l 2
 276 563 288 576 313 576 c 0
 338 576 351 563 351 538 c 2
 351 116 l 2
 351 73 335 37 302 9 c 0
 270 -18 232 -32 187 -32 c 0
 142 -32 103 -19 70 8 c 0
 34 37 16 73 16 116 c 2
 16 374 l 2
71 506 m 2
 167 663 l 2
 169 666 172 668 177 668 c 0
 188 668 201 660 216 643 c 0
 232 626 240 612 240 601 c 0
 240 596 239 593 236 590 c 2
 101 472 l 2
 96 468 90 466 85 466 c 0
 72 466 66 474 66 489 c 0
 66 495 68 501 71 506 c 2
EndSplineSet
Validated: 1
EndChar

StartChar: ugrave
Encoding: 249 249 197
GlifName: ugrave
Width: 377
Flags: MW
HStem: -32 75<164.5 209.5> 645 20G<110.5 118>
VStem: 16 75<116 374> 276 75<116 538>
LayerCount: 2
Back
Fore
SplineSet
16 374 m 2
 16 399 29 412 54 412 c 0
 79 412 91 399 91 374 c 2
 91 116 l 2
 91 79 131 43 187 43 c 0
 240 43 276 76 276 116 c 2
 276 538 l 2
 276 563 288 576 313 576 c 0
 338 576 351 563 351 538 c 2
 351 116 l 2
 351 73 335 37 302 9 c 0
 270 -18 232 -32 187 -32 c 0
 142 -32 103 -19 70 8 c 0
 34 37 16 73 16 116 c 2
 16 374 l 2
221 503 m 2
 225 498 227 492 227 486 c 0
 227 471 220 463 207 463 c 0
 202 463 197 465 192 469 c 2
 56 587 l 2
 53 590 52 593 52 598 c 0
 52 609 60 623 76 640 c 0
 92 657 105 665 116 665 c 0
 120 665 123 663 125 660 c 2
 221 503 l 2
EndSplineSet
Validated: 1
EndChar

StartChar: ucircumflex
Encoding: 251 251 198
GlifName: ucircumflex
Width: 377
Flags: MW
HStem: -32 75<164.5 209.5> 494 82 618 20G<139 147.5>
VStem: 16 75<116 374> 276 75<116 538>
LayerCount: 2
Back
Fore
SplineSet
16 374 m 2
 16 399 29 412 54 412 c 0
 79 412 91 399 91 374 c 2
 91 116 l 2
 91 79 131 43 187 43 c 0
 240 43 276 76 276 116 c 2
 276 538 l 2
 276 563 288 576 313 576 c 0
 338 576 351 563 351 538 c 2
 351 116 l 2
 351 73 335 37 302 9 c 0
 270 -18 232 -32 187 -32 c 0
 142 -32 103 -19 70 8 c 0
 34 37 16 73 16 116 c 2
 16 374 l 2
33 526 m 0
 58 554 82 582 106 610 c 0
 123 629 135 638 143 638 c 0
 152 638 164 629 180 611 c 2
 250 531 l 2
 253 527 255 523 255 518 c 0
 255 505 249 499 237 499 c 0
 233 499 229 501 226 505 c 2
 144 594 l 1
 58 500 l 2
 54 496 50 494 46 494 c 0
 34 494 28 500 28 513 c 0
 28 518 30 522 33 526 c 0
EndSplineSet
Validated: 1
EndChar

StartChar: udieresis
Encoding: 252 252 199
GlifName: udieresis
Width: 377
Flags: MW
HStem: -32 75<164.5 209.5> 508 68 508 107<64 92.5> 597 20G<199.5 228>
VStem: 16 75<116 374> 16 114 162 104<549.5 578.5> 276 75<116 538>
LayerCount: 2
Back
Fore
SplineSet
16 374 m 2xdb
 16 399 29 412 54 412 c 0
 79 412 91 399 91 374 c 2
 91 116 l 2
 91 79 131 43 187 43 c 0
 240 43 276 76 276 116 c 2
 276 538 l 2
 276 563 288 576 313 576 c 0
 338 576 351 563 351 538 c 2
 351 116 l 2
 351 73 335 37 302 9 c 0
 270 -18 232 -32 187 -32 c 0
 142 -32 103 -19 70 8 c 0
 34 37 16 73 16 116 c 2
 16 374 l 2xdb
27 561 m 0
 27 590 50 615 78 615 c 0
 107 615 130 590 130 561 c 0xa7
 130 532 107 508 78 508 c 0
 50 508 27 532 27 561 c 0
162 564 m 0
 162 593 185 617 214 617 c 0xdb
 242 617 266 593 266 564 c 0
 266 535 242 511 214 511 c 0
 185 511 162 535 162 564 c 0
EndSplineSet
Validated: 1
EndChar

StartChar: degree
Encoding: 176 176 200
GlifName: degree
Width: 341
Flags: MW
HStem: 484 46<152.5 189.5> 704 45<152.5 189.5 152.5 195>
VStem: 39 45<598.5 635.5> 258 46<598.5 635.5 598.5 641>
LayerCount: 2
Back
Fore
SplineSet
171 484 m 0
 134 484 103 497 77 523 c 0
 52 549 39 580 39 617 c 0
 39 654 52 685 77 710 c 0
 103 736 134 749 171 749 c 0
 208 749 239 736 265 710 c 0
 291 685 304 654 304 617 c 0
 304 580 291 549 265 523 c 0
 239 497 208 484 171 484 c 0
171 530 m 0
 219 530 258 569 258 617 c 0
 258 665 219 704 171 704 c 0
 123 704 84 665 84 617 c 0
 84 569 124 530 171 530 c 0
EndSplineSet
Validated: 1
EndChar

StartChar: registered
Encoding: 174 174 201
GlifName: registered
Width: 821
Flags: MW
HStem: 28 75<368 454.5 368 464.5> 235 183<341.5 389> 369 49 592 43<258 368 266 326 266 374 266 406> 701 75<368 454.5>
VStem: 26 75<361 443 361 454> 242 132 274 100 326 48<250.5 256 418 592> 452 48<165 385 385 385> 502 48<486.5 522 486.5 525.5> 722 75<361 443>
LayerCount: 2
Back
Fore
SplineSet
374 592 m 1xde70
 374 418 l 1
 389 418 l 2
 453 418 502 458 502 505 c 0
 502 546 462 585 406 592 c 1
 374 592 l 1xde70
550 505 m 0
 550 468 533 436 500 411 c 1
 500 165 l 2
 500 151 492 144 476 144 c 0
 460 144 452 151 452 165 c 2
 452 385 l 1
 432 378 411 375 389 375 c 2
 374 375 l 1
 374 258 l 2
 374 243 366 235 349 235 c 0
 334 235 326 242 326 256 c 2xdcf0
 327 381 l 1
 321 373 313 369 303 369 c 0
 284 369 274 378 274 397 c 0xbd70
 274 415 284 424 303 424 c 0
 313 424 321 420 326 413 c 1
 326 592 l 1xdcf0
 266 592 l 2
 250 592 242 599 242 613 c 0
 242 628 250 635 266 635 c 2
 368 635 l 1
 405 634 l 2
 445 631 479 617 507 592 c 0
 536 568 550 539 550 505 c 0
411 776 m 0
 518 776 609 740 684 667 c 0
 759 594 797 506 797 402 c 0
 797 299 759 210 684 137 c 0
 609 64 518 28 411 28 c 0
 305 28 214 64 139 137 c 0
 64 210 26 299 26 402 c 0
 26 506 64 594 139 667 c 0
 214 740 305 776 411 776 c 0
411 701 m 0
 325 701 252 672 191 613 c 0
 131 554 101 484 101 402 c 0
 101 320 131 250 191 191 c 0
 252 132 325 103 411 103 c 0
 498 103 571 132 631 191 c 0
 692 250 722 320 722 402 c 0
 722 484 692 554 631 613 c 0
 571 672 498 701 411 701 c 0
EndSplineSet
Validated: 1
EndChar

StartChar: copyright
Encoding: 169 169 202
GlifName: copyright
Width: 956
Flags: MW
HStem: 28 75<368 454.5 368 464.5> 178 48<361.5 418.5 352.5 429.5> 178 106<361.5 540> 522 104<370.5 524> 578 48<370.5 416> 701 75<368 454.5>
VStem: 26 75<361 443 361 454> 211 58<364.5 429> 722 75<361 443>
LayerCount: 2
Back
Fore
SplineSet
411 776 m 0xb780
 518 776 609 740 684 667 c 0
 759 594 797 506 797 402 c 0
 797 299 759 210 684 137 c 0
 609 64 518 28 411 28 c 0
 305 28 214 64 139 137 c 0
 64 210 26 299 26 402 c 0
 26 506 64 594 139 667 c 0
 214 740 305 776 411 776 c 0xb780
411 701 m 0
 325 701 252 672 191 613 c 0
 131 554 101 484 101 402 c 0
 101 320 131 250 191 191 c 0
 252 132 325 103 411 103 c 0
 498 103 571 132 631 191 c 0
 692 250 722 320 722 402 c 0
 722 484 692 554 631 613 c 0
 571 672 498 701 411 701 c 0
556 248 m 0
 523 201 468 178 391 178 c 0
 332 178 286 199 255 242 c 0
 226 281 211 332 211 397 c 0
 211 461 227 514 259 557 c 0
 294 603 341 626 400 626 c 0
 451 626 496 604 537 561 c 0
 542 556 544 551 544 546 c 0
 544 530 534 522 514 522 c 0xd780
 505 522 498 525 492 532 c 0
 463 563 432 578 400 578 c 0
 323 578 269 506 269 397 c 0
 269 286 314 226 391 226 c 0xcf80
 446 226 485 241 506 272 c 0
 512 280 520 284 530 284 c 0
 550 284 560 276 560 260 c 0
 560 256 559 252 556 248 c 0
EndSplineSet
Validated: 1
EndChar

StartChar: trademark
Encoding: 296 8482 203
GlifName: trademark
Width: 432
Flags: W
HStem: 724 30<37.0037 82 112 154.996> 741 30<188.938 253.644 294.315 357.503>
VStem: 82 30<595.004 724 754 768.996> 154 30<593.004 734.629> 257 30<593.004 732.501> 362 30<533.004 733.984>
LayerCount: 2
Back
Fore
SplineSet
112 610 m 2xbc
 112 600 107 595 97 595 c 0
 87 595 82 600 82 610 c 2
 82 725 l 1
 52 724 l 2
 42 724 37 729 37 739 c 0
 37 749 42 754 52 754 c 2
 82 754 l 1
 82 763 87 769 97 769 c 0
 107 769 112 763 112 754 c 1
 140 754 l 2
 150 754 155 749 155 739 c 0
 155 729 150 724 140 724 c 2
 112 724 l 1
 112 610 l 2xbc
222 771 m 0x7c
 243 771 261 763 274 748 c 1
 288 762 305 769 326 769 c 0
 362 769 392 745 392 710 c 2
 392 549 l 2
 392 538 387 533 377 533 c 0
 367 533 362 538 362 548 c 2
 362 710 l 2
 362 729 350 739 326 739 c 0
 303 739 288 725 288 710 c 2
 287 608 l 2
 287 598 282 593 272 593 c 0
 262 593 257 598 257 608 c 2
 257 712 l 2
 257 731 245 741 222 741 c 0
 199 741 184 727 184 712 c 2
 184 608 l 2
 184 598 179 593 169 593 c 0
 159 593 154 598 154 608 c 2
 154 712 l 2
 154 747 186 771 222 771 c 0x7c
EndSplineSet
Validated: 1
EndChar

StartChar: notequal
Encoding: 297 8800 204
GlifName: notequal
Width: 657
Flags: W
HStem: 257 75<108.422 242 354 547.734> 459 75<108.422 326 437 547.734>
LayerCount: 2
Back
Fore
SplineSet
273 332 m 1
 326 459 l 1
 144 459 l 2
 119 459 106 472 106 497 c 0
 106 522 119 534 144 534 c 2
 356 534 l 1
 406 655 l 2
 412 671 423 679 439 679 c 0
 459 679 478 663 478 642 c 0
 478 637 477 631 475 626 c 2
 437 534 l 1
 513 534 l 2
 538 534 550 522 550 497 c 0
 550 472 538 459 513 459 c 2
 405 459 l 1
 354 333 l 1
 513 332 l 2
 538 332 550 320 550 295 c 0
 550 270 538 257 513 257 c 2
 323 258 l 1
 265 116 l 2
 258 101 247 93 231 93 c 0
 211 93 192 109 192 129 c 0
 192 134 193 140 195 145 c 2
 242 258 l 1
 144 257 l 2
 119 257 106 270 106 295 c 0
 106 320 119 332 144 332 c 2
 273 332 l 1
EndSplineSet
Validated: 1
EndChar

StartChar: infinity
Encoding: 298 8734 205
GlifName: infinity
Width: 636
Flags: W
HStem: 195 56<106.148 252.459 403.95 521.604> 380 56<111.881 227.482> 389 56<412.583 532.056>
VStem: 37 55<266.073 359.55> 546 56<275.243 375.489>
LayerCount: 2
Back
Fore
SplineSet
479 445 m 0xb8
 552 445 602 396 602 323 c 0
 602 251 548 201 458 201 c 0
 414 201 370 221 327 261 c 1
 294 220 238 195 162 195 c 0
 90 195 37 241 37 312 c 0
 37 384 93 436 165 436 c 0xd8
 212 436 264 407 319 348 c 1
 353 400 405 445 479 445 c 0xb8
165 380 m 0
 121 380 92 347 92 311 c 0
 92 278 116 251 164 251 c 0
 219 251 260 270 286 301 c 1
 248 342 219 380 165 380 c 0
479 389 m 0xb8
 418 389 387 348 359 307 c 1
 393 274 427 257 459 257 c 0
 517 257 546 281 546 322 c 0
 546 367 521 389 479 389 c 0xb8
EndSplineSet
Validated: 1
EndChar

StartChar: plusminus
Encoding: 177 177 206
GlifName: plusminus
Width: 443
Flags: MW
HStem: 90 75<43.5 384 56 384> 214 205<91 233.5> 343 76<91 183> 343 203<183 233.5>
VStem: 54 204<239.5 393.5> 183 75<252 343 343 343 419 508> 183 208<252 393.5 343 393.5 368.5 508 368.5 520.5>
LayerCount: 2
Back
Fore
SplineSet
258 419 m 1xc4
 353 419 l 2
 378 419 391 406 391 381 c 0xc2
 391 356 378 344 353 344 c 2
 258 344 l 1
 258 252 l 2
 258 227 246 214 221 214 c 0xc8
 196 214 183 227 183 252 c 2
 183 343 l 1xa4
 91 344 l 2
 66 344 54 356 54 381 c 0xa8
 54 406 66 419 91 419 c 2
 183 419 l 1xc4
 183 508 l 2
 183 533 196 546 221 546 c 0x94
 246 546 258 533 258 508 c 2
 258 419 l 1xc4
56 165 m 2xc8
 384 165 l 2
 409 165 422 153 422 128 c 0
 422 103 409 90 384 90 c 2
 56 90 l 2
 31 90 18 103 18 128 c 0
 18 153 31 165 56 165 c 2xc8
EndSplineSet
Validated: 1
EndChar

StartChar: lessequal
Encoding: 299 8804 207
GlifName: lessequal
Width: 556
Flags: W
HStem: 6 75<27.4219 518.734> 624 20G<382.5 397.5>
LayerCount: 2
Back
Fore
SplineSet
414 579 m 2
 204 369 l 1
 400 174 l 2
 408 166 412 157 412 148 c 0
 412 127 393 109 373 109 c 0
 364 109 355 113 347 121 c 2
 174 286 l 2
 135 323 116 352 116 371 c 0
 116 391 136 420 177 459 c 2
 361 632 l 2
 369 640 378 644 387 644 c 0
 408 644 426 625 426 605 c 0
 426 596 422 587 414 579 c 2
63 81 m 2
 484 81 l 2
 509 81 521 69 521 44 c 0
 521 19 509 6 484 6 c 2
 63 6 l 2
 38 6 25 19 25 44 c 0
 25 69 38 81 63 81 c 2
EndSplineSet
Validated: 1
EndChar

StartChar: greaterequal
Encoding: 300 8805 208
GlifName: greaterequal
Width: 550
Flags: W
HStem: 6 75<27.4219 518.734> 624 20G<148.5 163.5>
LayerCount: 2
Back
Fore
SplineSet
132 579 m 2
 124 587 120 596 120 605 c 0
 120 625 138 644 159 644 c 0
 168 644 177 640 185 632 c 2
 369 459 l 2
 410 420 430 391 430 371 c 0
 430 352 411 323 372 286 c 2
 199 121 l 2
 192 113 183 109 173 109 c 0
 153 109 135 127 135 148 c 0
 135 157 139 166 146 174 c 2
 342 369 l 1
 132 579 l 2
484 81 m 2
 509 81 521 69 521 44 c 0
 521 19 509 6 484 6 c 2
 63 6 l 2
 38 6 25 19 25 44 c 0
 25 69 38 81 63 81 c 2
 484 81 l 2
EndSplineSet
Validated: 1
EndChar

StartChar: mu
Encoding: 181 181 209
AltUni2: 0003bc.ffffffff.0
GlifName: mu
Width: 618
Flags: W
HStem: -46 74<14.9915 68.8236 439.306 546.966> -18 75<209.158 334.035>
VStem: 251 79<357.28 420> 531 79<434 460.956>
LayerCount: 2
Back
Fore
SplineSet
465 126 m 2x70
 458 111 450 98 440 85 c 1
 442 81 442 77 442 73 c 0
 442 66 438 59 438 52 c 0
 438 36 451 28 477 28 c 0
 488 28 501 32 514 32 c 0
 537 32 551 14 551 -7 c 0
 551 -40 521 -46 487 -46 c 0xb0
 420 -46 380 -24 366 20 c 1
 323 -6 280 -18 237 -18 c 0
 195 -18 163 -6 141 16 c 1
 117 -16 83 -41 44 -41 c 0
 23 -41 9 -23 9 -3 c 0
 9 18 20 31 41 34 c 0
 56 36 72 49 90 73 c 1
 154 168 201 285 251 393 c 0
 262 417 279 429 304 429 c 0
 321 429 330 422 330 408 c 0
 330 403 329 397 326 391 c 2
 206 133 l 1
 201 123 199 114 199 106 c 0
 199 77 227 57 269 57 c 0
 321 57 373 90 390 128 c 2
 531 434 l 2
 542 458 560 470 584 470 c 0
 601 470 610 463 610 449 c 0
 610 444 609 438 606 432 c 2
 465 126 l 2x70
EndSplineSet
Validated: 1
EndChar

StartChar: partialdiff
Encoding: 301 8706 210
GlifName: partialdiff
Width: 587
Flags: W
HStem: -40 72<150.084 339.135> 350 74<178.872 336.861> 646 69<110.041 180.024>
VStem: 27 76<80.7093 253.263> 478 76<327 420.358>
LayerCount: 2
Back
Fore
SplineSet
127 646 m 0
 112 651 105 661 105 675 c 0
 105 695 123 715 146 715 c 0
 151 715 157 714 162 712 c 0
 299 661 394 612 448 565 c 0
 518 504 554 424 554 325 c 0
 554 235 534 160 501 102 c 0
 451 14 363 -40 235 -40 c 0
 111 -40 27 31 27 146 c 0
 27 178 33 212 46 247 c 0
 86 365 154 424 250 424 c 0
 318 424 394 392 478 327 c 1
 477 406 437 473 360 530 c 0
 313 565 235 604 127 646 c 0
470 238 m 1
 459 248 l 2
 379 316 309 350 250 350 c 0
 158 350 103 261 103 164 c 0
 103 79 147 32 226 32 c 0
 366 32 446 105 470 238 c 1
EndSplineSet
Validated: 1
EndChar

StartChar: summation
Encoding: 302 8721 211
GlifName: summation
Width: 576
Flags: W
HStem: -28 75<147 542.734> 476 75<150 545.734>
LayerCount: 2
Back
Fore
SplineSet
511 476 m 2
 150 476 l 1
 280 336 l 2
 309 304 324 280 324 263 c 0
 324 246 309 221 280 189 c 2
 147 47 l 1
 508 47 l 2
 533 47 545 34 545 9 c 0
 545 -16 533 -28 508 -28 c 2
 64 -28 l 2
 36 -28 22 -17 22 4 c 0
 22 14 27 24 36 34 c 2
 238 263 l 1
 39 489 l 2
 30 499 25 509 25 520 c 0
 25 541 39 551 67 551 c 2
 511 551 l 2
 536 551 548 539 548 514 c 0
 548 489 536 476 511 476 c 2
EndSplineSet
Validated: 1
EndChar

StartChar: product
Encoding: 303 8719 212
GlifName: product
Width: 656
Flags: W
HStem: 502 75<16.2656 123 198 452 527 628.578>
VStem: 123 75<-36.5938 502 577 620.597> 452 76<-195.734 502>
LayerCount: 2
Back
Fore
SplineSet
452 502 m 1
 198 502 l 1
 198 -2 l 2
 198 -27 186 -39 161 -39 c 0
 135 -39 123 -26 123 -2 c 2
 123 502 l 1
 51 502 l 2
 26 502 14 515 14 540 c 0
 14 565 26 577 51 577 c 2
 123 577 l 1
 123 586 l 2
 123 612 137 623 162 623 c 0
 187 623 198 612 198 586 c 2
 198 577 l 1
 593 577 l 2
 618 577 631 565 631 540 c 0
 631 515 618 502 593 502 c 2
 527 502 l 1
 528 -161 l 2
 528 -186 515 -198 490 -198 c 0
 465 -198 452 -186 452 -161 c 2
 452 502 l 1
EndSplineSet
Validated: 1
EndChar

StartChar: pi
Encoding: 304 960 213
GlifName: pi
Width: 570
Flags: W
HStem: 319 77<137 153 228 416 491 539.441>
VStem: 153 75<-131.734 319> 416 75<60 319>
LayerCount: 2
Back
Fore
SplineSet
505 319 m 2
 491 319 l 1
 491 60 l 1
 524 44 l 2
 539 37 546 26 546 11 c 0
 546 -9 530 -28 509 -28 c 0
 504 -28 498 -27 492 -24 c 2
 444 -2 l 2
 425 9 416 22 416 36 c 2
 416 319 l 1
 228 319 l 1
 228 -97 l 2
 228 -122 216 -134 191 -134 c 0
 166 -134 153 -122 153 -97 c 2
 153 319 l 1
 137 319 l 1
 79 260 l 2
 71 253 62 249 53 249 c 0
 32 249 14 267 14 287 c 0
 14 297 18 306 26 313 c 0
 39 328 53 342 67 356 c 0
 94 383 110 396 117 396 c 2
 505 396 l 2
 530 395 542 382 542 357 c 0
 542 332 530 319 505 319 c 2
EndSplineSet
Validated: 1
EndChar

StartChar: integral
Encoding: 305 8747 214
GlifName: integral
Width: 535
Flags: W
HStem: -112 75<125.546 169.091> 593 76<367.916 431.958>
VStem: 451 61<521.845 582.998>
LayerCount: 2
Back
Fore
SplineSet
451 541 m 1
 445 555 437 570 428 586 c 0
 422 591 415 593 406 593 c 0
 383 593 370 585 367 570 c 0
 348 457 330 343 312 229 c 0
 285 67 256 -36 225 -79 c 0
 209 -101 187 -112 159 -112 c 0
 132 -112 106 -103 81 -84 c 0
 57 -66 45 -47 45 -28 c 0
 45 -19 48 -11 54 -4 c 0
 65 11 76 18 86 18 c 0
 97 18 108 9 121 -9 c 0
 134 -28 144 -37 149 -37 c 0
 171 -37 199 53 232 232 c 0
 253 350 273 468 293 586 c 0
 304 635 352 669 404 669 c 0
 457 669 492 640 509 583 c 0
 511 577 512 570 512 562 c 0
 512 532 504 517 487 517 c 0
 477 517 465 525 451 541 c 1
EndSplineSet
Validated: 1
EndChar

StartChar: Omega
Encoding: 306 937 215
AltUni2: 002126.ffffffff.0
GlifName: O_mega
Width: 662
Flags: W
HStem: 1 75<21.4219 104 535 616.734> 505 75<203.776 432.346>
VStem: 16 75<211.621 402.888> 409 210<2.99041 71.4322> 553 73<216.492 397.626>
LayerCount: 2
Back
Fore
SplineSet
535 76 m 1xe8
 582 76 l 2
 607 76 619 63 619 38 c 0
 619 13 607 1 582 1 c 2
 449 1 l 2
 422 1 409 9 409 24 c 0xf0
 409 40 424 65 453 100 c 0
 498 154 553 223 553 308 c 0
 553 434 449 505 319 505 c 0
 187 505 91 438 91 310 c 0
 91 216 147 140 204 75 c 0
 222 53 231 36 231 24 c 0
 231 9 217 1 189 1 c 2
 57 1 l 2
 32 1 19 13 19 38 c 0
 19 63 32 76 57 76 c 2
 104 76 l 1
 45 146 16 223 16 307 c 0
 16 478 144 580 319 580 c 0
 494 580 626 482 626 310 c 0
 626 225 596 147 535 76 c 1xe8
EndSplineSet
Validated: 1
EndChar

StartChar: logicalnot
Encoding: 172 172 216
GlifName: logicalnot
Width: 530
Flags: MW
HStem: 130 75<61.5 449 74 411>
VStem: 411 75<61 130 130 130>
LayerCount: 2
Back
Fore
SplineSet
74 205 m 2
 449 205 l 2
 469 205 486 188 486 168 c 2
 486 61 l 2
 486 36 474 24 449 24 c 0xc0
 424 24 411 36 411 61 c 2
 411 130 l 1
 74 130 l 2
 49 130 37 143 37 168 c 0
 37 193 49 205 74 205 c 2
EndSplineSet
Validated: 1
EndChar

StartChar: radical
Encoding: 307 8730 217
GlifName: radical
Width: 614
Flags: W
LayerCount: 2
Back
Fore
SplineSet
29 221 m 0
 76 288 105 329 116 342 c 0
 137 369 154 383 165 383 c 0
 180 383 195 358 211 307 c 2
 281 74 l 1
 515 646 l 2
 522 662 533 670 549 670 c 0
 569 670 588 654 588 633 c 0
 588 628 587 623 585 618 c 2
 311 -51 l 2
 303 -71 291 -81 276 -81 c 0
 259 -81 248 -70 241 -48 c 2
 145 256 l 1
 91 178 l 2
 83 167 73 161 61 161 c 0
 41 161 22 179 22 199 c 0
 22 206 24 214 29 221 c 0
EndSplineSet
Validated: 1
EndChar

StartChar: approxequal
Encoding: 308 8776 218
AltUni2: 0022f2.ffffffff.0
GlifName: approxequal
Width: 553
Flags: W
HStem: 199 74<306.824 387.336> 290 77<144.926 217.952> 393 75<303.111 383.809> 485 77<142.042 214.164>
LayerCount: 2
Back
Fore
SplineSet
27 468 m 2
 83 524 l 1
 107 546 143 562 186 562 c 0
 213 562 236 554 257 537 c 0
 262 533 277 518 301 492 c 0
 316 476 329 468 342 468 c 0
 365 468 388 494 452 546 c 0
 461 553 472 556 483 556 c 0
 508 556 530 537 530 517 c 0
 530 506 525 497 514 489 c 2
 440 428 l 2
 412 406 377 393 335 393 c 0
 306 393 282 400 260 415 c 0
 251 421 203 485 182 485 c 0
 167 485 148 472 125 446 c 0
 100 419 76 405 55 405 c 0
 32 405 16 424 16 444 c 0
 16 454 20 462 27 468 c 2
30 273 m 2
 86 330 l 1
 111 352 147 367 190 367 c 0
 217 367 240 359 261 343 c 0
 266 338 281 323 304 298 c 0
 319 281 333 273 345 273 c 0
 369 273 391 299 455 351 c 0
 465 358 475 361 486 361 c 0
 511 361 534 342 534 322 c 0
 534 311 528 302 517 295 c 2
 444 233 l 1
 415 211 381 199 339 199 c 0
 310 199 285 206 264 220 c 0
 253 227 207 290 185 290 c 0
 171 290 152 277 128 252 c 0
 103 225 80 211 59 211 c 0
 35 211 20 229 20 250 c 0
 20 259 23 267 30 273 c 2
EndSplineSet
Validated: 1
EndChar

StartChar: increment
Encoding: 309 916 219
AltUni2: 002206.ffffffff.0
GlifName: increment
Width: 700
Flags: W
HStem: 53 75<129 566>
LayerCount: 2
Back
Fore
SplineSet
631 53 m 2
 65 53 l 2
 38 53 25 64 25 85 c 0
 25 92 27 100 32 109 c 2
 315 599 l 2
 324 614 335 622 348 622 c 0
 361 622 371 614 380 599 c 2
 663 109 l 2
 668 100 670 92 670 85 c 0
 670 64 657 53 631 53 c 2
348 505 m 1
 129 128 l 1
 566 128 l 1
 348 505 l 1
EndSplineSet
Validated: 1
EndChar

StartChar: Agrave
Encoding: 192 192 221
GlifName: A_grave
Width: 459
Flags: W
HStem: 241 75<41.2656 82 157 348> 503 75<18.2656 82 157 330.585>
VStem: 82 75<-36.7344 241 316 503 578 624.479> 348 75<-198.578 241 316 485.389>
LayerCount: 2
Back
Fore
SplineSet
271 668 m 2
 275 663 277 657 277 651 c 0
 277 636 270 628 257 628 c 0
 252 628 247 630 242 634 c 2
 106 752 l 2
 103 755 102 758 102 763 c 0
 102 774 110 788 126 805 c 0
 142 822 155 830 166 830 c 0
 170 830 173 828 175 825 c 2
 271 668 l 2
EndSplineSet
Refer: 33 65 S 1 0 0 1 0 0 2
Validated: 1
EndChar

StartChar: Atilde
Encoding: 195 195 222
GlifName: A_tilde
Width: 474
Flags: W
HStem: 241 75<41.2656 82 157 348> 503 75<18.2656 82 157 330.585> 654 45<255.675 348.634> 663 21G<73.5 84> 726 46<128.139 202.62>
VStem: 82 75<-36.7344 241 316 503 578 624.479> 348 75<-198.578 241 316 485.389>
LayerCount: 2
Back
Fore
SplineSet
66 703 m 0xde
 94 732 125 772 161 772 c 0
 182 772 204 766 253 723 c 0
 273 707 290 699 303 699 c 0
 322 699 344 713 370 741 c 0
 375 746 380 749 386 749 c 0
 402 749 410 741 410 726 c 0
 410 721 408 716 403 711 c 0
 369 673 336 654 305 654 c 0xee
 281 654 253 666 222 690 c 0
 191 714 171 726 161 726 c 0
 152 726 143 720 132 709 c 2
 97 670 l 2
 92 665 87 663 81 663 c 0
 66 663 58 671 58 686 c 0
 58 692 61 698 66 703 c 0xde
EndSplineSet
Refer: 33 65 S 1 0 0 1 0 0 2
Validated: 1
EndChar

StartChar: Otilde
Encoding: 213 213 223
GlifName: O_tilde
Width: 409
Flags: MW
HStem: -20 75<173.5 241.5 167.5 266.5> 560 75<186.5 219.5> 665 40<265 280 265 287.5> 730 42<131.5 144.5>
VStem: 16 75<238.5 328 208.5 334> 312 75<218.5 343.5>
LayerCount: 2
Back
Fore
SplineSet
203 635 m 0
 267 635 315 601 347 534 c 0
 374 477 387 399 387 300 c 0
 387 87 327 -20 206 -20 c 0
 141 -20 92 9 59 67 c 0
 30 119 16 192 16 285 c 0
 16 383 30 463 58 526 c 0
 91 599 140 635 203 635 c 0
203 560 m 0
 170 560 144 536 123 489 c 0
 102 439 91 371 91 285 c 0
 91 132 129 55 206 55 c 0
 277 55 312 137 312 300 c 0
 312 387 302 452 281 497 c 0
 262 539 236 560 203 560 c 0
52 709 m 0
 79 736 107 772 140 772 c 0
 160 772 178 767 225 728 c 0
 244 713 259 705 271 705 c 0
 289 705 310 718 333 744 c 0
 338 749 343 751 348 751 c 0
 363 751 370 744 370 730 c 0
 370 725 368 721 364 716 c 0
 332 682 302 665 273 665 c 0
 251 665 226 676 197 697 c 0
 168 719 149 730 140 730 c 0
 123 730 103 702 80 679 c 0
 76 675 71 673 66 673 c 0
 52 673 45 680 45 694 c 0
 45 699 47 704 52 709 c 0
EndSplineSet
Validated: 1
EndChar

StartChar: divide
Encoding: 247 247 224
GlifName: divide
Width: 504
Flags: MW
HStem: 128 147<216 260.5> 306 75<75.5 416 88 416> 410 147<228 272>
VStem: 169 150 169 162<463.5 504>
LayerCount: 2
Back
Fore
SplineSet
88 381 m 2xe8
 416 381 l 2
 441 381 454 369 454 344 c 0
 454 319 441 306 416 306 c 2
 88 306 l 2
 63 306 50 319 50 344 c 0
 50 369 63 381 88 381 c 2xe8
169 484 m 0
 169 524 206 557 250 557 c 0
 294 557 331 524 331 484 c 0
 331 443 294 410 250 410 c 0
 206 410 169 443 169 484 c 0
158 201 m 0
 158 242 194 275 238 275 c 0
 283 275 319 242 319 201 c 0xf0
 319 161 283 128 238 128 c 0
 194 128 158 161 158 201 c 0
EndSplineSet
Validated: 1
EndChar

StartChar: lozenge
Encoding: 310 9674 225
GlifName: lozenge
Width: 570
Flags: MW
HStem: 51 21G<275.5 288.5> 766 20G<263.5 282>
LayerCount: 2
Back
Fore
SplineSet
249 75 m 2
 53 422 l 2
 51 425 50 432 51 441 c 0
 51 450 52 457 54 460 c 0
 101 542 149 624 197 705 c 0
 229 759 254 786 273 786 c 0
 291 786 318 760 355 708 c 2
 514 476 l 2
 517 473 519 466 519 457 c 0
 520 447 519 440 517 436 c 2
 315 75 l 2
 306 59 295 51 282 51 c 0
 269 51 258 59 249 75 c 2
276 680 m 1
 129 440 l 1
 282 170 l 1
 440 452 l 1
 276 680 l 1
EndSplineSet
Validated: 1
EndChar

StartChar: ydieresis
Encoding: 255 255 226
GlifName: ydieresis
Width: 492
Flags: MW
HStem: -230 75<251.5 281 251.5 288> -82 74<170.5 197.5> 50 74<359 392> 424 107<234.5 263> 514 20G<370 398.5>
VStem: 149 75<291.5 332 332 345.5> 197 99 332 104<466.5 495.5> 391 75<-91 -86>
LayerCount: 2
Back
Fore
SplineSet
391 -86 m 2xf280
 392 50 l 1
 311 51 254 59 219 74 c 0
 172 95 149 134 149 191 c 2
 149 332 l 2
 149 359 162 372 188 372 c 0
 212 372 224 359 224 332 c 0xf480
 224 251 226 201 230 181 c 0
 236 152 251 135 274 129 c 0
 287 126 326 124 392 124 c 1
 391 329 l 2
 391 354 404 367 429 367 c 0
 454 367 466 354 466 329 c 2
 466 -86 l 2
 466 -123 445 -156 403 -185 c 0
 361 -215 314 -230 262 -230 c 0
 213 -230 168 -221 126 -204 c 0
 70 -181 42 -149 42 -106 c 0
 42 -71 58 -46 90 -29 c 0
 117 -15 150 -8 191 -8 c 0
 221 -8 247 -11 270 -18 c 0
 287 -23 296 -35 296 -53 c 0
 296 -73 281 -92 260 -92 c 0
 256 -92 252 -91 248 -90 c 0
 231 -85 210 -82 185 -82 c 0
 148 -82 125 -90 117 -106 c 1
 117 -121 139 -133 182 -143 c 0
 215 -151 241 -155 262 -155 c 0
 300 -155 332 -145 359 -125 c 0
 380 -109 391 -96 391 -86 c 2xf280
197 478 m 0xf3
 197 507 220 531 249 531 c 0
 277 531 301 507 301 478 c 0
 301 449 277 424 249 424 c 0
 220 424 197 449 197 478 c 0xf3
332 481 m 0
 332 510 356 534 384 534 c 0xed
 413 534 436 510 436 481 c 0
 436 452 413 427 384 427 c 0
 356 427 332 452 332 481 c 0
EndSplineSet
Validated: 1
EndChar

StartChar: Ydieresis
Encoding: 311 376 227
GlifName: Y_dieresis
Width: 485
Flags: MW
HStem: -34 21G<239 264> 635 20G<41.5 57.5 421.5 438> 682 107<124 152.5> 771 20G<334.5 363>
VStem: 87 103<720.5 749.5> 215 75<2 5 5 324 324 324> 297 104<723.5 752.5>
LayerCount: 2
Back
Fore
SplineSet
215 2 m 2xee
 215 324 l 1
 201 337 177 369 143 419 c 0
 92 494 51 553 20 595 c 0
 15 602 12 610 12 617 c 0
 12 638 31 655 52 655 c 0
 63 655 73 650 81 639 c 2
 250 410 l 1
 398 638 l 2
 405 649 415 655 428 655 c 0
 448 655 467 638 467 618 c 0
 467 611 465 604 460 597 c 0
 434 556 398 497 353 422 c 0
 323 371 302 339 290 326 c 1
 290 5 l 2
 290 -21 277 -34 251 -34 c 0
 227 -34 215 -22 215 2 c 2xee
87 735 m 0
 87 764 110 789 138 789 c 0
 167 789 190 764 190 735 c 0
 190 706 167 682 138 682 c 0
 110 682 87 706 87 735 c 0
297 738 m 0
 297 767 320 791 349 791 c 0xde
 377 791 401 767 401 738 c 0
 401 709 377 685 349 685 c 0
 320 685 297 709 297 738 c 0
EndSplineSet
Validated: 1
EndChar

StartChar: Acircumflex
Encoding: 194 194 228
GlifName: A_circumflex
Width: 509
Flags: W
HStem: 241 75<41.2656 82 157 348> 503 75<18.2656 82 157 330.585> 644 27G<118.5 129 377 387.5>
VStem: 82 75<-36.7344 241 316 503 578 624.479> 348 75<-198.578 241 316 485.389>
LayerCount: 2
Back
Fore
SplineSet
110 683 m 2
 206 784 l 2
 227 807 244 818 255 818 c 0
 266 818 282 807 303 786 c 2
 396 689 l 2
 401 684 403 679 403 673 c 0
 403 658 395 650 380 650 c 0
 374 650 369 652 364 657 c 2
 256 765 l 1
 142 651 l 2
 137 646 132 644 126 644 c 0
 111 644 103 652 103 667 c 0
 103 673 105 678 110 683 c 2
EndSplineSet
Refer: 33 65 S 1 0 0 1 0 0 2
Validated: 1
EndChar

StartChar: Ecircumflex
Encoding: 202 202 229
GlifName: E_circumflex
Width: 509
Flags: W
HStem: 0 75<29.4219 111 186 477.578> 265 76<186 425.734> 514 75<31.2656 111 186 431.578> 633 21G<347 357.5>
VStem: 111 75<-39.46 0 75 265 341 514>
LayerCount: 2
Back
Fore
SplineSet
80 666 m 2
 176 767 l 2
 197 790 214 801 225 801 c 0
 236 801 252 790 273 769 c 2
 366 672 l 2
 371 667 373 662 373 656 c 0
 373 641 365 633 350 633 c 0
 344 633 339 635 334 640 c 2
 226 748 l 1
 112 634 l 2
 107 629 102 627 96 627 c 0
 81 627 73 635 73 650 c 0
 73 656 75 661 80 666 c 2
EndSplineSet
Refer: 37 69 S 1 0 0 1 0 0 2
Validated: 1
EndChar

StartChar: Aacute
Encoding: 193 193 230
GlifName: A_acute
Width: 509
Flags: W
HStem: 241 75<41.2656 82 157 348> 503 75<18.2656 82 157 330.585> 653 21G<196.5 205.5>
VStem: 82 75<-36.7344 241 316 503 578 624.479> 348 75<-198.578 241 316 485.389>
LayerCount: 2
Back
Fore
SplineSet
189 693 m 2
 285 850 l 2
 287 853 290 855 295 855 c 0
 306 855 319 847 334 830 c 0
 350 813 358 799 358 788 c 0
 358 783 357 780 354 777 c 2
 219 659 l 2
 214 655 208 653 203 653 c 0
 190 653 184 661 184 676 c 0
 184 682 186 688 189 693 c 2
EndSplineSet
Refer: 33 65 S 1 0 0 1 0 0 2
Validated: 1
EndChar

StartChar: Edieresis
Encoding: 203 203 231
GlifName: E_dieresis
Width: 509
Flags: W
HStem: 0 75<29.4219 111 186 477.578> 265 76<186 425.734> 514 75<31.2656 111 186 431.578> 658 107<100.929 181.996 312.586 391.078>
VStem: 90 103<667.854 754.808> 111 75<-39.46 0 75 265 341 514> 300 104<671.609 756.391>
LayerCount: 2
Back
Fore
SplineSet
90 711 m 0xfa
 90 740 113 765 141 765 c 0
 170 765 193 740 193 711 c 0
 193 682 170 658 141 658 c 0
 113 658 90 682 90 711 c 0xfa
300 714 m 0
 300 743 323 767 352 767 c 0
 380 767 404 743 404 714 c 0
 404 685 380 661 352 661 c 0
 323 661 300 685 300 714 c 0
EndSplineSet
Refer: 37 69 S 1 0 0 1 0 0 2
Validated: 1
EndChar

StartChar: Egrave
Encoding: 200 200 232
GlifName: E_grave
Width: 509
Flags: W
HStem: 0 75<29.4219 111 186 477.578> 265 76<186 425.734> 514 75<31.2656 111 186 431.578>
VStem: 111 75<-39.46 0 75 265 341 514>
LayerCount: 2
Back
Fore
SplineSet
317 671 m 2
 321 666 323 660 323 654 c 0
 323 639 316 631 303 631 c 0
 298 631 293 633 288 637 c 2
 152 755 l 2
 149 758 148 761 148 766 c 0
 148 777 156 791 172 808 c 0
 188 825 201 833 212 833 c 0
 216 833 219 831 221 828 c 2
 317 671 l 2
EndSplineSet
Refer: 37 69 N 1 0 0 1 0 0 2
Validated: 1
EndChar

StartChar: Icircumflex
Encoding: 206 206 234
GlifName: I_circumflex
Width: 379
Flags: W
HStem: 1 75<18.4219 142 217 359.734> 554 75<15.4219 142 217 356.734> 644 25G<54.5 65 307.5 317.5>
VStem: 142 75<76 554>
LayerCount: 2
Back
Fore
SplineSet
47 674 m 0
 78 700 109 726 140 753 c 0
 161 770 178 779 189 779 c 0
 200 779 215 771 236 754 c 2
 326 679 l 2
 331 675 333 671 333 666 c 0
 333 654 325 648 310 648 c 0
 305 648 300 650 295 654 c 2
 189 738 l 1
 78 649 l 2
 73 646 68 644 62 644 c 0
 47 644 40 650 40 662 c 0
 40 667 42 671 47 674 c 0
EndSplineSet
Refer: 41 73 S 1 0 0 1 0 0 2
Validated: 1
EndChar

StartChar: Idieresis
Encoding: 207 207 235
GlifName: I_dieresis
Width: 379
Flags: W
HStem: 1 75<18.4219 142 217 359.734> 554 75<15.4219 142 217 356.734> 651 107<38.929 119.996 250.586 329.078>
VStem: 28 103<660.854 747.808> 142 75<76 554> 238 104<664.609 749.391>
LayerCount: 2
Back
Fore
SplineSet
28 704 m 0
 28 733 51 758 79 758 c 0
 108 758 131 733 131 704 c 0
 131 675 108 651 79 651 c 0
 51 651 28 675 28 704 c 0
238 707 m 0
 238 736 261 760 290 760 c 0
 318 760 342 736 342 707 c 0
 342 678 318 654 290 654 c 0
 261 654 238 678 238 707 c 0
EndSplineSet
Refer: 41 73 S 1 0 0 1 0 0 2
Validated: 1
EndChar

StartChar: Igrave
Encoding: 204 204 236
GlifName: I_grave
Width: 379
Flags: W
HStem: 1 75<18.4219 142 217 359.734> 554 75<15.4219 142 217 356.734> 643 21G<247.5 256.5>
VStem: 142 75<76 554>
LayerCount: 2
Back
Fore
SplineSet
264 683 m 2
 268 678 270 672 270 666 c 0
 270 651 263 643 250 643 c 0
 245 643 240 645 235 649 c 2
 99 767 l 2
 96 770 95 773 95 778 c 0
 95 789 103 803 119 820 c 0
 135 837 148 845 159 845 c 0
 163 845 166 843 168 840 c 2
 264 683 l 2
EndSplineSet
Refer: 41 73 S 1 0 0 1 0 0 2
Validated: 1
EndChar

StartChar: Oacute
Encoding: 211 211 237
GlifName: O_acute
Width: 403
Flags: MW
HStem: -20 75<173.5 241.5 167.5 266.5> 560 75<186.5 219.5> 623 20G<129.5 138.5> 825 20G<225.5 233.5>
VStem: 16 75<238.5 328 208.5 334> 312 75<218.5 343.5>
LayerCount: 2
Back
Fore
SplineSet
203 635 m 0xdc
 267 635 315 601 347 534 c 0
 374 477 387 399 387 300 c 0
 387 87 327 -20 206 -20 c 0
 141 -20 92 9 59 67 c 0
 30 119 16 192 16 285 c 0
 16 383 30 463 58 526 c 0
 91 599 140 635 203 635 c 0xdc
203 560 m 0
 170 560 144 536 123 489 c 0
 102 439 91 371 91 285 c 0
 91 132 129 55 206 55 c 0
 277 55 312 137 312 300 c 0
 312 387 302 452 281 497 c 0
 262 539 236 560 203 560 c 0
122 683 m 2
 218 840 l 2
 220 843 223 845 228 845 c 0
 239 845 252 837 267 820 c 0
 283 803 291 789 291 778 c 0
 291 773 290 770 287 767 c 2
 152 649 l 2
 147 645 141 643 136 643 c 0xbc
 123 643 117 651 117 666 c 0
 117 672 119 678 122 683 c 2
EndSplineSet
Validated: 1
EndChar

StartChar: Ocircumflex
Encoding: 212 212 238
GlifName: O_circumflex
Width: 403
Flags: MW
HStem: -20 75<173.5 241.5 167.5 266.5> 560 75<186.5 219.5> 621 20G<72.5 82.5> 625 20G<323.5 333.5> 753 20G<199.5 210.5>
VStem: 16 75<238.5 328 208.5 334> 312 75<218.5 343.5>
LayerCount: 2
Back
Fore
SplineSet
203 635 m 0xce
 267 635 315 601 347 534 c 0
 374 477 387 399 387 300 c 0
 387 87 327 -20 206 -20 c 0
 141 -20 92 9 59 67 c 0
 30 119 16 192 16 285 c 0
 16 383 30 463 58 526 c 0
 91 599 140 635 203 635 c 0xce
203 560 m 0
 170 560 144 536 123 489 c 0
 102 439 91 371 91 285 c 0
 91 132 129 55 206 55 c 0
 277 55 312 137 312 300 c 0
 312 387 302 452 281 497 c 0
 262 539 236 560 203 560 c 0
64 670 m 0
 95 696 126 722 157 747 c 0
 178 764 194 773 205 773 c 0
 216 773 231 765 252 749 c 2
 342 675 l 2
 347 672 349 668 349 663 c 0
 349 651 341 645 326 645 c 0x9e
 321 645 316 647 311 651 c 2
 206 733 l 1
 95 646 l 2
 90 643 85 641 80 641 c 0xae
 65 641 57 647 57 659 c 0
 57 663 59 667 64 670 c 0
EndSplineSet
Validated: 1
EndChar

StartChar: Ograve
Encoding: 210 210 239
GlifName: O_grave
Width: 431
Flags: W
HStem: -20 75<177.158 286.998> 560 75<181.363 282.162> 646 21G<300.5 309.5>
VStem: 44 75<128.589 463.187> 340 75<129.903 475.612>
LayerCount: 2
Back
Fore
SplineSet
231 635 m 0
 375 635 415 468 415 300 c 0
 415 87 355 -20 234 -20 c 0
 89 -20 44 122 44 285 c 0
 44 450 88 635 231 635 c 0
231 560 m 0
 140 560 119 399 119 285 c 0
 119 132 157 55 234 55 c 0
 305 55 340 137 340 300 c 0
 340 416 323 560 231 560 c 0
317 686 m 2
 321 681 323 675 323 669 c 0
 323 654 316 646 303 646 c 0
 298 646 293 648 288 652 c 2
 152 770 l 2
 149 773 148 776 148 781 c 0
 148 792 156 806 172 823 c 0
 188 840 201 848 212 848 c 0
 216 848 219 846 221 843 c 2
 317 686 l 2
EndSplineSet
Validated: 1
EndChar

StartChar: Uacute
Encoding: 218 218 240
GlifName: U_acute
Width: 509
Flags: MW
HStem: -40 75<204 249.5> 622 20G<350.5 375.5> 813 20G<269.5 277.5>
VStem: 56 75<118 536 536 537 117 548.5> 326 75<126 604 126 616.5>
LayerCount: 2
Back
Fore
SplineSet
226 -40 m 0
 182 -40 144 -25 112 6 c 0
 80 37 61 74 56 118 c 1
 56 536 l 2
 56 561 68 574 93 574 c 0
 118 574 131 562 131 537 c 2
 131 117 l 1
 142 69 178 35 226 35 c 0
 278 35 321 75 326 126 c 1
 326 604 l 2
 326 629 338 642 363 642 c 0
 388 642 401 629 401 604 c 2
 401 126 l 2
 398 79 380 40 346 8 c 0
 313 -24 273 -40 226 -40 c 0
166 671 m 2
 262 828 l 2
 264 831 267 833 272 833 c 0
 283 833 296 825 311 808 c 0
 327 791 335 777 335 766 c 0
 335 761 334 758 331 755 c 2
 196 637 l 2
 191 633 185 631 180 631 c 0
 167 631 161 639 161 654 c 0
 161 660 163 666 166 671 c 2
EndSplineSet
Validated: 1
EndChar

StartChar: Ucircumflex
Encoding: 219 219 241
GlifName: U_circumflex
Width: 509
Flags: MW
HStem: -40 75<204 249.5> 574 82<80.5 125.5> 622 20G<350.5 375.5> 641 20G<369 379.5> 771 20G<244.5 255.5>
VStem: 56 75<118 536 536 537 117 548.5> 326 75<126 604 126 616.5>
LayerCount: 2
Back
Fore
SplineSet
226 -40 m 0xae
 182 -40 144 -25 112 6 c 0
 80 37 61 74 56 118 c 1
 56 536 l 2
 56 561 68 574 93 574 c 0xce
 118 574 131 562 131 537 c 2
 131 117 l 1
 142 69 178 35 226 35 c 0
 278 35 321 75 326 126 c 1
 326 604 l 2
 326 629 338 642 363 642 c 0
 388 642 401 629 401 604 c 2
 401 126 l 2
 398 79 380 40 346 8 c 0
 313 -24 273 -40 226 -40 c 0xae
107 686 m 0
 138 712 170 738 201 765 c 0
 222 782 239 791 250 791 c 0
 261 791 276 783 297 766 c 2
 388 691 l 2
 393 687 395 683 395 679 c 0
 395 667 387 661 372 661 c 0x9e
 366 661 361 663 356 666 c 2
 250 750 l 1
 138 662 l 2
 133 658 128 656 123 656 c 0
 108 656 100 662 100 674 c 0
 100 679 102 683 107 686 c 0
EndSplineSet
Validated: 1
EndChar

StartChar: Ugrave
Encoding: 217 217 242
GlifName: U_grave
Width: 509
Flags: HMW
HStem: -40 75<204 249.5> 622 20G<350.5 375.5> 788 20G<162.5 170>
VStem: 56 75<118 536 118 118> 326 75<126 604 126 604>
LayerCount: 2
Back
Fore
SplineSet
226 -40 m 0
 182 -40 144 -25 112 6 c 0
 80 37 61 74 56 118 c 1
 56 536 l 2
 56 561 68 574 93 574 c 0
 118 574 131 562 131 537 c 2
 131 117 l 1
 142 69 178 35 226 35 c 0
 278 35 321 75 326 126 c 1
 326 604 l 2
 326 629 338 642 363 642 c 0
 388 642 401 629 401 604 c 2
 401 126 l 2
 398 79 380 40 346 8 c 0
 313 -24 273 -40 226 -40 c 0
273 646 m 2
 277 641 279 635 279 629 c 0
 279 614 272 606 259 606 c 0
 254 606 249 608 244 612 c 2
 108 730 l 2
 105 733 104 736 104 741 c 0
 104 752 112 766 128 783 c 0
 144 800 157 808 168 808 c 0
 172 808 175 806 177 803 c 2
 273 646 l 2
EndSplineSet
Validated: 1
EndChar

StartChar: Euro
Encoding: 315 8364 243
GlifName: E_uro
Width: 489
Flags: W
HStem: -38 75<187.922 297.7> 256 76<-73.9373 16 95 364.441> 394 75<-64.5781 19 111 374.734> 616 75<187.922 297.879>
VStem: 19 76<166.713 256 332 394>
LayerCount: 2
Back
Fore
SplineSet
16 332 m 5
 16 352 17 375 19 394 c 5
 -29 394 l 6
 -54 395 -67 407 -67 432 c 4
 -67 457 -54 469 -29 469 c 6
 33 469 l 5
 43 508 58 544 77 577 c 4
 120 653 176 691 243 691 c 4
 310 691 366 653 409 577 c 4
 414 568 417 560 417 553 c 4
 417 538 401 517 380 517 c 4
 365 517 351 528 344 539 c 4
 313 590 280 616 243 616 c 4
 206 616 172 590 142 539 c 4
 129 518 119 494 111 469 c 5
 340 469 l 6
 365 469 377 457 377 432 c 4
 377 407 365 394 340 394 c 6
 95 394 l 5
 93 375 92 352 92 332 c 5
 330 332 l 6
 355 332 367 320 367 295 c 4
 367 270 355 256 330 256 c 6
 95 256 l 5
 102 201 118 155 142 114 c 4
 172 63 206 37 243 37 c 4
 276 37 306 58 334 98 c 5
 345 114 356 120 367 120 c 4
 386 120 403 101 403 79 c 4
 403 70 401 61 395 53 c 5
 354 -8 303 -38 243 -38 c 4
 176 -38 120 0 77 76 c 4
 46 130 27 188 20 256 c 5
 -39 256 l 6
 -62 256 -77 270 -77 295 c 4
 -77 320 -64 332 -39 332 c 6
 16 332 l 5
EndSplineSet
Validated: 1
EndChar
